<svg width="48" height="44" viewBox="0 0 48 44" fill="none" xmlns="http://www.w3.org/2000/svg">
<g clip-path="url(#clip0_303_82)">
<g filter="url(#filter0_d_303_82)">
<path d="M0 21.7868C0 9.75428 9.75428 0 21.7868 0V0C33.8193 0 43.5736 9.75428 43.5736 21.7868V21.7868C43.5736 33.8193 33.8193 43.5736 21.7868 43.5736V43.5736C9.75428 43.5736 0 33.8193 0 21.7868V21.7868Z" fill="white" shape-rendering="crispEdges"/>
<path d="M7.52928 10.3528V12.3822C7.52928 17.9968 10.5731 22.9079 15.1045 25.6408V31.9995H35.7641V29.2936C35.7641 25.6949 28.423 23.882 24.7456 23.882C24.7456 23.882 24.5115 23.882 24.4013 23.882C17.8591 23.882 12.3499 18.4703 12.3499 12.3822V10.3528M24.7456 10.3528C23.2845 10.3528 21.8832 10.9229 20.85 11.9378C19.8168 12.9527 19.2364 14.3292 19.2364 15.7645C19.2364 17.1997 19.8168 18.5762 20.85 19.5911C21.8832 20.606 23.2845 21.1761 24.7456 21.1761C26.2068 21.1761 27.6081 20.606 28.6412 19.5911C29.6744 18.5762 30.2549 17.1997 30.2549 15.7645C30.2549 14.3292 29.6744 12.9527 28.6412 11.9378C27.6081 10.9229 26.2068 10.3528 24.7456 10.3528Z" fill="#FF2480"/>
</g>
</g>
<defs>
<filter id="filter0_d_303_82" x="-4" y="-3" width="51.5736" height="51.5736" filterUnits="userSpaceOnUse" color-interpolation-filters="sRGB">
<feFlood flood-opacity="0" result="BackgroundImageFix"/>
<feColorMatrix in="SourceAlpha" type="matrix" values="0 0 0 0 0 0 0 0 0 0 0 0 0 0 0 0 0 0 127 0" result="hardAlpha"/>
<feOffset dy="1"/>
<feGaussianBlur stdDeviation="2"/>
<feComposite in2="hardAlpha" operator="out"/>
<feColorMatrix type="matrix" values="0 0 0 0 0 0 0 0 0 0 0 0 0 0 0 0 0 0 0.25 0"/>
<feBlend mode="normal" in2="BackgroundImageFix" result="effect1_dropShadow_303_82"/>
<feBlend mode="normal" in="SourceGraphic" in2="effect1_dropShadow_303_82" result="shape"/>
</filter>
<clipPath id="clip0_303_82">
<rect width="48" height="43.5736" fill="white"/>
</clipPath>
</defs>
</svg>
