<svg width="816" height="279" viewBox="0 0 816 279" fill="none" xmlns="http://www.w3.org/2000/svg">
<g filter="url(#filter0_ddddii_2_230)">
<path d="M90 112.4C90 100.029 100.029 90 112.4 90H366.267C378.638 90 388.667 100.029 388.667 112.4V151.6C388.667 163.971 378.638 174 366.267 174H112.4C100.029 174 90 163.971 90 151.6V112.4Z" fill="url(#paint0_linear_2_230)"/>
</g>
<g filter="url(#filter1_d_2_230)">
<path d="M164.301 143.184H162.486C161.747 143.184 161.148 142.96 160.689 142.512C160.23 142.064 160 141.431 160 140.614V120.235L160.235 120H161.831C162.682 120 163.304 120.218 163.696 120.655C164.099 121.092 164.301 121.786 164.301 122.738V143.184ZM173.692 139.471C173.692 140.882 173.468 141.857 173.02 142.394C172.583 142.921 171.844 143.184 170.802 143.184H162.486L160.235 140.059C161.445 139.858 162.677 139.712 163.931 139.622C165.186 139.522 166.328 139.471 167.358 139.471H173.692Z" fill="black"/>
<path d="M178.007 136.145V133.188H185.466V132.785C185.466 132.102 185.366 131.48 185.164 130.92C184.974 130.349 184.666 129.895 184.24 129.559C183.826 129.212 183.266 129.038 182.56 129.038C181.552 129.038 180.807 129.464 180.326 130.315C179.855 131.155 179.62 132.365 179.62 133.944V135.204C179.62 136.145 179.71 137.002 179.889 137.774C180.079 138.547 180.426 139.163 180.93 139.622C181.446 140.082 182.196 140.311 183.182 140.311C183.988 140.311 184.772 140.199 185.534 139.975C186.295 139.74 187.029 139.46 187.734 139.135C188.059 139.449 188.322 139.852 188.524 140.345C188.726 140.826 188.86 141.274 188.927 141.689C188.11 142.282 187.13 142.747 185.987 143.083C184.856 143.419 183.702 143.587 182.526 143.587C181.138 143.587 179.978 143.352 179.049 142.882C178.13 142.4 177.402 141.75 176.865 140.933C176.327 140.104 175.941 139.169 175.706 138.127C175.482 137.086 175.37 135.999 175.37 134.868C175.37 133.188 175.627 131.682 176.142 130.349C176.669 129.016 177.458 127.963 178.511 127.19C179.575 126.406 180.93 126.014 182.577 126.014C184.044 126.014 185.282 126.334 186.29 126.972C187.298 127.599 188.065 128.456 188.591 129.542C189.118 130.618 189.381 131.827 189.381 133.171C189.381 133.787 189.358 134.314 189.314 134.75C189.269 135.176 189.185 135.641 189.062 136.145H178.007Z" fill="black"/>
<path d="M192.12 138.581C192.12 137.282 192.417 136.212 193.01 135.372C193.604 134.532 194.394 133.916 195.379 133.524C196.365 133.121 197.451 132.919 198.638 132.919C199.221 132.919 199.904 132.942 200.688 132.986C201.472 133.02 202.189 133.11 202.838 133.255V135.977C202.278 135.854 201.64 135.775 200.923 135.742C200.206 135.708 199.562 135.691 198.991 135.691C198.084 135.691 197.395 135.926 196.925 136.397C196.466 136.867 196.236 137.5 196.236 138.295C196.236 138.889 196.404 139.393 196.74 139.807C197.087 140.21 197.574 140.412 198.202 140.412C198.963 140.412 199.758 140.143 200.587 139.606C201.416 139.068 202.11 138.295 202.67 137.287L203.292 140.227C202.866 140.72 202.362 141.224 201.78 141.739C201.209 142.254 200.537 142.691 199.764 143.05C199.002 143.408 198.129 143.587 197.143 143.587C196.012 143.587 195.071 143.341 194.321 142.848C193.582 142.344 193.027 141.711 192.658 140.95C192.299 140.177 192.12 139.387 192.12 138.581ZM206.635 141.235C206.534 141.616 206.344 142.019 206.064 142.445C205.795 142.87 205.51 143.184 205.207 143.386C204.39 143.296 203.723 143.05 203.208 142.646C202.693 142.243 202.301 141.762 202.032 141.202C201.774 140.63 201.612 140.048 201.545 139.454V132.046C201.545 131.116 201.326 130.444 200.89 130.03C200.464 129.615 199.837 129.408 199.008 129.408C198.213 129.408 197.373 129.531 196.488 129.778C195.614 130.013 194.741 130.287 193.867 130.601C193.554 130.265 193.296 129.817 193.094 129.257C192.904 128.686 192.786 128.142 192.742 127.627C193.425 127.336 194.186 127.078 195.026 126.854C195.866 126.619 196.718 126.434 197.58 126.3C198.454 126.166 199.26 126.098 199.999 126.098C201.052 126.098 202.01 126.294 202.872 126.686C203.734 127.078 204.418 127.689 204.922 128.518C205.437 129.346 205.694 130.433 205.694 131.777V138.631C205.694 139.214 205.756 139.718 205.879 140.143C206.014 140.569 206.266 140.933 206.635 141.235Z" fill="black"/>
<path d="M220.605 126.468C220.605 126.994 220.521 127.638 220.353 128.4C220.196 129.15 219.939 129.811 219.58 130.382C219.334 130.304 219.082 130.254 218.824 130.231C218.578 130.209 218.326 130.181 218.068 130.147C217.508 130.147 217.015 130.265 216.59 130.5C216.164 130.724 215.789 131.026 215.464 131.407C215.151 131.777 214.871 132.208 214.624 132.701C214.389 133.182 214.176 133.681 213.986 134.196L213.448 133.507C213.493 132.667 213.605 131.822 213.784 130.97C213.975 130.108 214.266 129.318 214.658 128.602C215.05 127.885 215.571 127.314 216.22 126.888C216.87 126.451 217.682 126.233 218.656 126.233C219.037 126.233 219.379 126.255 219.681 126.3C219.983 126.334 220.291 126.39 220.605 126.468ZM209.383 128.4C209.472 128.03 209.651 127.627 209.92 127.19C210.2 126.754 210.486 126.429 210.777 126.216C212.065 126.418 213.028 126.989 213.667 127.93C214.316 128.859 214.697 130.063 214.809 131.542V143.134C214.204 143.234 213.51 143.285 212.726 143.285C211.953 143.285 211.259 143.234 210.643 143.134V131.878C210.643 130.937 210.503 130.186 210.223 129.626C209.954 129.055 209.674 128.646 209.383 128.4Z" fill="black"/>
<path d="M224.919 126.283C225.747 126.283 226.347 126.552 226.716 127.09C227.097 127.627 227.287 128.361 227.287 129.29V143.134C226.694 143.234 226.005 143.285 225.221 143.285C224.437 143.285 223.731 143.234 223.104 143.134V126.518L223.339 126.283H224.919ZM236.83 139.32C236.83 139.936 236.88 140.518 236.981 141.067C237.082 141.605 237.255 142.075 237.502 142.478C237.188 142.736 236.802 142.949 236.343 143.117C235.883 143.285 235.396 143.369 234.881 143.369C234.052 143.369 233.47 143.145 233.134 142.697C232.809 142.249 232.647 141.605 232.647 140.765V132.751C232.647 131.777 232.518 131.066 232.26 130.618C232.014 130.158 231.532 129.929 230.815 129.929C230.345 129.929 229.819 130.046 229.236 130.282C228.665 130.517 228.116 130.87 227.59 131.34C227.063 131.799 226.621 132.376 226.263 133.07V129.24C227.024 128.411 227.915 127.694 228.934 127.09C229.964 126.474 231.079 126.166 232.277 126.166C233.319 126.166 234.175 126.418 234.847 126.922C235.519 127.414 236.018 128.092 236.343 128.954C236.667 129.806 236.83 130.774 236.83 131.861V139.32Z" fill="black"/>
<path d="M250.476 120.202C250.935 120.123 251.439 120.073 251.988 120.05C252.536 120.017 252.996 120 253.365 120C253.735 120 254.16 120.017 254.642 120.05C255.135 120.073 255.616 120.123 256.087 120.202L258.792 129.811C258.87 130.046 258.965 130.41 259.077 130.903C259.2 131.396 259.329 131.934 259.464 132.516C259.609 133.098 259.738 133.658 259.85 134.196C259.962 134.722 260.046 135.142 260.102 135.456H260.304C260.348 135.142 260.427 134.722 260.539 134.196C260.662 133.658 260.791 133.098 260.925 132.516C261.06 131.934 261.188 131.396 261.312 130.903C261.446 130.41 261.541 130.046 261.597 129.811L264.319 120.202C264.8 120.123 265.282 120.073 265.764 120.05C266.245 120.017 266.671 120 267.04 120C267.399 120 267.847 120.017 268.384 120.05C268.933 120.073 269.448 120.123 269.93 120.202L271.711 143.083C271.408 143.15 271.056 143.201 270.652 143.234C270.249 143.279 269.874 143.302 269.527 143.302C269.202 143.302 268.883 143.29 268.569 143.268C268.256 143.246 267.948 143.212 267.645 143.167L266.956 132.029C266.923 131.346 266.884 130.578 266.839 129.727C266.805 128.876 266.772 128.025 266.738 127.174C266.716 126.311 266.699 125.538 266.688 124.855H266.486L262.387 139.673C262.073 139.729 261.704 139.774 261.278 139.807C260.864 139.83 260.5 139.841 260.186 139.841C259.884 139.841 259.525 139.83 259.111 139.807C258.696 139.774 258.332 139.729 258.019 139.673L253.92 124.855H253.718C253.707 125.538 253.684 126.311 253.651 127.174C253.617 128.025 253.584 128.876 253.55 129.727C253.516 130.578 253.483 131.346 253.449 132.029L252.76 143.167C252.447 143.212 252.128 143.246 251.803 143.268C251.489 143.29 251.17 143.302 250.845 143.302C250.498 143.302 250.123 143.279 249.72 143.234C249.328 143.201 248.986 143.15 248.695 143.083L250.476 120.202Z" fill="black"/>
<path d="M290.152 134.801C290.152 136.548 289.872 138.082 289.312 139.404C288.752 140.726 287.918 141.756 286.809 142.495C285.7 143.223 284.328 143.587 282.693 143.587C281.058 143.587 279.686 143.218 278.577 142.478C277.48 141.739 276.651 140.709 276.091 139.387C275.531 138.066 275.251 136.537 275.251 134.801C275.251 133.054 275.531 131.525 276.091 130.214C276.662 128.893 277.496 127.862 278.594 127.123C279.703 126.384 281.069 126.014 282.693 126.014C284.34 126.014 285.717 126.39 286.826 127.14C287.935 127.879 288.764 128.91 289.312 130.231C289.872 131.542 290.152 133.065 290.152 134.801ZM279.552 134.801C279.552 135.798 279.636 136.727 279.804 137.59C279.972 138.441 280.285 139.13 280.744 139.656C281.204 140.171 281.859 140.429 282.71 140.429C283.572 140.429 284.228 140.171 284.676 139.656C285.124 139.13 285.432 138.441 285.6 137.59C285.779 136.727 285.868 135.798 285.868 134.801C285.868 133.815 285.779 132.891 285.6 132.029C285.432 131.166 285.124 130.472 284.676 129.946C284.228 129.419 283.572 129.156 282.71 129.156C281.859 129.156 281.204 129.419 280.744 129.946C280.285 130.472 279.972 131.166 279.804 132.029C279.636 132.891 279.552 133.815 279.552 134.801Z" fill="black"/>
<path d="M304.08 126.468C304.08 126.994 303.996 127.638 303.828 128.4C303.671 129.15 303.414 129.811 303.055 130.382C302.809 130.304 302.557 130.254 302.299 130.231C302.053 130.209 301.801 130.181 301.543 130.147C300.983 130.147 300.49 130.265 300.065 130.5C299.639 130.724 299.264 131.026 298.939 131.407C298.626 131.777 298.346 132.208 298.099 132.701C297.864 133.182 297.651 133.681 297.461 134.196L296.923 133.507C296.968 132.667 297.08 131.822 297.259 130.97C297.45 130.108 297.741 129.318 298.133 128.602C298.525 127.885 299.046 127.314 299.695 126.888C300.345 126.451 301.157 126.233 302.131 126.233C302.512 126.233 302.854 126.255 303.156 126.3C303.458 126.334 303.766 126.39 304.08 126.468ZM292.858 128.4C292.947 128.03 293.126 127.627 293.395 127.19C293.675 126.754 293.961 126.429 294.252 126.216C295.54 126.418 296.503 126.989 297.142 127.93C297.791 128.859 298.172 130.063 298.284 131.542V143.134C297.679 143.234 296.985 143.285 296.201 143.285C295.428 143.285 294.734 143.234 294.118 143.134V131.878C294.118 130.937 293.978 130.186 293.698 129.626C293.429 129.055 293.149 128.646 292.858 128.4Z" fill="black"/>
<path d="M307.551 136.145V133.188H315.01V132.785C315.01 132.102 314.909 131.48 314.708 130.92C314.517 130.349 314.209 129.895 313.784 129.559C313.369 129.212 312.809 129.038 312.104 129.038C311.096 129.038 310.351 129.464 309.869 130.315C309.399 131.155 309.164 132.365 309.164 133.944V135.204C309.164 136.145 309.253 137.002 309.433 137.774C309.623 138.547 309.97 139.163 310.474 139.622C310.989 140.082 311.74 140.311 312.725 140.311C313.532 140.311 314.316 140.199 315.077 139.975C315.839 139.74 316.573 139.46 317.278 139.135C317.603 139.449 317.866 139.852 318.068 140.345C318.269 140.826 318.404 141.274 318.471 141.689C317.653 142.282 316.673 142.747 315.531 143.083C314.4 143.419 313.246 143.587 312.07 143.587C310.681 143.587 309.522 143.352 308.593 142.882C307.674 142.4 306.946 141.75 306.409 140.933C305.871 140.104 305.485 139.169 305.249 138.127C305.025 137.086 304.913 135.999 304.913 134.868C304.913 133.188 305.171 131.682 305.686 130.349C306.213 129.016 307.002 127.963 308.055 127.19C309.119 126.406 310.474 126.014 312.121 126.014C313.588 126.014 314.825 126.334 315.833 126.972C316.841 127.599 317.609 128.456 318.135 129.542C318.661 130.618 318.925 131.827 318.925 133.171C318.925 133.787 318.902 134.314 318.857 134.75C318.813 135.176 318.729 135.641 318.605 136.145H307.551Z" fill="black"/>
</g>
<g filter="url(#filter2_ddddii_2_230)">
<path d="M412 112.4C412 100.029 422.029 90 434.4 90H688.267C700.638 90 710.667 100.029 710.667 112.4V151.6C710.667 163.971 700.638 174 688.267 174H434.4C422.029 174 412 163.971 412 151.6V112.4Z" fill="url(#paint1_linear_2_230)"/>
</g>
<g filter="url(#filter3_d_2_230)">
<path d="M506 138.37C506.056 137.754 506.252 137.149 506.588 136.555C506.935 135.95 507.316 135.469 507.73 135.11C508.705 135.715 509.786 136.242 510.973 136.69C512.171 137.126 513.353 137.345 514.518 137.345C515.727 137.345 516.64 137.076 517.256 136.538C517.883 135.99 518.197 135.329 518.197 134.556C518.197 133.929 517.99 133.346 517.575 132.809C517.161 132.26 516.472 131.784 515.509 131.381L511.443 129.684C510.043 129.09 508.912 128.323 508.05 127.382C507.187 126.43 506.756 125.204 506.756 123.703C506.756 122.404 507.092 121.25 507.764 120.242C508.436 119.234 509.36 118.445 510.536 117.874C511.723 117.291 513.067 117 514.568 117C516.046 117 517.435 117.19 518.734 117.571C520.045 117.941 521.137 118.35 522.01 118.798C521.977 119.414 521.82 120.018 521.54 120.612C521.271 121.206 520.924 121.693 520.498 122.074C519.625 121.648 518.645 121.278 517.558 120.965C516.472 120.64 515.492 120.478 514.618 120.478C513.487 120.478 512.625 120.746 512.031 121.284C511.438 121.822 511.141 122.449 511.141 123.166C511.141 123.782 511.354 124.297 511.779 124.711C512.205 125.126 512.815 125.501 513.61 125.837L517.659 127.534C518.667 127.948 519.546 128.469 520.297 129.096C521.058 129.712 521.646 130.429 522.061 131.246C522.486 132.053 522.699 132.954 522.699 133.951C522.699 135.262 522.391 136.438 521.775 137.479C521.159 138.521 520.224 139.344 518.97 139.949C517.715 140.554 516.142 140.856 514.249 140.856C512.86 140.856 511.432 140.638 509.965 140.201C508.498 139.764 507.176 139.154 506 138.37Z" fill="black"/>
<path d="M531.004 140.402C530.399 140.503 529.705 140.554 528.921 140.554C528.148 140.554 527.454 140.503 526.838 140.402V128.558C526.838 127.976 526.726 127.528 526.502 127.214C526.289 126.901 525.891 126.744 525.309 126.744H524.906C524.782 126.274 524.721 125.792 524.721 125.299C524.721 125.053 524.732 124.801 524.754 124.543C524.788 124.286 524.838 124.028 524.906 123.77C525.354 123.714 525.796 123.675 526.233 123.653C526.681 123.63 527.05 123.619 527.342 123.619H527.913C528.865 123.619 529.615 123.927 530.164 124.543C530.724 125.148 531.004 125.971 531.004 127.013V140.402ZM525.796 119.167C525.796 118.551 525.914 117.991 526.149 117.487C526.384 117.353 526.698 117.246 527.09 117.168C527.482 117.078 527.868 117.034 528.249 117.034C528.607 117.034 528.994 117.078 529.408 117.168C529.822 117.246 530.136 117.353 530.349 117.487C530.461 117.722 530.545 117.997 530.601 118.31C530.668 118.613 530.702 118.898 530.702 119.167C530.702 119.772 530.584 120.332 530.349 120.847C530.147 120.982 529.834 121.094 529.408 121.183C528.994 121.262 528.607 121.301 528.249 121.301C527.868 121.301 527.476 121.262 527.073 121.183C526.67 121.094 526.362 120.982 526.149 120.847C525.914 120.332 525.796 119.772 525.796 119.167Z" fill="black"/>
<path d="M549.811 125.635C549.475 125.904 549.234 126.302 549.088 126.828C548.943 127.343 548.87 127.909 548.87 128.525V138.034C548.87 139.434 548.803 140.604 548.668 141.545C548.545 142.486 548.36 143.264 548.114 143.88C547.868 144.507 547.571 145.045 547.224 145.493C546.63 146.221 545.829 146.786 544.821 147.19C543.813 147.604 542.66 147.811 541.36 147.811C540.319 147.811 539.26 147.705 538.185 147.492C537.11 147.279 536.164 147.01 535.346 146.686C535.357 146.182 535.458 145.627 535.648 145.022C535.85 144.429 536.102 143.958 536.404 143.611C537.121 143.936 537.888 144.188 538.706 144.367C539.524 144.558 540.28 144.653 540.974 144.653C541.982 144.653 542.76 144.468 543.309 144.098C543.869 143.729 544.256 143.23 544.468 142.603C544.692 141.976 544.804 141.27 544.804 140.486V128.172C544.804 126.962 545.09 125.915 545.661 125.03C546.232 124.146 547.14 123.63 548.383 123.485C548.685 123.686 548.982 124 549.273 124.426C549.564 124.851 549.744 125.254 549.811 125.635ZM534.657 132.103C534.657 130.143 534.971 128.508 535.598 127.198C536.225 125.887 537.037 124.907 538.034 124.258C539.031 123.608 540.089 123.283 541.209 123.283C542.24 123.283 543.119 123.446 543.847 123.77C544.586 124.084 545.213 124.482 545.728 124.963C546.244 125.434 546.669 125.91 547.005 126.391L546.384 129.869C545.768 128.838 545.051 128.021 544.233 127.416C543.427 126.811 542.648 126.509 541.898 126.509C541.293 126.509 540.767 126.722 540.319 127.147C539.871 127.562 539.524 128.189 539.277 129.029C539.042 129.858 538.924 130.888 538.924 132.12C538.924 133.946 539.176 135.267 539.68 136.085C540.196 136.891 540.817 137.294 541.545 137.294C542.352 137.294 543.13 137.026 543.88 136.488C544.631 135.95 545.23 135.228 545.678 134.321L546.3 137.395C545.964 137.955 545.51 138.487 544.939 138.991C544.368 139.484 543.712 139.893 542.973 140.218C542.234 140.542 541.439 140.705 540.588 140.705C539.266 140.705 538.163 140.346 537.278 139.63C536.404 138.902 535.749 137.894 535.312 136.606C534.876 135.306 534.657 133.806 534.657 132.103Z" fill="black"/>
<path d="M555.38 123.552C556.209 123.552 556.808 123.821 557.178 124.358C557.558 124.896 557.749 125.63 557.749 126.559V140.402C557.155 140.503 556.466 140.554 555.682 140.554C554.898 140.554 554.193 140.503 553.566 140.402V123.787L553.801 123.552H555.38ZM567.291 136.589C567.291 137.205 567.342 137.787 567.442 138.336C567.543 138.874 567.717 139.344 567.963 139.747C567.65 140.005 567.263 140.218 566.804 140.386C566.345 140.554 565.858 140.638 565.342 140.638C564.514 140.638 563.931 140.414 563.595 139.966C563.27 139.518 563.108 138.874 563.108 138.034V130.02C563.108 129.046 562.979 128.334 562.722 127.886C562.475 127.427 561.994 127.198 561.277 127.198C560.806 127.198 560.28 127.315 559.698 127.55C559.126 127.786 558.578 128.138 558.051 128.609C557.525 129.068 557.082 129.645 556.724 130.339V126.509C557.486 125.68 558.376 124.963 559.395 124.358C560.426 123.742 561.54 123.434 562.738 123.434C563.78 123.434 564.637 123.686 565.309 124.19C565.981 124.683 566.479 125.361 566.804 126.223C567.129 127.074 567.291 128.043 567.291 129.13V136.589Z" fill="black"/>
<path d="M596.914 132.17C596.914 134.052 596.561 135.637 595.855 136.925C595.161 138.213 594.159 139.193 592.848 139.865C591.538 140.526 589.981 140.856 588.178 140.856C586.375 140.856 584.823 140.526 583.524 139.865C582.225 139.193 581.223 138.213 580.517 136.925C579.823 135.637 579.475 134.052 579.475 132.17V117.504L579.677 117.269H581.29C582.141 117.269 582.763 117.487 583.155 117.924C583.558 118.361 583.759 119.055 583.759 120.007V132.204C583.759 133.918 584.118 135.217 584.835 136.102C585.563 136.986 586.683 137.429 588.195 137.429C589.707 137.429 590.821 136.986 591.538 136.102C592.255 135.217 592.613 133.918 592.613 132.204V117.454C592.96 117.386 593.319 117.347 593.688 117.336C594.069 117.314 594.411 117.302 594.713 117.302C595.004 117.302 595.357 117.314 595.771 117.336C596.197 117.347 596.578 117.386 596.914 117.454V132.17Z" fill="black"/>
<path d="M603.244 123.552C604.129 123.552 604.801 123.854 605.26 124.459C605.719 125.064 605.949 125.898 605.949 126.962V145.056C605.949 145.986 605.781 146.646 605.445 147.038C605.12 147.442 604.526 147.643 603.664 147.643H602.068L601.833 147.425V123.787L602.068 123.552H603.244ZM616.062 131.868C616.062 133.839 615.754 135.48 615.138 136.79C614.522 138.09 613.71 139.07 612.702 139.73C611.706 140.38 610.636 140.705 609.494 140.705C608.385 140.705 607.382 140.475 606.486 140.016C605.59 139.557 604.756 139.07 603.983 138.554L604.571 135.413C605.21 135.928 605.898 136.404 606.638 136.841C607.388 137.266 608.127 137.479 608.855 137.479C609.438 137.479 609.947 137.266 610.384 136.841C610.832 136.415 611.179 135.788 611.426 134.959C611.672 134.119 611.795 133.083 611.795 131.851C611.795 130.63 611.672 129.645 611.426 128.894C611.19 128.133 610.871 127.578 610.468 127.231C610.076 126.873 609.639 126.694 609.158 126.694C608.676 126.694 608.155 126.828 607.595 127.097C607.035 127.366 606.503 127.814 605.999 128.441C605.506 129.068 605.114 129.925 604.823 131.011L603.933 128.273C604.101 127.455 604.476 126.666 605.058 125.904C605.641 125.142 606.369 124.515 607.242 124.022C608.127 123.53 609.107 123.283 610.182 123.283C611.493 123.283 612.585 123.647 613.458 124.375C614.332 125.103 614.982 126.111 615.407 127.399C615.844 128.687 616.062 130.177 616.062 131.868Z" fill="black"/>
</g>
<defs>
<filter id="filter0_ddddii_2_230" x="0" y="0" width="493.667" height="279" filterUnits="userSpaceOnUse" color-interpolation-filters="sRGB">
<feFlood flood-opacity="0" result="BackgroundImageFix"/>
<feColorMatrix in="SourceAlpha" type="matrix" values="0 0 0 0 0 0 0 0 0 0 0 0 0 0 0 0 0 0 127 0" result="hardAlpha"/>
<feOffset dx="30" dy="30"/>
<feGaussianBlur stdDeviation="37.5"/>
<feColorMatrix type="matrix" values="0 0 0 0 0.796078 0 0 0 0 0.796078 0 0 0 0 0.796078 0 0 0 0.45 0"/>
<feBlend mode="normal" in2="BackgroundImageFix" result="effect1_dropShadow_2_230"/>
<feColorMatrix in="SourceAlpha" type="matrix" values="0 0 0 0 0 0 0 0 0 0 0 0 0 0 0 0 0 0 127 0" result="hardAlpha"/>
<feOffset dx="-30" dy="-30"/>
<feGaussianBlur stdDeviation="30"/>
<feColorMatrix type="matrix" values="0 0 0 0 1 0 0 0 0 1 0 0 0 0 1 0 0 0 0.9 0"/>
<feBlend mode="normal" in2="effect1_dropShadow_2_230" result="effect2_dropShadow_2_230"/>
<feColorMatrix in="SourceAlpha" type="matrix" values="0 0 0 0 0 0 0 0 0 0 0 0 0 0 0 0 0 0 127 0" result="hardAlpha"/>
<feOffset dx="30" dy="-30"/>
<feGaussianBlur stdDeviation="30"/>
<feColorMatrix type="matrix" values="0 0 0 0 0.796078 0 0 0 0 0.796078 0 0 0 0 0.796078 0 0 0 0.2 0"/>
<feBlend mode="normal" in2="effect2_dropShadow_2_230" result="effect3_dropShadow_2_230"/>
<feColorMatrix in="SourceAlpha" type="matrix" values="0 0 0 0 0 0 0 0 0 0 0 0 0 0 0 0 0 0 127 0" result="hardAlpha"/>
<feOffset dx="-30" dy="30"/>
<feGaussianBlur stdDeviation="30"/>
<feColorMatrix type="matrix" values="0 0 0 0 0.796078 0 0 0 0 0.796078 0 0 0 0 0.796078 0 0 0 0.2 0"/>
<feBlend mode="normal" in2="effect3_dropShadow_2_230" result="effect4_dropShadow_2_230"/>
<feBlend mode="normal" in="SourceGraphic" in2="effect4_dropShadow_2_230" result="shape"/>
<feColorMatrix in="SourceAlpha" type="matrix" values="0 0 0 0 0 0 0 0 0 0 0 0 0 0 0 0 0 0 127 0" result="hardAlpha"/>
<feOffset dx="-1" dy="-1"/>
<feGaussianBlur stdDeviation="1"/>
<feComposite in2="hardAlpha" operator="arithmetic" k2="-1" k3="1"/>
<feColorMatrix type="matrix" values="0 0 0 0 0.796078 0 0 0 0 0.796078 0 0 0 0 0.796078 0 0 0 0.5 0"/>
<feBlend mode="normal" in2="shape" result="effect5_innerShadow_2_230"/>
<feColorMatrix in="SourceAlpha" type="matrix" values="0 0 0 0 0 0 0 0 0 0 0 0 0 0 0 0 0 0 127 0" result="hardAlpha"/>
<feOffset dx="1" dy="1"/>
<feGaussianBlur stdDeviation="1"/>
<feComposite in2="hardAlpha" operator="arithmetic" k2="-1" k3="1"/>
<feColorMatrix type="matrix" values="0 0 0 0 1 0 0 0 0 1 0 0 0 0 1 0 0 0 0.3 0"/>
<feBlend mode="normal" in2="effect5_innerShadow_2_230" result="effect6_innerShadow_2_230"/>
</filter>
<filter id="filter1_d_2_230" x="147" y="107" width="186.925" height="51.5872" filterUnits="userSpaceOnUse" color-interpolation-filters="sRGB">
<feFlood flood-opacity="0" result="BackgroundImageFix"/>
<feColorMatrix in="SourceAlpha" type="matrix" values="0 0 0 0 0 0 0 0 0 0 0 0 0 0 0 0 0 0 127 0" result="hardAlpha"/>
<feOffset dx="1" dy="1"/>
<feGaussianBlur stdDeviation="7"/>
<feComposite in2="hardAlpha" operator="out"/>
<feColorMatrix type="matrix" values="0 0 0 0 0 0 0 0 0 0 0 0 0 0 0 0 0 0 0.1 0"/>
<feBlend mode="normal" in2="BackgroundImageFix" result="effect1_dropShadow_2_230"/>
<feBlend mode="normal" in="SourceGraphic" in2="effect1_dropShadow_2_230" result="shape"/>
</filter>
<filter id="filter2_ddddii_2_230" x="322" y="0" width="493.667" height="279" filterUnits="userSpaceOnUse" color-interpolation-filters="sRGB">
<feFlood flood-opacity="0" result="BackgroundImageFix"/>
<feColorMatrix in="SourceAlpha" type="matrix" values="0 0 0 0 0 0 0 0 0 0 0 0 0 0 0 0 0 0 127 0" result="hardAlpha"/>
<feOffset dx="30" dy="30"/>
<feGaussianBlur stdDeviation="37.5"/>
<feColorMatrix type="matrix" values="0 0 0 0 0.796078 0 0 0 0 0.796078 0 0 0 0 0.796078 0 0 0 0.45 0"/>
<feBlend mode="normal" in2="BackgroundImageFix" result="effect1_dropShadow_2_230"/>
<feColorMatrix in="SourceAlpha" type="matrix" values="0 0 0 0 0 0 0 0 0 0 0 0 0 0 0 0 0 0 127 0" result="hardAlpha"/>
<feOffset dx="-30" dy="-30"/>
<feGaussianBlur stdDeviation="30"/>
<feColorMatrix type="matrix" values="0 0 0 0 1 0 0 0 0 1 0 0 0 0 1 0 0 0 0.9 0"/>
<feBlend mode="normal" in2="effect1_dropShadow_2_230" result="effect2_dropShadow_2_230"/>
<feColorMatrix in="SourceAlpha" type="matrix" values="0 0 0 0 0 0 0 0 0 0 0 0 0 0 0 0 0 0 127 0" result="hardAlpha"/>
<feOffset dx="30" dy="-30"/>
<feGaussianBlur stdDeviation="30"/>
<feColorMatrix type="matrix" values="0 0 0 0 0.796078 0 0 0 0 0.796078 0 0 0 0 0.796078 0 0 0 0.2 0"/>
<feBlend mode="normal" in2="effect2_dropShadow_2_230" result="effect3_dropShadow_2_230"/>
<feColorMatrix in="SourceAlpha" type="matrix" values="0 0 0 0 0 0 0 0 0 0 0 0 0 0 0 0 0 0 127 0" result="hardAlpha"/>
<feOffset dx="-30" dy="30"/>
<feGaussianBlur stdDeviation="30"/>
<feColorMatrix type="matrix" values="0 0 0 0 0.796078 0 0 0 0 0.796078 0 0 0 0 0.796078 0 0 0 0.2 0"/>
<feBlend mode="normal" in2="effect3_dropShadow_2_230" result="effect4_dropShadow_2_230"/>
<feBlend mode="normal" in="SourceGraphic" in2="effect4_dropShadow_2_230" result="shape"/>
<feColorMatrix in="SourceAlpha" type="matrix" values="0 0 0 0 0 0 0 0 0 0 0 0 0 0 0 0 0 0 127 0" result="hardAlpha"/>
<feOffset dx="-1" dy="-1"/>
<feGaussianBlur stdDeviation="1"/>
<feComposite in2="hardAlpha" operator="arithmetic" k2="-1" k3="1"/>
<feColorMatrix type="matrix" values="0 0 0 0 0.796078 0 0 0 0 0.796078 0 0 0 0 0.796078 0 0 0 0.5 0"/>
<feBlend mode="normal" in2="shape" result="effect5_innerShadow_2_230"/>
<feColorMatrix in="SourceAlpha" type="matrix" values="0 0 0 0 0 0 0 0 0 0 0 0 0 0 0 0 0 0 127 0" result="hardAlpha"/>
<feOffset dx="1" dy="1"/>
<feGaussianBlur stdDeviation="1"/>
<feComposite in2="hardAlpha" operator="arithmetic" k2="-1" k3="1"/>
<feColorMatrix type="matrix" values="0 0 0 0 1 0 0 0 0 1 0 0 0 0 1 0 0 0 0.3 0"/>
<feBlend mode="normal" in2="effect5_innerShadow_2_230" result="effect6_innerShadow_2_230"/>
</filter>
<filter id="filter3_d_2_230" x="493" y="104" width="138.062" height="58.8112" filterUnits="userSpaceOnUse" color-interpolation-filters="sRGB">
<feFlood flood-opacity="0" result="BackgroundImageFix"/>
<feColorMatrix in="SourceAlpha" type="matrix" values="0 0 0 0 0 0 0 0 0 0 0 0 0 0 0 0 0 0 127 0" result="hardAlpha"/>
<feOffset dx="1" dy="1"/>
<feGaussianBlur stdDeviation="7"/>
<feComposite in2="hardAlpha" operator="out"/>
<feColorMatrix type="matrix" values="0 0 0 0 0 0 0 0 0 0 0 0 0 0 0 0 0 0 0.1 0"/>
<feBlend mode="normal" in2="BackgroundImageFix" result="effect1_dropShadow_2_230"/>
<feBlend mode="normal" in="SourceGraphic" in2="effect1_dropShadow_2_230" result="shape"/>
</filter>
<linearGradient id="paint0_linear_2_230" x1="90" y1="90" x2="133.786" y2="245.685" gradientUnits="userSpaceOnUse">
<stop stop-color="white"/>
<stop offset="1" stop-color="#EAEAEA"/>
</linearGradient>
<linearGradient id="paint1_linear_2_230" x1="412" y1="90" x2="455.786" y2="245.685" gradientUnits="userSpaceOnUse">
<stop stop-color="white"/>
<stop offset="1" stop-color="#EAEAEA"/>
</linearGradient>
</defs>
</svg>
