<svg width="549" height="166" viewBox="0 0 549 166" fill="none" xmlns="http://www.w3.org/2000/svg">
<path d="M0 6.60893C1.24789 6.07595 2.6384 5.6318 4.17152 5.27649C5.70465 4.92117 7.20212 4.74351 8.66393 4.74351C11.5163 4.74351 13.5842 5.36532 14.8677 6.60893C16.1869 7.81702 17.1139 10.1621 17.6488 13.6442L22.4621 42.3718C22.8542 44.6103 23.2464 47.0442 23.6386 49.6735C24.0308 52.3029 24.3874 54.8434 24.7083 57.2951C25.0648 59.7113 25.3322 61.7722 25.5105 63.4777C25.5818 64.1528 25.6709 64.5614 25.7779 64.7035C25.9205 64.8101 26.1701 64.8634 26.5266 64.8634L35.7788 7.08861C37.3833 6.80435 39.1303 6.60893 41.02 6.50234C42.9097 6.36021 44.6389 6.28914 46.2077 6.28914C47.8834 6.28914 49.6483 6.36021 51.5023 6.50234C53.3919 6.60893 55.1033 6.80435 56.6365 7.08861L65.1934 63.4777C65.3004 64.1528 65.4252 64.5614 65.5678 64.7035C65.7461 64.8101 65.9957 64.8634 66.3165 64.8634C66.5305 62.8736 66.8157 60.5641 67.1722 57.9347C67.5288 55.3054 67.921 52.6049 68.3488 49.8334C68.7767 47.062 69.1867 44.5214 69.5789 42.2119L75.9431 5.64957C77.1554 5.40085 78.4033 5.24095 79.6868 5.16989C80.9704 5.09882 82.1648 5.06329 83.27 5.06329C84.5179 5.06329 85.8371 5.15212 87.2276 5.32978C88.6182 5.50744 89.8661 5.77393 90.9713 6.12925L91.7735 7.08861L77.4406 78.3478C75.5866 78.561 73.3226 78.7208 70.6485 78.8274C68.0101 78.9696 65.6213 79.0406 63.482 79.0406C61.0576 79.0406 58.9183 78.632 57.0643 77.8148C55.2103 76.9976 54.0337 74.9545 53.5346 71.6855L49.6839 47.8614C49.0422 43.7753 48.4182 39.4759 47.8121 34.9634C47.2416 30.4508 46.7781 26.4357 46.4216 22.9181H45.6194C45.1915 26.4357 44.6567 30.4508 44.0149 34.9634C43.3732 39.4404 42.6957 43.7397 41.9826 47.8614L36.8485 78.3478C34.8875 78.561 32.6591 78.7208 30.1633 78.8274C27.7032 78.9696 25.3679 79.0406 23.1573 79.0406C20.5546 79.0406 18.3262 78.632 16.4722 77.8148C14.6538 76.9976 13.4237 74.9367 12.782 71.6322L0 6.60893Z" fill="#FF2480"/>
<path d="M116.266 78.4544C113.984 78.8452 111.364 79.0406 108.404 79.0406C105.802 79.0406 103.235 78.8452 100.703 78.4544V0.746172L101.452 0H107.656C110.829 0 113.057 0.728402 114.341 2.18521C115.624 3.60649 116.266 6.09372 116.266 9.64691V78.4544ZM145.788 65.3964C145.788 67.4572 145.984 69.3937 146.376 71.2059C146.768 72.9825 147.41 74.5459 148.301 75.8961C147.16 76.8554 145.716 77.6549 143.969 78.2945C142.258 78.934 140.404 79.2538 138.407 79.2538C135.199 79.2538 132.97 78.4188 131.722 76.7488C130.474 75.0433 129.85 72.6094 129.85 69.447V46.1559C129.85 43.5621 129.512 41.6611 128.834 40.453C128.157 39.2449 126.873 38.6409 124.984 38.6409C123.807 38.6409 122.434 38.9607 120.866 39.6003C119.332 40.2398 117.817 41.2525 116.32 42.6382C114.858 43.9885 113.574 45.765 112.469 47.968V33.9507C114.929 31.4635 117.675 29.2427 120.705 27.2885C123.736 25.3342 127.141 24.3571 130.92 24.3571C134.2 24.3571 136.946 25.1743 139.156 26.8088C141.367 28.4077 143.025 30.6285 144.13 33.471C145.235 36.278 145.788 39.5114 145.788 43.1712V65.3964Z" fill="#FF2480"/>
<path d="M155.571 63.9041C155.571 59.6758 156.552 56.2114 158.513 53.511C160.51 50.775 163.112 48.7675 166.321 47.4883C169.53 46.1737 172.971 45.5163 176.643 45.5163C178.319 45.5163 180.387 45.5696 182.847 45.6762C185.307 45.7473 187.517 45.9782 189.478 46.3691V56.4957C187.874 56.1404 185.984 55.9272 183.809 55.8561C181.635 55.785 179.781 55.7495 178.247 55.7495C175.752 55.7495 173.933 56.4068 172.792 57.7215C171.651 59.0362 171.081 60.7417 171.081 62.8381C171.081 64.366 171.544 65.6451 172.471 66.6755C173.398 67.706 174.682 68.2212 176.322 68.2212C178.533 68.2212 180.797 67.4395 183.114 65.8761C185.432 64.3127 187.375 62.1275 188.944 59.3205L191.19 69.6069C189.799 71.2414 188.195 72.8581 186.377 74.457C184.594 76.0204 182.508 77.3351 180.119 78.4011C177.73 79.467 174.949 80 171.776 80C168.104 80 165.073 79.2005 162.684 77.6016C160.296 75.9671 158.513 73.924 157.336 71.4724C156.16 68.9851 155.571 66.4624 155.571 63.9041ZM203.544 71.1526C203.223 72.5738 202.563 74.1017 201.565 75.7362C200.603 77.3351 199.604 78.5254 198.57 79.3071C195.54 79.2005 193.044 78.4721 191.083 77.1219C189.158 75.7717 187.678 74.1372 186.644 72.2185C185.61 70.2643 184.95 68.3455 184.665 66.4624V43.5443C184.665 41.1281 184.059 39.3338 182.847 38.1612C181.67 36.9887 179.852 36.4024 177.392 36.4024C175.039 36.4024 172.489 36.7755 169.744 37.5217C167.034 38.2323 164.289 39.014 161.508 39.8668C160.367 38.5876 159.458 36.9176 158.78 34.8568C158.139 32.7959 157.729 30.7884 157.55 28.8341C159.903 27.8748 162.506 27.0398 165.358 26.3291C168.246 25.6185 171.117 25.0677 173.969 24.6769C176.821 24.286 179.406 24.0906 181.724 24.0906C184.897 24.0906 187.91 24.6769 190.762 25.8494C193.65 27.022 196.003 28.9407 197.822 31.6056C199.64 34.235 200.549 37.7704 200.549 42.2119V63.9041C200.549 65.5385 200.781 66.9598 201.244 68.1679C201.708 69.3404 202.474 70.3353 203.544 71.1526Z" fill="#FF2480"/>
<path d="M214.976 18.8674C214.976 15.3142 215.636 12.827 216.955 11.4057C218.274 9.98446 220.503 9.27382 223.64 9.27382H229.844L230.539 9.96669V61.8787C230.539 63.4421 230.896 64.668 231.609 65.5563C232.358 66.4091 233.57 66.8354 235.246 66.8354H241.45C242.27 69.2871 242.68 71.8099 242.68 74.4037C242.68 74.9722 242.662 75.5763 242.626 76.2159C242.59 76.8554 242.483 77.4417 242.305 77.9747C240.38 78.2234 238.169 78.4544 235.674 78.6676C233.178 78.8807 230.86 78.9873 228.721 78.9873C224.05 78.9873 220.592 77.8326 218.346 75.523C216.099 73.1779 214.976 69.5714 214.976 64.7035V18.8674ZM243.321 25.2099C243.785 27.0931 244.017 28.9585 244.017 30.8061C244.017 32.8314 243.785 34.7502 243.321 36.5623L223.694 36.2425L206.687 36.5623C206.223 34.7502 205.992 32.8314 205.992 30.8061C205.992 28.9585 206.223 27.0931 206.687 25.2099L224.122 25.5296L243.321 25.2099Z" fill="#FF2480"/>
<path d="M270.096 26.2758C271.665 25.6718 273.198 25.2099 274.696 24.8901C276.193 24.5703 277.637 24.4104 279.027 24.4104C281.523 24.4104 283.288 24.9967 284.322 26.1692C285.392 27.3062 286.158 28.9585 286.622 31.1259L290.098 49.034C290.811 52.4806 291.417 55.6784 291.916 58.6276C292.416 61.5412 292.772 63.9396 292.986 65.8228C293.093 66.4268 293.378 66.7288 293.842 66.7288L300.153 25.8494C301.4 25.5652 302.987 25.3698 304.912 25.2632C306.873 25.1566 308.353 25.1033 309.351 25.1033C310.421 25.1033 311.954 25.1566 313.951 25.2632C315.983 25.3698 317.605 25.5652 318.817 25.8494L325.235 65.8228C325.342 66.4268 325.627 66.7288 326.091 66.7288C326.483 64.2061 326.911 61.4524 327.374 58.4677C327.874 55.4475 328.462 52.3029 329.139 49.034L334.06 25.4231C334.951 25.1388 335.949 24.9611 337.054 24.8901C338.195 24.7835 339.247 24.7302 340.21 24.7302C341.315 24.7302 342.706 24.819 344.381 24.9967C346.093 25.1388 347.501 25.4941 348.606 26.0626L349.088 27.022L336.52 78.4544C334.915 78.7031 333.026 78.863 330.851 78.934C328.676 79.0051 326.661 79.0406 324.807 79.0406C321.741 79.0406 319.406 78.6143 317.801 77.7615C316.197 76.9087 315.145 74.9012 314.646 71.7388L312.721 59.8001C312.435 58.0235 312.114 56.0338 311.758 53.8308C311.437 51.5923 311.098 49.2472 310.742 46.7955C310.421 44.3438 310.1 41.8921 309.779 39.4404H309.137C308.852 41.8565 308.531 44.2905 308.175 46.7422C307.818 49.1583 307.462 51.4679 307.105 53.6709C306.749 55.8739 306.428 57.8637 306.142 59.6402L302.987 78.4544C301.311 78.6675 299.35 78.8097 297.104 78.8807C294.858 78.9873 292.79 79.0406 290.9 79.0406C287.941 79.0406 285.659 78.561 284.055 77.6016C282.45 76.6422 281.292 74.6169 280.578 71.5257L270.096 26.2758Z" fill="#FF2480"/>
<path d="M362.527 57.0286V46.0493H383.545V44.8235C383.545 43.0469 383.295 41.4302 382.796 39.9734C382.297 38.5165 381.494 37.344 380.389 36.4557C379.284 35.5674 377.822 35.1233 376.004 35.1233C373.258 35.1233 371.297 36.2603 370.121 38.5343C368.98 40.7728 368.409 44.1661 368.409 48.7142V53.511C368.409 56.0693 368.641 58.4322 369.105 60.5996C369.568 62.767 370.513 64.5259 371.939 65.8761C373.401 67.1908 375.594 67.8481 378.517 67.8481C380.942 67.8481 383.331 67.5283 385.684 66.8887C388.073 66.2136 390.355 65.4142 392.529 64.4903C393.706 65.6629 394.651 67.1375 395.364 68.9141C396.077 70.6907 396.558 72.3606 396.808 73.924C394.134 75.8783 390.925 77.3884 387.181 78.4544C383.473 79.4848 379.73 80 375.95 80C371.315 80 367.465 79.2361 364.398 77.7082C361.368 76.1448 358.961 74.0484 357.178 71.4191C355.431 68.7897 354.183 65.8228 353.435 62.5183C352.722 59.2139 352.365 55.785 352.365 52.2318C352.365 46.8665 353.185 42.052 354.825 37.7881C356.465 33.4888 359.015 30.0777 362.473 27.555C365.967 25.0322 370.495 23.7708 376.057 23.7708C380.764 23.7708 384.757 24.7657 388.037 26.7555C391.353 28.7453 393.884 31.4457 395.631 34.8568C397.378 38.2678 398.252 42.123 398.252 46.4224C398.252 48.6964 398.145 50.5974 397.931 52.1252C397.753 53.6531 397.414 55.2876 396.915 57.0286H362.527Z" fill="#FF2480"/>
<path d="M492.517 41.9987C492.517 46.1559 492.232 50.1532 491.662 53.9907C491.091 57.8281 489.95 61.4168 488.239 64.7568C486.563 68.0968 484.032 71.0815 480.645 73.7109C479.004 74.99 477.026 76.0204 474.708 76.8021C472.426 77.5838 470.091 78.1523 467.702 78.5077C465.313 78.863 463.121 79.0406 461.124 79.0406C458.093 79.0406 455.134 79.0229 452.246 78.9873C449.394 78.9518 446.524 78.8985 443.636 78.8274C440.783 78.7564 437.806 78.6853 434.704 78.6143L433.956 77.9214V6.18255L434.704 5.48968C437.77 5.38308 440.73 5.29425 443.582 5.22319C446.47 5.15212 449.358 5.11659 452.246 5.11659C455.134 5.08106 458.093 5.06329 461.124 5.06329C463.121 5.06329 465.313 5.24095 467.702 5.59627C470.127 5.95159 472.48 6.5201 474.762 7.3018C477.079 8.0835 479.04 9.11393 480.645 10.3931C483.996 13.0224 486.51 16.0071 488.185 19.3471C489.897 22.6871 491.038 26.2758 491.608 30.1133C492.214 33.9152 492.517 37.877 492.517 41.9987ZM475.778 41.9987C475.778 39.2272 475.599 36.4202 475.243 33.5776C474.922 30.7351 474.262 28.1235 473.264 25.7428C472.266 23.3267 470.786 21.3902 468.825 19.9334C466.9 18.4766 464.333 17.7482 461.124 17.7482C459.27 17.7482 457.487 17.7482 455.776 17.7482C454.064 17.7126 452.21 17.6771 450.214 17.6416V66.4091C452.21 66.3735 454.064 66.3558 455.776 66.3558C457.487 66.3558 459.27 66.3558 461.124 66.3558C464.333 66.3558 466.9 65.6274 468.825 64.1706C470.786 62.6782 472.266 60.7417 473.264 58.3611C474.262 55.9449 474.922 53.3156 475.243 50.473C475.599 47.5949 475.778 44.7702 475.778 41.9987Z" fill="#FF2480"/>
<path d="M549 51.9121C549 57.5616 548.073 62.5006 546.219 66.7288C544.365 70.9216 541.62 74.1905 537.983 76.5356C534.346 78.8452 529.854 80 524.506 80C519.158 80 514.665 78.8274 511.028 76.4823C507.392 74.1372 504.646 70.8683 502.792 66.6755C500.974 62.4473 500.065 57.5261 500.065 51.9121C500.065 46.227 500.992 41.288 502.846 37.0953C504.7 32.867 507.445 29.598 511.082 27.2885C514.719 24.9434 519.193 23.7708 524.506 23.7708C529.889 23.7708 534.4 24.9434 538.036 27.2885C541.673 29.6336 544.401 32.9203 546.219 37.1486C548.073 41.3413 549 46.2625 549 51.9121ZM516.43 51.9121C516.43 54.8967 516.626 57.6149 517.018 60.0666C517.411 62.5183 518.177 64.4726 519.318 65.9294C520.495 67.3862 522.242 68.1146 524.559 68.1146C526.877 68.1146 528.606 67.3862 529.747 65.9294C530.888 64.4726 531.654 62.5183 532.047 60.0666C532.439 57.6149 532.635 54.8967 532.635 51.9121C532.635 48.9274 532.439 46.2092 532.047 43.7575C531.654 41.2703 530.888 39.2982 529.747 37.8414C528.606 36.3846 526.877 35.6562 524.559 35.6562C522.242 35.6562 520.495 36.3846 519.318 37.8414C518.177 39.2982 517.411 41.2703 517.018 43.7575C516.626 46.2092 516.43 48.9274 516.43 51.9121Z" fill="#FF2480"/>
<path d="M56.145 124.88L51.445 136.32C51.3917 136.48 51.2983 136.607 51.165 136.7C51.0317 136.793 50.8917 136.84 50.745 136.84C50.4917 136.84 50.305 136.773 50.185 136.64C50.065 136.507 50.005 136.347 50.005 136.16C49.9917 136.067 50.005 135.967 50.045 135.86L55.225 123.26C55.2917 123.073 55.3917 122.94 55.525 122.86C55.6717 122.767 55.8317 122.727 56.005 122.74C56.1783 122.74 56.3317 122.787 56.465 122.88C56.6117 122.973 56.7117 123.1 56.765 123.26L61.925 135.74C61.965 135.847 61.985 135.953 61.985 136.06C61.985 136.3 61.905 136.493 61.745 136.64C61.585 136.773 61.405 136.84 61.205 136.84C61.045 136.84 60.8983 136.793 60.765 136.7C60.6317 136.607 60.5317 136.473 60.465 136.3L55.705 124.86L56.145 124.88ZM52.445 133.06L53.125 131.5H59.065L59.365 133.06H52.445Z" fill="black"/>
<path d="M63.3984 126.52H68.0984C68.3118 126.52 68.4851 126.593 68.6184 126.74C68.7651 126.887 68.8384 127.06 68.8384 127.26C68.8384 127.473 68.7651 127.653 68.6184 127.8C68.4851 127.933 68.3118 128 68.0984 128H63.3984C63.1984 128 63.0251 127.927 62.8784 127.78C62.7318 127.633 62.6584 127.453 62.6584 127.24C62.6584 127.04 62.7318 126.873 62.8784 126.74C63.0251 126.593 63.1984 126.52 63.3984 126.52ZM65.4984 123.8C65.7251 123.8 65.9118 123.88 66.0584 124.04C66.2051 124.187 66.2784 124.373 66.2784 124.6V134.26C66.2784 134.58 66.3251 134.82 66.4184 134.98C66.5118 135.14 66.6318 135.253 66.7784 135.32C66.9384 135.373 67.0918 135.4 67.2384 135.4C67.3718 135.4 67.4851 135.38 67.5784 135.34C67.6851 135.287 67.8051 135.26 67.9384 135.26C68.0718 135.26 68.1918 135.327 68.2984 135.46C68.4184 135.58 68.4784 135.74 68.4784 135.94C68.4784 136.18 68.3384 136.387 68.0584 136.56C67.7784 136.72 67.4651 136.8 67.1184 136.8C66.9318 136.8 66.6984 136.787 66.4184 136.76C66.1518 136.733 65.8851 136.647 65.6184 136.5C65.3518 136.353 65.1251 136.113 64.9384 135.78C64.7651 135.433 64.6784 134.953 64.6784 134.34V124.6C64.6784 124.373 64.7584 124.187 64.9184 124.04C65.0784 123.88 65.2718 123.8 65.4984 123.8Z" fill="black"/>
<path d="M82.3319 122.8C83.0652 122.8 83.7252 122.98 84.3119 123.34C84.8985 123.7 85.3585 124.193 85.6919 124.82C86.0385 125.447 86.2119 126.16 86.2119 126.96C86.2119 127.747 86.0385 128.46 85.6919 129.1C85.3585 129.74 84.8985 130.247 84.3119 130.62C83.7252 130.993 83.0652 131.18 82.3319 131.18H78.2719L78.4119 130.94V135.98C78.4119 136.207 78.3385 136.4 78.1919 136.56C78.0452 136.72 77.8585 136.8 77.6319 136.8C77.3919 136.8 77.1985 136.72 77.0519 136.56C76.9185 136.4 76.8519 136.207 76.8519 135.98V123.6C76.8519 123.373 76.9252 123.187 77.0719 123.04C77.2319 122.88 77.4252 122.8 77.6519 122.8H82.3319ZM82.3319 129.64C82.7719 129.64 83.1585 129.52 83.4919 129.28C83.8252 129.04 84.0919 128.713 84.2919 128.3C84.4919 127.887 84.5919 127.44 84.5919 126.96C84.5919 126.453 84.4919 126.007 84.2919 125.62C84.0919 125.233 83.8252 124.927 83.4919 124.7C83.1585 124.46 82.7719 124.34 82.3319 124.34H78.2719L78.4119 124.12V129.84L78.2719 129.64H82.3319Z" fill="black"/>
<path d="M89.3445 136.8C89.1179 136.8 88.9245 136.72 88.7645 136.56C88.6179 136.4 88.5445 136.207 88.5445 135.98V127.26C88.5445 127.033 88.6179 126.847 88.7645 126.7C88.9245 126.54 89.1179 126.46 89.3445 126.46C89.5845 126.46 89.7779 126.54 89.9245 126.7C90.0712 126.847 90.1445 127.033 90.1445 127.26V129.9L89.9045 129.48C89.9845 129.067 90.1245 128.667 90.3245 128.28C90.5379 127.88 90.8045 127.527 91.1245 127.22C91.4445 126.9 91.8112 126.653 92.2245 126.48C92.6379 126.293 93.0912 126.2 93.5845 126.2C93.8779 126.2 94.1445 126.273 94.3845 126.42C94.6379 126.553 94.7645 126.747 94.7645 127C94.7645 127.28 94.6912 127.487 94.5445 127.62C94.3979 127.753 94.2312 127.82 94.0445 127.82C93.8712 127.82 93.7045 127.787 93.5445 127.72C93.3845 127.64 93.1845 127.6 92.9445 127.6C92.6112 127.6 92.2779 127.693 91.9445 127.88C91.6245 128.053 91.3245 128.307 91.0445 128.64C90.7779 128.973 90.5579 129.353 90.3845 129.78C90.2245 130.193 90.1445 130.64 90.1445 131.12V135.98C90.1445 136.207 90.0645 136.4 89.9045 136.56C89.7579 136.72 89.5712 136.8 89.3445 136.8Z" fill="black"/>
<path d="M105.943 131.6C105.943 132.64 105.709 133.567 105.243 134.38C104.789 135.193 104.169 135.833 103.383 136.3C102.609 136.767 101.736 137 100.763 137C99.7893 137 98.9093 136.767 98.1227 136.3C97.336 135.833 96.7093 135.193 96.2427 134.38C95.7893 133.567 95.5627 132.64 95.5627 131.6C95.5627 130.56 95.7893 129.633 96.2427 128.82C96.7093 128.007 97.336 127.367 98.1227 126.9C98.9093 126.433 99.7893 126.2 100.763 126.2C101.736 126.2 102.609 126.433 103.383 126.9C104.169 127.367 104.789 128.007 105.243 128.82C105.709 129.633 105.943 130.56 105.943 131.6ZM104.343 131.6C104.343 130.827 104.183 130.147 103.863 129.56C103.556 128.973 103.129 128.513 102.583 128.18C102.049 127.847 101.443 127.68 100.763 127.68C100.083 127.68 99.4693 127.847 98.9227 128.18C98.3893 128.513 97.9627 128.973 97.6427 129.56C97.3227 130.147 97.1627 130.827 97.1627 131.6C97.1627 132.36 97.3227 133.033 97.6427 133.62C97.9627 134.207 98.3893 134.673 98.9227 135.02C99.4693 135.353 100.083 135.52 100.763 135.52C101.443 135.52 102.049 135.353 102.583 135.02C103.129 134.673 103.556 134.207 103.863 133.62C104.183 133.033 104.343 132.36 104.343 131.6Z" fill="black"/>
<path d="M116.869 122C117.096 122 117.283 122.08 117.429 122.24C117.589 122.387 117.669 122.573 117.669 122.8V135.98C117.669 136.207 117.589 136.4 117.429 136.56C117.283 136.72 117.096 136.8 116.869 136.8C116.629 136.8 116.436 136.72 116.289 136.56C116.143 136.4 116.069 136.207 116.069 135.98V134.08L116.449 133.94C116.449 134.26 116.349 134.6 116.149 134.96C115.949 135.307 115.676 135.633 115.329 135.94C114.983 136.247 114.569 136.5 114.089 136.7C113.623 136.9 113.116 137 112.569 137C111.676 137 110.863 136.767 110.129 136.3C109.409 135.833 108.836 135.193 108.409 134.38C107.996 133.567 107.789 132.64 107.789 131.6C107.789 130.547 107.996 129.613 108.409 128.8C108.836 127.987 109.409 127.353 110.129 126.9C110.849 126.433 111.649 126.2 112.529 126.2C113.089 126.2 113.616 126.293 114.109 126.48C114.603 126.667 115.029 126.92 115.389 127.24C115.763 127.56 116.056 127.913 116.269 128.3C116.483 128.687 116.589 129.073 116.589 129.46L116.069 129.34V122.8C116.069 122.573 116.143 122.387 116.289 122.24C116.436 122.08 116.629 122 116.869 122ZM112.749 135.52C113.416 135.52 114.003 135.353 114.509 135.02C115.029 134.673 115.429 134.207 115.709 133.62C116.003 133.02 116.149 132.347 116.149 131.6C116.149 130.84 116.003 130.167 115.709 129.58C115.429 128.993 115.029 128.533 114.509 128.2C114.003 127.853 113.416 127.68 112.749 127.68C112.096 127.68 111.509 127.853 110.989 128.2C110.483 128.533 110.083 128.993 109.789 129.58C109.496 130.167 109.349 130.84 109.349 131.6C109.349 132.333 109.496 133 109.789 133.6C110.083 134.187 110.483 134.653 110.989 135C111.509 135.347 112.096 135.52 112.749 135.52Z" fill="black"/>
<path d="M125.234 126.2C125.914 126.2 126.528 126.273 127.074 126.42C127.621 126.567 128.054 126.767 128.374 127.02C128.694 127.273 128.854 127.56 128.854 127.88C128.854 128.053 128.794 128.22 128.674 128.38C128.554 128.54 128.394 128.62 128.194 128.62C128.008 128.62 127.854 128.587 127.734 128.52C127.628 128.453 127.521 128.367 127.414 128.26C127.321 128.153 127.188 128.06 127.014 127.98C126.854 127.887 126.621 127.813 126.314 127.76C126.008 127.707 125.701 127.68 125.394 127.68C124.661 127.68 124.014 127.853 123.454 128.2C122.908 128.547 122.474 129.013 122.154 129.6C121.834 130.187 121.674 130.853 121.674 131.6C121.674 132.347 121.828 133.013 122.134 133.6C122.441 134.187 122.868 134.653 123.414 135C123.961 135.347 124.594 135.52 125.314 135.52C125.781 135.52 126.154 135.48 126.434 135.4C126.714 135.32 126.948 135.227 127.134 135.12C127.374 134.987 127.554 134.853 127.674 134.72C127.808 134.587 127.981 134.52 128.194 134.52C128.421 134.52 128.594 134.593 128.714 134.74C128.848 134.887 128.914 135.067 128.914 135.28C128.914 135.52 128.748 135.773 128.414 136.04C128.081 136.307 127.628 136.533 127.054 136.72C126.494 136.907 125.854 137 125.134 137C124.121 137 123.234 136.767 122.474 136.3C121.714 135.82 121.121 135.173 120.694 134.36C120.281 133.533 120.074 132.613 120.074 131.6C120.074 130.587 120.288 129.673 120.714 128.86C121.154 128.047 121.761 127.4 122.534 126.92C123.308 126.44 124.208 126.2 125.234 126.2Z" fill="black"/>
<path d="M139.525 126.36C139.752 126.36 139.939 126.44 140.085 126.6C140.245 126.747 140.325 126.933 140.325 127.16V135.98C140.325 136.207 140.245 136.4 140.085 136.56C139.939 136.72 139.752 136.8 139.525 136.8C139.285 136.8 139.092 136.72 138.945 136.56C138.799 136.4 138.725 136.207 138.725 135.98V134.08L139.105 134.04C139.105 134.333 139.005 134.653 138.805 135C138.605 135.347 138.332 135.673 137.985 135.98C137.639 136.273 137.225 136.52 136.745 136.72C136.279 136.907 135.772 137 135.225 137C134.319 137 133.505 136.767 132.785 136.3C132.065 135.82 131.492 135.173 131.065 134.36C130.652 133.547 130.445 132.62 130.445 131.58C130.445 130.527 130.652 129.6 131.065 128.8C131.492 127.987 132.065 127.353 132.785 126.9C133.505 126.433 134.305 126.2 135.185 126.2C135.759 126.2 136.292 126.293 136.785 126.48C137.279 126.667 137.705 126.92 138.065 127.24C138.439 127.56 138.725 127.913 138.925 128.3C139.139 128.687 139.245 129.073 139.245 129.46L138.725 129.34V127.16C138.725 126.933 138.799 126.747 138.945 126.6C139.092 126.44 139.285 126.36 139.525 126.36ZM135.405 135.52C136.072 135.52 136.659 135.347 137.165 135C137.685 134.653 138.085 134.187 138.365 133.6C138.659 133 138.805 132.327 138.805 131.58C138.805 130.847 138.659 130.187 138.365 129.6C138.085 129 137.685 128.533 137.165 128.2C136.659 127.853 136.072 127.68 135.405 127.68C134.752 127.68 134.165 127.847 133.645 128.18C133.139 128.513 132.739 128.973 132.445 129.56C132.152 130.147 132.005 130.82 132.005 131.58C132.005 132.327 132.145 133 132.425 133.6C132.719 134.187 133.119 134.653 133.625 135C134.145 135.347 134.739 135.52 135.405 135.52Z" fill="black"/>
<path d="M142.711 135.16C142.591 134.987 142.537 134.807 142.551 134.62C142.564 134.42 142.677 134.247 142.891 134.1C143.024 134.007 143.177 133.967 143.351 133.98C143.537 133.993 143.704 134.08 143.851 134.24C144.224 134.68 144.651 135.033 145.131 135.3C145.611 135.553 146.197 135.68 146.891 135.68C147.211 135.667 147.531 135.613 147.851 135.52C148.171 135.427 148.437 135.267 148.651 135.04C148.877 134.8 148.991 134.487 148.991 134.1C148.991 133.727 148.877 133.433 148.651 133.22C148.424 132.993 148.131 132.813 147.771 132.68C147.411 132.533 147.017 132.407 146.591 132.3C146.151 132.18 145.717 132.047 145.291 131.9C144.864 131.74 144.477 131.547 144.131 131.32C143.797 131.08 143.524 130.787 143.311 130.44C143.111 130.08 143.011 129.647 143.011 129.14C143.011 128.54 143.171 128.02 143.491 127.58C143.824 127.14 144.264 126.8 144.811 126.56C145.371 126.32 145.977 126.2 146.631 126.2C147.004 126.2 147.391 126.247 147.791 126.34C148.204 126.42 148.604 126.567 148.991 126.78C149.377 126.98 149.717 127.26 150.011 127.62C150.131 127.753 150.197 127.92 150.211 128.12C150.224 128.32 150.137 128.5 149.951 128.66C149.804 128.767 149.637 128.813 149.451 128.8C149.277 128.787 149.131 128.72 149.011 128.6C148.731 128.267 148.377 128.013 147.951 127.84C147.537 127.653 147.077 127.56 146.571 127.56C146.251 127.56 145.937 127.607 145.631 127.7C145.324 127.793 145.064 127.953 144.851 128.18C144.651 128.393 144.551 128.693 144.551 129.08C144.564 129.44 144.684 129.733 144.911 129.96C145.137 130.187 145.444 130.373 145.831 130.52C146.217 130.653 146.644 130.787 147.111 130.92C147.537 131.027 147.944 131.153 148.331 131.3C148.731 131.433 149.091 131.613 149.411 131.84C149.731 132.067 149.984 132.36 150.171 132.72C150.357 133.067 150.451 133.507 150.451 134.04C150.451 134.653 150.277 135.187 149.931 135.64C149.584 136.08 149.124 136.42 148.551 136.66C147.991 136.887 147.384 137 146.731 137C145.997 137 145.271 136.86 144.551 136.58C143.844 136.3 143.231 135.827 142.711 135.16Z" fill="black"/>
<path d="M152.363 126.52H157.063C157.277 126.52 157.45 126.593 157.583 126.74C157.73 126.887 157.803 127.06 157.803 127.26C157.803 127.473 157.73 127.653 157.583 127.8C157.45 127.933 157.277 128 157.063 128H152.363C152.163 128 151.99 127.927 151.843 127.78C151.697 127.633 151.623 127.453 151.623 127.24C151.623 127.04 151.697 126.873 151.843 126.74C151.99 126.593 152.163 126.52 152.363 126.52ZM154.463 123.8C154.69 123.8 154.877 123.88 155.023 124.04C155.17 124.187 155.243 124.373 155.243 124.6V134.26C155.243 134.58 155.29 134.82 155.383 134.98C155.477 135.14 155.597 135.253 155.743 135.32C155.903 135.373 156.057 135.4 156.203 135.4C156.337 135.4 156.45 135.38 156.543 135.34C156.65 135.287 156.77 135.26 156.903 135.26C157.037 135.26 157.157 135.327 157.263 135.46C157.383 135.58 157.443 135.74 157.443 135.94C157.443 136.18 157.303 136.387 157.023 136.56C156.743 136.72 156.43 136.8 156.083 136.8C155.897 136.8 155.663 136.787 155.383 136.76C155.117 136.733 154.85 136.647 154.583 136.5C154.317 136.353 154.09 136.113 153.903 135.78C153.73 135.433 153.643 134.953 153.643 134.34V124.6C153.643 124.373 153.723 124.187 153.883 124.04C154.043 123.88 154.237 123.8 154.463 123.8Z" fill="black"/>
<path d="M181.857 122.74C182.07 122.74 182.263 122.813 182.437 122.96C182.623 123.107 182.717 123.313 182.717 123.58C182.717 123.673 182.703 123.773 182.677 123.88L178.417 136.28C178.363 136.44 178.263 136.567 178.117 136.66C177.983 136.74 177.843 136.787 177.697 136.8C177.537 136.8 177.383 136.76 177.237 136.68C177.09 136.587 176.977 136.453 176.897 136.28L173.557 128.2L173.717 128.26L170.397 136.28C170.317 136.453 170.203 136.587 170.057 136.68C169.91 136.76 169.757 136.8 169.597 136.8C169.45 136.787 169.303 136.74 169.157 136.66C169.023 136.567 168.93 136.44 168.877 136.28L164.617 123.88C164.59 123.773 164.577 123.68 164.577 123.6C164.577 123.333 164.67 123.127 164.857 122.98C165.057 122.82 165.257 122.74 165.457 122.74C165.617 122.74 165.77 122.787 165.917 122.88C166.063 122.973 166.163 123.1 166.217 123.26L169.957 134.3H169.677L172.937 126.24C173.003 126.08 173.103 125.953 173.237 125.86C173.37 125.767 173.523 125.72 173.697 125.72C173.857 125.72 174.003 125.767 174.137 125.86C174.283 125.953 174.383 126.08 174.437 126.24L177.597 134.18L177.357 134.28L181.077 123.26C181.13 123.1 181.23 122.973 181.377 122.88C181.523 122.787 181.683 122.74 181.857 122.74Z" fill="black"/>
<path d="M189.203 137C188.137 137 187.203 136.773 186.403 136.32C185.603 135.867 184.977 135.247 184.523 134.46C184.083 133.66 183.863 132.74 183.863 131.7C183.863 130.54 184.09 129.553 184.543 128.74C185.01 127.913 185.61 127.287 186.343 126.86C187.09 126.42 187.877 126.2 188.703 126.2C189.317 126.2 189.91 126.313 190.483 126.54C191.057 126.767 191.563 127.1 192.003 127.54C192.443 127.967 192.797 128.487 193.063 129.1C193.33 129.7 193.47 130.373 193.483 131.12C193.483 131.333 193.403 131.513 193.243 131.66C193.083 131.807 192.897 131.88 192.683 131.88H184.783L184.423 130.5H192.123L191.803 130.78V130.34C191.75 129.793 191.563 129.327 191.243 128.94C190.937 128.54 190.557 128.233 190.103 128.02C189.663 127.807 189.197 127.7 188.703 127.7C188.303 127.7 187.903 127.773 187.503 127.92C187.117 128.053 186.763 128.28 186.443 128.6C186.137 128.907 185.883 129.307 185.683 129.8C185.497 130.293 185.403 130.887 185.403 131.58C185.403 132.353 185.557 133.033 185.863 133.62C186.183 134.207 186.623 134.673 187.183 135.02C187.743 135.353 188.397 135.52 189.143 135.52C189.61 135.52 190.017 135.46 190.363 135.34C190.71 135.22 191.01 135.073 191.263 134.9C191.517 134.713 191.73 134.527 191.903 134.34C192.077 134.22 192.243 134.16 192.403 134.16C192.603 134.16 192.763 134.227 192.883 134.36C193.017 134.493 193.083 134.653 193.083 134.84C193.083 135.067 192.977 135.267 192.763 135.44C192.39 135.853 191.883 136.22 191.243 136.54C190.603 136.847 189.923 137 189.203 137Z" fill="black"/>
<path d="M206.336 126.3C207.243 126.3 207.976 126.533 208.536 127C209.109 127.453 209.489 128.1 209.676 128.94H209.376L209.516 128.58C209.676 128.207 209.949 127.847 210.336 127.5C210.723 127.153 211.169 126.867 211.676 126.64C212.183 126.413 212.709 126.3 213.256 126.3C214.136 126.3 214.829 126.493 215.336 126.88C215.843 127.253 216.203 127.76 216.416 128.4C216.643 129.027 216.756 129.733 216.756 130.52V135.98C216.756 136.207 216.676 136.4 216.516 136.56C216.369 136.72 216.183 136.8 215.956 136.8C215.716 136.8 215.523 136.72 215.376 136.56C215.229 136.4 215.156 136.207 215.156 135.98V130.56C215.156 130.04 215.076 129.573 214.916 129.16C214.769 128.733 214.523 128.4 214.176 128.16C213.843 127.907 213.383 127.78 212.796 127.78C212.249 127.78 211.749 127.907 211.296 128.16C210.843 128.4 210.483 128.733 210.216 129.16C209.949 129.573 209.816 130.04 209.816 130.56V135.98C209.816 136.207 209.743 136.4 209.596 136.56C209.449 136.72 209.256 136.8 209.016 136.8C208.789 136.8 208.596 136.72 208.436 136.56C208.289 136.4 208.216 136.207 208.216 135.98V130.5C208.216 129.993 208.143 129.54 207.996 129.14C207.863 128.727 207.629 128.4 207.296 128.16C206.963 127.907 206.503 127.78 205.916 127.78C205.383 127.78 204.896 127.907 204.456 128.16C204.016 128.4 203.663 128.727 203.396 129.14C203.129 129.54 202.996 129.993 202.996 130.5V135.98C202.996 136.207 202.916 136.4 202.756 136.56C202.609 136.72 202.423 136.8 202.196 136.8C201.969 136.8 201.776 136.72 201.616 136.56C201.469 136.4 201.396 136.207 201.396 135.98V127.26C201.396 127.033 201.469 126.847 201.616 126.7C201.776 126.54 201.969 126.46 202.196 126.46C202.436 126.46 202.629 126.54 202.776 126.7C202.923 126.847 202.996 127.033 202.996 127.26V128.78L202.556 129.26C202.609 128.913 202.743 128.567 202.956 128.22C203.183 127.873 203.469 127.553 203.816 127.26C204.163 126.967 204.549 126.733 204.976 126.56C205.403 126.387 205.856 126.3 206.336 126.3Z" fill="black"/>
<path d="M228.236 126.36C228.463 126.36 228.65 126.44 228.796 126.6C228.956 126.747 229.036 126.933 229.036 127.16V135.98C229.036 136.207 228.956 136.4 228.796 136.56C228.65 136.72 228.463 136.8 228.236 136.8C227.996 136.8 227.803 136.72 227.656 136.56C227.51 136.4 227.436 136.207 227.436 135.98V134.08L227.816 134.04C227.816 134.333 227.716 134.653 227.516 135C227.316 135.347 227.043 135.673 226.696 135.98C226.35 136.273 225.936 136.52 225.456 136.72C224.99 136.907 224.483 137 223.936 137C223.03 137 222.216 136.767 221.496 136.3C220.776 135.82 220.203 135.173 219.776 134.36C219.363 133.547 219.156 132.62 219.156 131.58C219.156 130.527 219.363 129.6 219.776 128.8C220.203 127.987 220.776 127.353 221.496 126.9C222.216 126.433 223.016 126.2 223.896 126.2C224.47 126.2 225.003 126.293 225.496 126.48C225.99 126.667 226.416 126.92 226.776 127.24C227.15 127.56 227.436 127.913 227.636 128.3C227.85 128.687 227.956 129.073 227.956 129.46L227.436 129.34V127.16C227.436 126.933 227.51 126.747 227.656 126.6C227.803 126.44 227.996 126.36 228.236 126.36ZM224.116 135.52C224.783 135.52 225.37 135.347 225.876 135C226.396 134.653 226.796 134.187 227.076 133.6C227.37 133 227.516 132.327 227.516 131.58C227.516 130.847 227.37 130.187 227.076 129.6C226.796 129 226.396 128.533 225.876 128.2C225.37 127.853 224.783 127.68 224.116 127.68C223.463 127.68 222.876 127.847 222.356 128.18C221.85 128.513 221.45 128.973 221.156 129.56C220.863 130.147 220.716 130.82 220.716 131.58C220.716 132.327 220.856 133 221.136 133.6C221.43 134.187 221.83 134.653 222.336 135C222.856 135.347 223.45 135.52 224.116 135.52Z" fill="black"/>
<path d="M232.962 136.8C232.722 136.8 232.528 136.72 232.382 136.56C232.235 136.4 232.162 136.207 232.162 135.98V122.8C232.162 122.573 232.235 122.387 232.382 122.24C232.528 122.08 232.722 122 232.962 122C233.188 122 233.375 122.08 233.522 122.24C233.682 122.387 233.762 122.573 233.762 122.8V135.98C233.762 136.207 233.682 136.4 233.522 136.56C233.375 136.72 233.188 136.8 232.962 136.8ZM239.602 126.4C239.815 126.4 239.995 126.487 240.142 126.66C240.302 126.82 240.382 126.987 240.382 127.16C240.382 127.387 240.275 127.587 240.062 127.76L233.582 133.42L233.522 131.56L239.042 126.64C239.202 126.48 239.388 126.4 239.602 126.4ZM239.822 136.78C239.595 136.78 239.395 136.693 239.222 136.52L234.962 131.98L236.162 130.88L240.382 135.4C240.542 135.573 240.622 135.773 240.622 136C240.622 136.24 240.528 136.433 240.342 136.58C240.155 136.713 239.982 136.78 239.822 136.78Z" fill="black"/>
<path d="M247.27 137C246.203 137 245.27 136.773 244.47 136.32C243.67 135.867 243.043 135.247 242.59 134.46C242.15 133.66 241.93 132.74 241.93 131.7C241.93 130.54 242.157 129.553 242.61 128.74C243.077 127.913 243.676 127.287 244.41 126.86C245.157 126.42 245.943 126.2 246.77 126.2C247.383 126.2 247.977 126.313 248.55 126.54C249.123 126.767 249.63 127.1 250.07 127.54C250.51 127.967 250.863 128.487 251.13 129.1C251.396 129.7 251.536 130.373 251.55 131.12C251.55 131.333 251.47 131.513 251.31 131.66C251.15 131.807 250.963 131.88 250.75 131.88H242.85L242.49 130.5H250.19L249.87 130.78V130.34C249.817 129.793 249.63 129.327 249.31 128.94C249.003 128.54 248.623 128.233 248.17 128.02C247.73 127.807 247.263 127.7 246.77 127.7C246.37 127.7 245.97 127.773 245.57 127.92C245.183 128.053 244.83 128.28 244.51 128.6C244.203 128.907 243.95 129.307 243.75 129.8C243.563 130.293 243.47 130.887 243.47 131.58C243.47 132.353 243.623 133.033 243.93 133.62C244.25 134.207 244.69 134.673 245.25 135.02C245.81 135.353 246.463 135.52 247.21 135.52C247.676 135.52 248.083 135.46 248.43 135.34C248.777 135.22 249.077 135.073 249.33 134.9C249.583 134.713 249.797 134.527 249.97 134.34C250.143 134.22 250.31 134.16 250.47 134.16C250.67 134.16 250.83 134.227 250.95 134.36C251.083 134.493 251.15 134.653 251.15 134.84C251.15 135.067 251.043 135.267 250.83 135.44C250.457 135.853 249.95 136.22 249.31 136.54C248.67 136.847 247.99 137 247.27 137Z" fill="black"/>
<path d="M258.882 135.16C258.762 134.987 258.709 134.807 258.723 134.62C258.736 134.42 258.849 134.247 259.062 134.1C259.196 134.007 259.349 133.967 259.522 133.98C259.709 133.993 259.876 134.08 260.022 134.24C260.396 134.68 260.823 135.033 261.303 135.3C261.783 135.553 262.369 135.68 263.062 135.68C263.383 135.667 263.702 135.613 264.022 135.52C264.342 135.427 264.609 135.267 264.822 135.04C265.049 134.8 265.163 134.487 265.163 134.1C265.163 133.727 265.049 133.433 264.822 133.22C264.596 132.993 264.303 132.813 263.943 132.68C263.583 132.533 263.189 132.407 262.762 132.3C262.322 132.18 261.889 132.047 261.462 131.9C261.036 131.74 260.649 131.547 260.303 131.32C259.969 131.08 259.696 130.787 259.482 130.44C259.283 130.08 259.182 129.647 259.182 129.14C259.182 128.54 259.342 128.02 259.662 127.58C259.996 127.14 260.436 126.8 260.982 126.56C261.542 126.32 262.149 126.2 262.803 126.2C263.176 126.2 263.562 126.247 263.962 126.34C264.376 126.42 264.776 126.567 265.163 126.78C265.549 126.98 265.889 127.26 266.182 127.62C266.302 127.753 266.369 127.92 266.382 128.12C266.396 128.32 266.309 128.5 266.122 128.66C265.976 128.767 265.809 128.813 265.622 128.8C265.449 128.787 265.302 128.72 265.182 128.6C264.902 128.267 264.549 128.013 264.122 127.84C263.709 127.653 263.249 127.56 262.742 127.56C262.422 127.56 262.109 127.607 261.803 127.7C261.496 127.793 261.236 127.953 261.022 128.18C260.822 128.393 260.723 128.693 260.723 129.08C260.736 129.44 260.856 129.733 261.083 129.96C261.309 130.187 261.616 130.373 262.003 130.52C262.389 130.653 262.816 130.787 263.283 130.92C263.709 131.027 264.116 131.153 264.503 131.3C264.902 131.433 265.262 131.613 265.583 131.84C265.903 132.067 266.156 132.36 266.342 132.72C266.529 133.067 266.622 133.507 266.622 134.04C266.622 134.653 266.449 135.187 266.102 135.64C265.756 136.08 265.296 136.42 264.723 136.66C264.163 136.887 263.556 137 262.902 137C262.169 137 261.443 136.86 260.723 136.58C260.016 136.3 259.402 135.827 258.882 135.16Z" fill="black"/>
<path d="M268.535 126.52H273.235C273.448 126.52 273.622 126.593 273.755 126.74C273.902 126.887 273.975 127.06 273.975 127.26C273.975 127.473 273.902 127.653 273.755 127.8C273.622 127.933 273.448 128 273.235 128H268.535C268.335 128 268.162 127.927 268.015 127.78C267.868 127.633 267.795 127.453 267.795 127.24C267.795 127.04 267.868 126.873 268.015 126.74C268.162 126.593 268.335 126.52 268.535 126.52ZM270.635 123.8C270.862 123.8 271.048 123.88 271.195 124.04C271.342 124.187 271.415 124.373 271.415 124.6V134.26C271.415 134.58 271.462 134.82 271.555 134.98C271.648 135.14 271.768 135.253 271.915 135.32C272.075 135.373 272.228 135.4 272.375 135.4C272.508 135.4 272.622 135.38 272.715 135.34C272.822 135.287 272.942 135.26 273.075 135.26C273.208 135.26 273.328 135.327 273.435 135.46C273.555 135.58 273.615 135.74 273.615 135.94C273.615 136.18 273.475 136.387 273.195 136.56C272.915 136.72 272.602 136.8 272.255 136.8C272.068 136.8 271.835 136.787 271.555 136.76C271.288 136.733 271.022 136.647 270.755 136.5C270.488 136.353 270.262 136.113 270.075 135.78C269.902 135.433 269.815 134.953 269.815 134.34V124.6C269.815 124.373 269.895 124.187 270.055 124.04C270.215 123.88 270.408 123.8 270.635 123.8Z" fill="black"/>
<path d="M283.941 126.46C284.181 126.46 284.374 126.54 284.521 126.7C284.667 126.847 284.741 127.033 284.741 127.26V132.72C284.741 134.067 284.361 135.113 283.601 135.86C282.854 136.593 281.807 136.96 280.461 136.96C279.127 136.96 278.081 136.593 277.321 135.86C276.574 135.113 276.201 134.067 276.201 132.72V127.26C276.201 127.033 276.274 126.847 276.421 126.7C276.581 126.54 276.774 126.46 277.001 126.46C277.241 126.46 277.434 126.54 277.581 126.7C277.727 126.847 277.801 127.033 277.801 127.26V132.72C277.801 133.627 278.034 134.313 278.501 134.78C278.967 135.247 279.621 135.48 280.461 135.48C281.327 135.48 281.987 135.247 282.441 134.78C282.907 134.313 283.141 133.627 283.141 132.72V127.26C283.141 127.033 283.214 126.847 283.361 126.7C283.521 126.54 283.714 126.46 283.941 126.46Z" fill="black"/>
<path d="M296.225 122C296.451 122 296.638 122.08 296.785 122.24C296.945 122.387 297.025 122.573 297.025 122.8V135.98C297.025 136.207 296.945 136.4 296.785 136.56C296.638 136.72 296.451 136.8 296.225 136.8C295.985 136.8 295.791 136.72 295.645 136.56C295.498 136.4 295.425 136.207 295.425 135.98V134.08L295.805 133.94C295.805 134.26 295.705 134.6 295.505 134.96C295.305 135.307 295.031 135.633 294.685 135.94C294.338 136.247 293.925 136.5 293.445 136.7C292.978 136.9 292.471 137 291.925 137C291.031 137 290.218 136.767 289.485 136.3C288.765 135.833 288.191 135.193 287.765 134.38C287.351 133.567 287.145 132.64 287.145 131.6C287.145 130.547 287.351 129.613 287.765 128.8C288.191 127.987 288.765 127.353 289.485 126.9C290.205 126.433 291.005 126.2 291.885 126.2C292.445 126.2 292.971 126.293 293.465 126.48C293.958 126.667 294.385 126.92 294.745 127.24C295.118 127.56 295.411 127.913 295.625 128.3C295.838 128.687 295.945 129.073 295.945 129.46L295.425 129.34V122.8C295.425 122.573 295.498 122.387 295.645 122.24C295.791 122.08 295.985 122 296.225 122ZM292.105 135.52C292.771 135.52 293.358 135.353 293.865 135.02C294.385 134.673 294.785 134.207 295.065 133.62C295.358 133.02 295.505 132.347 295.505 131.6C295.505 130.84 295.358 130.167 295.065 129.58C294.785 128.993 294.385 128.533 293.865 128.2C293.358 127.853 292.771 127.68 292.105 127.68C291.451 127.68 290.865 127.853 290.345 128.2C289.838 128.533 289.438 128.993 289.145 129.58C288.851 130.167 288.705 130.84 288.705 131.6C288.705 132.333 288.851 133 289.145 133.6C289.438 134.187 289.838 134.653 290.345 135C290.865 135.347 291.451 135.52 292.105 135.52Z" fill="black"/>
<path d="M304.77 137C303.703 137 302.77 136.773 301.97 136.32C301.17 135.867 300.543 135.247 300.09 134.46C299.65 133.66 299.43 132.74 299.43 131.7C299.43 130.54 299.657 129.553 300.11 128.74C300.577 127.913 301.176 127.287 301.91 126.86C302.657 126.42 303.443 126.2 304.27 126.2C304.883 126.2 305.477 126.313 306.05 126.54C306.623 126.767 307.13 127.1 307.57 127.54C308.01 127.967 308.363 128.487 308.63 129.1C308.897 129.7 309.037 130.373 309.05 131.12C309.05 131.333 308.97 131.513 308.81 131.66C308.65 131.807 308.463 131.88 308.25 131.88H300.35L299.99 130.5H307.69L307.37 130.78V130.34C307.316 129.793 307.13 129.327 306.81 128.94C306.503 128.54 306.123 128.233 305.67 128.02C305.23 127.807 304.763 127.7 304.27 127.7C303.87 127.7 303.47 127.773 303.07 127.92C302.683 128.053 302.33 128.28 302.01 128.6C301.703 128.907 301.45 129.307 301.25 129.8C301.063 130.293 300.97 130.887 300.97 131.58C300.97 132.353 301.123 133.033 301.43 133.62C301.75 134.207 302.19 134.673 302.75 135.02C303.31 135.353 303.963 135.52 304.71 135.52C305.176 135.52 305.583 135.46 305.93 135.34C306.277 135.22 306.577 135.073 306.83 134.9C307.083 134.713 307.297 134.527 307.47 134.34C307.643 134.22 307.81 134.16 307.97 134.16C308.17 134.16 308.33 134.227 308.45 134.36C308.583 134.493 308.65 134.653 308.65 134.84C308.65 135.067 308.543 135.267 308.33 135.44C307.957 135.853 307.45 136.22 306.81 136.54C306.17 136.847 305.49 137 304.77 137Z" fill="black"/>
<path d="M316.595 126.2C317.501 126.2 318.215 126.387 318.735 126.76C319.255 127.133 319.621 127.633 319.835 128.26C320.061 128.887 320.175 129.587 320.175 130.36V135.98C320.175 136.207 320.095 136.4 319.935 136.56C319.788 136.72 319.601 136.8 319.375 136.8C319.148 136.8 318.955 136.72 318.795 136.56C318.648 136.4 318.575 136.207 318.575 135.98V130.4C318.575 129.893 318.495 129.44 318.335 129.04C318.188 128.627 317.935 128.3 317.575 128.06C317.228 127.807 316.748 127.68 316.135 127.68C315.575 127.68 315.061 127.807 314.595 128.06C314.128 128.3 313.755 128.627 313.475 129.04C313.195 129.44 313.055 129.893 313.055 130.4V135.98C313.055 136.207 312.975 136.4 312.815 136.56C312.668 136.72 312.481 136.8 312.255 136.8C312.028 136.8 311.835 136.72 311.675 136.56C311.528 136.4 311.455 136.207 311.455 135.98V127.26C311.455 127.033 311.528 126.847 311.675 126.7C311.835 126.54 312.028 126.46 312.255 126.46C312.495 126.46 312.688 126.54 312.835 126.7C312.981 126.847 313.055 127.033 313.055 127.26V128.68L312.655 129.12C312.721 128.773 312.875 128.427 313.115 128.08C313.355 127.72 313.655 127.4 314.015 127.12C314.375 126.84 314.775 126.62 315.215 126.46C315.655 126.287 316.115 126.2 316.595 126.2Z" fill="black"/>
<path d="M322.734 126.52H327.434C327.648 126.52 327.821 126.593 327.954 126.74C328.101 126.887 328.174 127.06 328.174 127.26C328.174 127.473 328.101 127.653 327.954 127.8C327.821 127.933 327.648 128 327.434 128H322.734C322.534 128 322.361 127.927 322.214 127.78C322.068 127.633 321.994 127.453 321.994 127.24C321.994 127.04 322.068 126.873 322.214 126.74C322.361 126.593 322.534 126.52 322.734 126.52ZM324.834 123.8C325.061 123.8 325.248 123.88 325.394 124.04C325.541 124.187 325.614 124.373 325.614 124.6V134.26C325.614 134.58 325.661 134.82 325.754 134.98C325.848 135.14 325.968 135.253 326.114 135.32C326.274 135.373 326.428 135.4 326.574 135.4C326.708 135.4 326.821 135.38 326.914 135.34C327.021 135.287 327.141 135.26 327.274 135.26C327.408 135.26 327.528 135.327 327.634 135.46C327.754 135.58 327.814 135.74 327.814 135.94C327.814 136.18 327.674 136.387 327.394 136.56C327.114 136.72 326.801 136.8 326.454 136.8C326.268 136.8 326.034 136.787 325.754 136.76C325.488 136.733 325.221 136.647 324.954 136.5C324.688 136.353 324.461 136.113 324.274 135.78C324.101 135.433 324.014 134.953 324.014 134.34V124.6C324.014 124.373 324.094 124.187 324.254 124.04C324.414 123.88 324.608 123.8 324.834 123.8Z" fill="black"/>
<path d="M330.211 135.16C330.091 134.987 330.037 134.807 330.051 134.62C330.064 134.42 330.177 134.247 330.391 134.1C330.524 134.007 330.677 133.967 330.851 133.98C331.037 133.993 331.204 134.08 331.351 134.24C331.724 134.68 332.151 135.033 332.631 135.3C333.111 135.553 333.697 135.68 334.391 135.68C334.711 135.667 335.031 135.613 335.351 135.52C335.671 135.427 335.937 135.267 336.151 135.04C336.377 134.8 336.491 134.487 336.491 134.1C336.491 133.727 336.377 133.433 336.151 133.22C335.924 132.993 335.631 132.813 335.271 132.68C334.911 132.533 334.517 132.407 334.091 132.3C333.651 132.18 333.217 132.047 332.791 131.9C332.364 131.74 331.977 131.547 331.631 131.32C331.297 131.08 331.024 130.787 330.811 130.44C330.611 130.08 330.511 129.647 330.511 129.14C330.511 128.54 330.671 128.02 330.991 127.58C331.324 127.14 331.764 126.8 332.311 126.56C332.871 126.32 333.477 126.2 334.131 126.2C334.504 126.2 334.891 126.247 335.291 126.34C335.704 126.42 336.104 126.567 336.491 126.78C336.877 126.98 337.217 127.26 337.511 127.62C337.631 127.753 337.697 127.92 337.711 128.12C337.724 128.32 337.637 128.5 337.451 128.66C337.304 128.767 337.137 128.813 336.951 128.8C336.777 128.787 336.631 128.72 336.511 128.6C336.231 128.267 335.877 128.013 335.451 127.84C335.037 127.653 334.577 127.56 334.071 127.56C333.751 127.56 333.437 127.607 333.131 127.7C332.824 127.793 332.564 127.953 332.351 128.18C332.151 128.393 332.051 128.693 332.051 129.08C332.064 129.44 332.184 129.733 332.411 129.96C332.637 130.187 332.944 130.373 333.331 130.52C333.717 130.653 334.144 130.787 334.611 130.92C335.037 131.027 335.444 131.153 335.831 131.3C336.231 131.433 336.591 131.613 336.911 131.84C337.231 132.067 337.484 132.36 337.671 132.72C337.857 133.067 337.951 133.507 337.951 134.04C337.951 134.653 337.777 135.187 337.431 135.64C337.084 136.08 336.624 136.42 336.051 136.66C335.491 136.887 334.884 137 334.231 137C333.497 137 332.771 136.86 332.051 136.58C331.344 136.3 330.731 135.827 330.211 135.16Z" fill="black"/>
<path d="M342.223 124.34C342.223 124.727 342.11 125.107 341.883 125.48C341.657 125.853 341.377 126.167 341.043 126.42C340.71 126.66 340.37 126.78 340.023 126.78C339.903 126.78 339.783 126.74 339.663 126.66C339.543 126.58 339.483 126.427 339.483 126.2C339.483 125.973 339.557 125.847 339.703 125.82C339.85 125.78 340.01 125.713 340.183 125.62C340.397 125.513 340.557 125.387 340.663 125.24C340.783 125.093 340.843 124.92 340.843 124.72C340.843 124.547 340.783 124.413 340.663 124.32C340.557 124.213 340.417 124.16 340.243 124.16C340.163 124.16 340.07 124.173 339.963 124.2C339.87 124.227 339.783 124.267 339.703 124.32C339.61 124.253 339.53 124.18 339.463 124.1C339.397 124.007 339.37 123.88 339.383 123.72C339.397 123.44 339.537 123.193 339.803 122.98C340.083 122.767 340.403 122.66 340.763 122.66C341.203 122.66 341.557 122.827 341.823 123.16C342.09 123.48 342.223 123.873 342.223 124.34Z" fill="black"/>
<path d="M351.945 135.98C351.945 136.207 351.865 136.4 351.705 136.56C351.545 136.72 351.352 136.8 351.125 136.8C350.899 136.8 350.712 136.72 350.565 136.56C350.418 136.4 350.345 136.207 350.345 135.98V122.8C350.345 122.573 350.418 122.387 350.565 122.24C350.725 122.08 350.919 122 351.145 122C351.385 122 351.578 122.08 351.725 122.24C351.872 122.387 351.945 122.573 351.945 122.8V135.98Z" fill="black"/>
<path d="M356.588 135.98C356.588 136.207 356.508 136.4 356.348 136.56C356.202 136.72 356.015 136.8 355.788 136.8C355.548 136.8 355.355 136.72 355.208 136.56C355.062 136.4 354.988 136.207 354.988 135.98V127.1C354.988 126.873 355.062 126.687 355.208 126.54C355.368 126.38 355.562 126.3 355.788 126.3C356.015 126.3 356.202 126.38 356.348 126.54C356.508 126.687 356.588 126.873 356.588 127.1V135.98ZM355.788 124.96C355.455 124.96 355.208 124.893 355.048 124.76C354.888 124.627 354.808 124.42 354.808 124.14V123.86C354.808 123.58 354.895 123.373 355.068 123.24C355.242 123.107 355.488 123.04 355.808 123.04C356.128 123.04 356.368 123.107 356.528 123.24C356.688 123.373 356.768 123.58 356.768 123.86V124.14C356.768 124.42 356.682 124.627 356.508 124.76C356.348 124.893 356.108 124.96 355.788 124.96Z" fill="black"/>
<path d="M359.463 126.28C359.623 126.28 359.776 126.327 359.923 126.42C360.069 126.5 360.176 126.62 360.243 126.78L363.562 134.58L363.243 134.74L366.623 126.8C366.769 126.44 367.016 126.267 367.363 126.28C367.563 126.28 367.736 126.347 367.883 126.48C368.029 126.613 368.103 126.78 368.103 126.98C368.103 127.06 368.089 127.14 368.062 127.22C368.049 127.287 368.029 127.347 368.003 127.4L364.143 136.28C363.996 136.613 363.763 136.787 363.443 136.8C363.269 136.813 363.103 136.78 362.943 136.7C362.796 136.607 362.689 136.467 362.623 136.28L358.763 127.42C358.736 127.367 358.709 127.307 358.683 127.24C358.669 127.173 358.663 127.093 358.663 127C358.663 126.827 358.729 126.667 358.863 126.52C359.009 126.36 359.209 126.28 359.463 126.28Z" fill="black"/>
<path d="M374.946 137C373.879 137 372.946 136.773 372.146 136.32C371.346 135.867 370.719 135.247 370.266 134.46C369.826 133.66 369.606 132.74 369.606 131.7C369.606 130.54 369.832 129.553 370.286 128.74C370.752 127.913 371.352 127.287 372.086 126.86C372.832 126.42 373.619 126.2 374.446 126.2C375.059 126.2 375.652 126.313 376.226 126.54C376.799 126.767 377.306 127.1 377.746 127.54C378.186 127.967 378.539 128.487 378.806 129.1C379.072 129.7 379.212 130.373 379.226 131.12C379.226 131.333 379.146 131.513 378.986 131.66C378.826 131.807 378.639 131.88 378.426 131.88H370.526L370.166 130.5H377.866L377.546 130.78V130.34C377.492 129.793 377.306 129.327 376.986 128.94C376.679 128.54 376.299 128.233 375.846 128.02C375.406 127.807 374.939 127.7 374.446 127.7C374.046 127.7 373.646 127.773 373.246 127.92C372.859 128.053 372.506 128.28 372.186 128.6C371.879 128.907 371.626 129.307 371.426 129.8C371.239 130.293 371.146 130.887 371.146 131.58C371.146 132.353 371.299 133.033 371.606 133.62C371.926 134.207 372.366 134.673 372.926 135.02C373.486 135.353 374.139 135.52 374.886 135.52C375.352 135.52 375.759 135.46 376.106 135.34C376.452 135.22 376.752 135.073 377.006 134.9C377.259 134.713 377.472 134.527 377.646 134.34C377.819 134.22 377.986 134.16 378.146 134.16C378.346 134.16 378.506 134.227 378.626 134.36C378.759 134.493 378.826 134.653 378.826 134.84C378.826 135.067 378.719 135.267 378.506 135.44C378.132 135.853 377.626 136.22 376.986 136.54C376.346 136.847 375.666 137 374.946 137Z" fill="black"/>
<path d="M381.05 135.16C380.93 134.987 380.877 134.807 380.89 134.62C380.904 134.42 381.017 134.247 381.23 134.1C381.364 134.007 381.517 133.967 381.69 133.98C381.877 133.993 382.044 134.08 382.19 134.24C382.564 134.68 382.99 135.033 383.47 135.3C383.951 135.553 384.537 135.68 385.23 135.68C385.55 135.667 385.87 135.613 386.19 135.52C386.51 135.427 386.777 135.267 386.99 135.04C387.217 134.8 387.33 134.487 387.33 134.1C387.33 133.727 387.217 133.433 386.99 133.22C386.764 132.993 386.47 132.813 386.11 132.68C385.75 132.533 385.357 132.407 384.93 132.3C384.49 132.18 384.057 132.047 383.63 131.9C383.204 131.74 382.817 131.547 382.47 131.32C382.137 131.08 381.864 130.787 381.65 130.44C381.45 130.08 381.35 129.647 381.35 129.14C381.35 128.54 381.51 128.02 381.83 127.58C382.164 127.14 382.604 126.8 383.15 126.56C383.71 126.32 384.317 126.2 384.97 126.2C385.344 126.2 385.73 126.247 386.13 126.34C386.544 126.42 386.944 126.567 387.33 126.78C387.717 126.98 388.057 127.26 388.35 127.62C388.47 127.753 388.537 127.92 388.55 128.12C388.564 128.32 388.477 128.5 388.29 128.66C388.144 128.767 387.977 128.813 387.79 128.8C387.617 128.787 387.47 128.72 387.35 128.6C387.07 128.267 386.717 128.013 386.29 127.84C385.877 127.653 385.417 127.56 384.91 127.56C384.59 127.56 384.277 127.607 383.97 127.7C383.664 127.793 383.404 127.953 383.19 128.18C382.99 128.393 382.89 128.693 382.89 129.08C382.904 129.44 383.024 129.733 383.25 129.96C383.477 130.187 383.784 130.373 384.17 130.52C384.557 130.653 384.984 130.787 385.45 130.92C385.877 131.027 386.284 131.153 386.67 131.3C387.07 131.433 387.43 131.613 387.75 131.84C388.07 132.067 388.324 132.36 388.51 132.72C388.697 133.067 388.79 133.507 388.79 134.04C388.79 134.653 388.617 135.187 388.27 135.64C387.924 136.08 387.464 136.42 386.89 136.66C386.33 136.887 385.724 137 385.07 137C384.337 137 383.61 136.86 382.89 136.58C382.184 136.3 381.57 135.827 381.05 135.16Z" fill="black"/>
<path d="M401.391 137C400.324 137 399.391 136.773 398.591 136.32C397.791 135.867 397.164 135.247 396.711 134.46C396.271 133.66 396.051 132.74 396.051 131.7C396.051 130.54 396.278 129.553 396.731 128.74C397.198 127.913 397.798 127.287 398.531 126.86C399.278 126.42 400.064 126.2 400.891 126.2C401.504 126.2 402.098 126.313 402.671 126.54C403.244 126.767 403.751 127.1 404.191 127.54C404.631 127.967 404.984 128.487 405.251 129.1C405.518 129.7 405.658 130.373 405.671 131.12C405.671 131.333 405.591 131.513 405.431 131.66C405.271 131.807 405.084 131.88 404.871 131.88H396.971L396.611 130.5H404.311L403.991 130.78V130.34C403.938 129.793 403.751 129.327 403.431 128.94C403.124 128.54 402.744 128.233 402.291 128.02C401.851 127.807 401.384 127.7 400.891 127.7C400.491 127.7 400.091 127.773 399.691 127.92C399.304 128.053 398.951 128.28 398.631 128.6C398.324 128.907 398.071 129.307 397.871 129.8C397.684 130.293 397.591 130.887 397.591 131.58C397.591 132.353 397.744 133.033 398.051 133.62C398.371 134.207 398.811 134.673 399.371 135.02C399.931 135.353 400.584 135.52 401.331 135.52C401.798 135.52 402.204 135.46 402.551 135.34C402.898 135.22 403.198 135.073 403.451 134.9C403.704 134.713 403.918 134.527 404.091 134.34C404.264 134.22 404.431 134.16 404.591 134.16C404.791 134.16 404.951 134.227 405.071 134.36C405.204 134.493 405.271 134.653 405.271 134.84C405.271 135.067 405.164 135.267 404.951 135.44C404.578 135.853 404.071 136.22 403.431 136.54C402.791 136.847 402.111 137 401.391 137Z" fill="black"/>
<path d="M416.674 126.36C416.901 126.36 417.087 126.44 417.234 126.6C417.394 126.747 417.474 126.933 417.474 127.16V135.98C417.474 136.207 417.394 136.4 417.234 136.56C417.087 136.72 416.901 136.8 416.674 136.8C416.434 136.8 416.241 136.72 416.094 136.56C415.947 136.4 415.874 136.207 415.874 135.98V134.08L416.254 134.04C416.254 134.333 416.154 134.653 415.954 135C415.754 135.347 415.481 135.673 415.134 135.98C414.787 136.273 414.374 136.52 413.894 136.72C413.427 136.907 412.921 137 412.374 137C411.467 137 410.654 136.767 409.934 136.3C409.214 135.82 408.641 135.173 408.214 134.36C407.801 133.547 407.594 132.62 407.594 131.58C407.594 130.527 407.801 129.6 408.214 128.8C408.641 127.987 409.214 127.353 409.934 126.9C410.654 126.433 411.454 126.2 412.334 126.2C412.907 126.2 413.441 126.293 413.934 126.48C414.427 126.667 414.854 126.92 415.214 127.24C415.587 127.56 415.874 127.913 416.074 128.3C416.287 128.687 416.394 129.073 416.394 129.46L415.874 129.34V127.16C415.874 126.933 415.947 126.747 416.094 126.6C416.241 126.44 416.434 126.36 416.674 126.36ZM412.554 135.52C413.221 135.52 413.807 135.347 414.314 135C414.834 134.653 415.234 134.187 415.514 133.6C415.807 133 415.954 132.327 415.954 131.58C415.954 130.847 415.807 130.187 415.514 129.6C415.234 129 414.834 128.533 414.314 128.2C413.807 127.853 413.221 127.68 412.554 127.68C411.901 127.68 411.314 127.847 410.794 128.18C410.287 128.513 409.887 128.973 409.594 129.56C409.301 130.147 409.154 130.82 409.154 131.58C409.154 132.327 409.294 133 409.574 133.6C409.867 134.187 410.267 134.653 410.774 135C411.294 135.347 411.887 135.52 412.554 135.52Z" fill="black"/>
<path d="M419.859 135.16C419.739 134.987 419.686 134.807 419.699 134.62C419.712 134.42 419.826 134.247 420.039 134.1C420.172 134.007 420.326 133.967 420.499 133.98C420.686 133.993 420.852 134.08 420.999 134.24C421.372 134.68 421.799 135.033 422.279 135.3C422.759 135.553 423.346 135.68 424.039 135.68C424.359 135.667 424.679 135.613 424.999 135.52C425.319 135.427 425.586 135.267 425.799 135.04C426.026 134.8 426.139 134.487 426.139 134.1C426.139 133.727 426.026 133.433 425.799 133.22C425.572 132.993 425.279 132.813 424.919 132.68C424.559 132.533 424.166 132.407 423.739 132.3C423.299 132.18 422.866 132.047 422.439 131.9C422.012 131.74 421.626 131.547 421.279 131.32C420.946 131.08 420.672 130.787 420.459 130.44C420.259 130.08 420.159 129.647 420.159 129.14C420.159 128.54 420.319 128.02 420.639 127.58C420.972 127.14 421.412 126.8 421.959 126.56C422.519 126.32 423.126 126.2 423.779 126.2C424.152 126.2 424.539 126.247 424.939 126.34C425.352 126.42 425.752 126.567 426.139 126.78C426.526 126.98 426.866 127.26 427.159 127.62C427.279 127.753 427.346 127.92 427.359 128.12C427.372 128.32 427.286 128.5 427.099 128.66C426.952 128.767 426.786 128.813 426.599 128.8C426.426 128.787 426.279 128.72 426.159 128.6C425.879 128.267 425.526 128.013 425.099 127.84C424.686 127.653 424.226 127.56 423.719 127.56C423.399 127.56 423.086 127.607 422.779 127.7C422.472 127.793 422.212 127.953 421.999 128.18C421.799 128.393 421.699 128.693 421.699 129.08C421.712 129.44 421.832 129.733 422.059 129.96C422.286 130.187 422.592 130.373 422.979 130.52C423.366 130.653 423.792 130.787 424.259 130.92C424.686 131.027 425.092 131.153 425.479 131.3C425.879 131.433 426.239 131.613 426.559 131.84C426.879 132.067 427.132 132.36 427.319 132.72C427.506 133.067 427.599 133.507 427.599 134.04C427.599 134.653 427.426 135.187 427.079 135.64C426.732 136.08 426.272 136.42 425.699 136.66C425.139 136.887 424.532 137 423.879 137C423.146 137 422.419 136.86 421.699 136.58C420.992 136.3 420.379 135.827 419.859 135.16Z" fill="black"/>
<path d="M431.452 135.98C431.452 136.207 431.372 136.4 431.212 136.56C431.065 136.72 430.878 136.8 430.652 136.8C430.412 136.8 430.218 136.72 430.072 136.56C429.925 136.4 429.852 136.207 429.852 135.98V127.1C429.852 126.873 429.925 126.687 430.072 126.54C430.232 126.38 430.425 126.3 430.652 126.3C430.878 126.3 431.065 126.38 431.212 126.54C431.372 126.687 431.452 126.873 431.452 127.1V135.98ZM430.652 124.96C430.318 124.96 430.072 124.893 429.912 124.76C429.752 124.627 429.672 124.42 429.672 124.14V123.86C429.672 123.58 429.758 123.373 429.932 123.24C430.105 123.107 430.352 123.04 430.672 123.04C430.992 123.04 431.232 123.107 431.392 123.24C431.552 123.373 431.632 123.58 431.632 123.86V124.14C431.632 124.42 431.545 124.627 431.372 124.76C431.212 124.893 430.972 124.96 430.652 124.96Z" fill="black"/>
<path d="M439.106 137C438.039 137 437.106 136.773 436.306 136.32C435.506 135.867 434.879 135.247 434.426 134.46C433.986 133.66 433.766 132.74 433.766 131.7C433.766 130.54 433.992 129.553 434.446 128.74C434.912 127.913 435.512 127.287 436.246 126.86C436.992 126.42 437.779 126.2 438.606 126.2C439.219 126.2 439.812 126.313 440.386 126.54C440.959 126.767 441.466 127.1 441.906 127.54C442.346 127.967 442.699 128.487 442.966 129.1C443.232 129.7 443.372 130.373 443.386 131.12C443.386 131.333 443.306 131.513 443.146 131.66C442.986 131.807 442.799 131.88 442.586 131.88H434.686L434.326 130.5H442.026L441.706 130.78V130.34C441.652 129.793 441.466 129.327 441.146 128.94C440.839 128.54 440.459 128.233 440.006 128.02C439.566 127.807 439.099 127.7 438.606 127.7C438.206 127.7 437.806 127.773 437.406 127.92C437.019 128.053 436.666 128.28 436.346 128.6C436.039 128.907 435.786 129.307 435.586 129.8C435.399 130.293 435.306 130.887 435.306 131.58C435.306 132.353 435.459 133.033 435.766 133.62C436.086 134.207 436.526 134.673 437.086 135.02C437.646 135.353 438.299 135.52 439.046 135.52C439.512 135.52 439.919 135.46 440.266 135.34C440.612 135.22 440.912 135.073 441.166 134.9C441.419 134.713 441.632 134.527 441.806 134.34C441.979 134.22 442.146 134.16 442.306 134.16C442.506 134.16 442.666 134.227 442.786 134.36C442.919 134.493 442.986 134.653 442.986 134.84C442.986 135.067 442.879 135.267 442.666 135.44C442.292 135.853 441.786 136.22 441.146 136.54C440.506 136.847 439.826 137 439.106 137Z" fill="black"/>
<path d="M446.591 136.8C446.364 136.8 446.171 136.72 446.011 136.56C445.864 136.4 445.791 136.207 445.791 135.98V127.26C445.791 127.033 445.864 126.847 446.011 126.7C446.171 126.54 446.364 126.46 446.591 126.46C446.831 126.46 447.024 126.54 447.171 126.7C447.317 126.847 447.391 127.033 447.391 127.26V129.9L447.151 129.48C447.231 129.067 447.371 128.667 447.571 128.28C447.784 127.88 448.051 127.527 448.371 127.22C448.691 126.9 449.057 126.653 449.471 126.48C449.884 126.293 450.337 126.2 450.831 126.2C451.124 126.2 451.391 126.273 451.631 126.42C451.884 126.553 452.011 126.747 452.011 127C452.011 127.28 451.937 127.487 451.791 127.62C451.644 127.753 451.477 127.82 451.291 127.82C451.117 127.82 450.951 127.787 450.791 127.72C450.631 127.64 450.431 127.6 450.191 127.6C449.857 127.6 449.524 127.693 449.191 127.88C448.871 128.053 448.571 128.307 448.291 128.64C448.024 128.973 447.804 129.353 447.631 129.78C447.471 130.193 447.391 130.64 447.391 131.12V135.98C447.391 136.207 447.311 136.4 447.151 136.56C447.004 136.72 446.817 136.8 446.591 136.8Z" fill="black"/>
<path d="M464.426 126.2C465.332 126.2 466.146 126.433 466.866 126.9C467.586 127.353 468.152 127.98 468.566 128.78C468.992 129.58 469.206 130.507 469.206 131.56C469.206 132.613 468.992 133.547 468.566 134.36C468.152 135.173 467.586 135.82 466.866 136.3C466.159 136.767 465.359 137 464.466 137C463.972 137 463.506 136.927 463.066 136.78C462.639 136.62 462.246 136.413 461.886 136.16C461.539 135.893 461.246 135.607 461.006 135.3C460.766 134.98 460.592 134.667 460.486 134.36L460.926 134.08V136.08C460.926 136.307 460.852 136.5 460.706 136.66C460.559 136.82 460.366 136.9 460.126 136.9C459.899 136.9 459.706 136.827 459.546 136.68C459.399 136.52 459.326 136.32 459.326 136.08V122.82C459.326 122.593 459.399 122.4 459.546 122.24C459.706 122.08 459.899 122 460.126 122C460.366 122 460.559 122.08 460.706 122.24C460.852 122.4 460.926 122.593 460.926 122.82V128.98L460.626 128.82C460.719 128.487 460.879 128.167 461.106 127.86C461.346 127.54 461.632 127.26 461.966 127.02C462.312 126.767 462.692 126.567 463.106 126.42C463.532 126.273 463.972 126.2 464.426 126.2ZM464.246 127.68C463.579 127.68 462.986 127.847 462.466 128.18C461.959 128.513 461.559 128.973 461.266 129.56C460.986 130.147 460.846 130.813 460.846 131.56C460.846 132.307 460.986 132.98 461.266 133.58C461.559 134.18 461.959 134.653 462.466 135C462.986 135.347 463.579 135.52 464.246 135.52C464.912 135.52 465.499 135.347 466.006 135C466.512 134.653 466.912 134.18 467.206 133.58C467.499 132.98 467.646 132.307 467.646 131.56C467.646 130.813 467.499 130.147 467.206 129.56C466.912 128.973 466.512 128.513 466.006 128.18C465.499 127.847 464.912 127.68 464.246 127.68Z" fill="black"/>
<path d="M479.351 126.3C479.578 126.3 479.764 126.38 479.911 126.54C480.071 126.687 480.151 126.873 480.151 127.1V135.82C480.151 136.94 479.931 137.867 479.491 138.6C479.051 139.347 478.458 139.9 477.711 140.26C476.978 140.62 476.144 140.8 475.211 140.8C474.691 140.8 474.191 140.747 473.711 140.64C473.231 140.533 472.838 140.393 472.531 140.22C472.278 140.1 472.098 139.947 471.991 139.76C471.898 139.587 471.884 139.4 471.951 139.2C472.044 138.96 472.178 138.793 472.351 138.7C472.538 138.607 472.731 138.607 472.931 138.7C473.144 138.793 473.451 138.92 473.851 139.08C474.264 139.253 474.724 139.34 475.231 139.34C475.924 139.34 476.518 139.207 477.011 138.94C477.504 138.673 477.884 138.28 478.151 137.76C478.418 137.253 478.551 136.62 478.551 135.86V134.44L478.791 134.94C478.578 135.353 478.291 135.713 477.931 136.02C477.571 136.327 477.158 136.567 476.691 136.74C476.224 136.913 475.711 137 475.151 137C474.391 137 473.744 136.84 473.211 136.52C472.691 136.187 472.291 135.733 472.011 135.16C471.744 134.573 471.611 133.9 471.611 133.14V127.1C471.611 126.873 471.684 126.687 471.831 126.54C471.991 126.38 472.184 126.3 472.411 126.3C472.651 126.3 472.844 126.38 472.991 126.54C473.138 126.687 473.211 126.873 473.211 127.1V132.78C473.211 133.687 473.411 134.373 473.811 134.84C474.211 135.293 474.831 135.52 475.671 135.52C476.204 135.52 476.684 135.4 477.111 135.16C477.551 134.92 477.898 134.593 478.151 134.18C478.418 133.753 478.551 133.287 478.551 132.78V127.1C478.551 126.873 478.624 126.687 478.771 126.54C478.918 126.38 479.111 126.3 479.351 126.3Z" fill="black"/>
<path d="M140.795 162C139.729 162 138.795 161.773 137.995 161.32C137.195 160.867 136.569 160.247 136.115 159.46C135.675 158.66 135.455 157.74 135.455 156.7C135.455 155.54 135.682 154.553 136.135 153.74C136.602 152.913 137.202 152.287 137.935 151.86C138.682 151.42 139.469 151.2 140.295 151.2C140.909 151.2 141.502 151.313 142.075 151.54C142.649 151.767 143.155 152.1 143.595 152.54C144.035 152.967 144.389 153.487 144.655 154.1C144.922 154.7 145.062 155.373 145.075 156.12C145.075 156.333 144.995 156.513 144.835 156.66C144.675 156.807 144.489 156.88 144.275 156.88H136.375L136.015 155.5H143.715L143.395 155.78V155.34C143.342 154.793 143.155 154.327 142.835 153.94C142.529 153.54 142.149 153.233 141.695 153.02C141.255 152.807 140.789 152.7 140.295 152.7C139.895 152.7 139.495 152.773 139.095 152.92C138.709 153.053 138.355 153.28 138.035 153.6C137.729 153.907 137.475 154.307 137.275 154.8C137.089 155.293 136.995 155.887 136.995 156.58C136.995 157.353 137.149 158.033 137.455 158.62C137.775 159.207 138.215 159.673 138.775 160.02C139.335 160.353 139.989 160.52 140.735 160.52C141.202 160.52 141.609 160.46 141.955 160.34C142.302 160.22 142.602 160.073 142.855 159.9C143.109 159.713 143.322 159.527 143.495 159.34C143.669 159.22 143.835 159.16 143.995 159.16C144.195 159.16 144.355 159.227 144.475 159.36C144.609 159.493 144.675 159.653 144.675 159.84C144.675 160.067 144.569 160.267 144.355 160.44C143.982 160.853 143.475 161.22 142.835 161.54C142.195 161.847 141.515 162 140.795 162Z" fill="black"/>
<path d="M152.62 151.2C153.527 151.2 154.24 151.387 154.76 151.76C155.28 152.133 155.647 152.633 155.86 153.26C156.087 153.887 156.2 154.587 156.2 155.36V160.98C156.2 161.207 156.12 161.4 155.96 161.56C155.813 161.72 155.627 161.8 155.4 161.8C155.173 161.8 154.98 161.72 154.82 161.56C154.673 161.4 154.6 161.207 154.6 160.98V155.4C154.6 154.893 154.52 154.44 154.36 154.04C154.213 153.627 153.96 153.3 153.6 153.06C153.253 152.807 152.773 152.68 152.16 152.68C151.6 152.68 151.087 152.807 150.62 153.06C150.153 153.3 149.78 153.627 149.5 154.04C149.22 154.44 149.08 154.893 149.08 155.4V160.98C149.08 161.207 149 161.4 148.84 161.56C148.693 161.72 148.507 161.8 148.28 161.8C148.053 161.8 147.86 161.72 147.7 161.56C147.553 161.4 147.48 161.207 147.48 160.98V152.26C147.48 152.033 147.553 151.847 147.7 151.7C147.86 151.54 148.053 151.46 148.28 151.46C148.52 151.46 148.713 151.54 148.86 151.7C149.007 151.847 149.08 152.033 149.08 152.26V153.68L148.68 154.12C148.747 153.773 148.9 153.427 149.14 153.08C149.38 152.72 149.68 152.4 150.04 152.12C150.4 151.84 150.8 151.62 151.24 151.46C151.68 151.287 152.14 151.2 152.62 151.2Z" fill="black"/>
<path d="M164.16 151.3C165.04 151.3 165.733 151.493 166.24 151.88C166.76 152.253 167.126 152.76 167.34 153.4C167.566 154.027 167.68 154.727 167.68 155.5V160.98C167.68 161.207 167.6 161.4 167.44 161.56C167.293 161.72 167.106 161.8 166.88 161.8C166.653 161.8 166.46 161.72 166.3 161.56C166.153 161.4 166.08 161.207 166.08 160.98V155.5C166.08 154.993 166.006 154.54 165.86 154.14C165.713 153.727 165.466 153.4 165.12 153.16C164.786 152.907 164.326 152.78 163.74 152.78C163.193 152.78 162.693 152.907 162.24 153.16C161.786 153.4 161.426 153.727 161.16 154.14C160.893 154.54 160.76 154.993 160.76 155.5V160.98C160.76 161.207 160.68 161.4 160.52 161.56C160.373 161.72 160.186 161.8 159.96 161.8C159.733 161.8 159.54 161.72 159.38 161.56C159.233 161.4 159.16 161.207 159.16 160.98V147.8C159.16 147.573 159.233 147.387 159.38 147.24C159.54 147.08 159.733 147 159.96 147C160.2 147 160.393 147.08 160.54 147.24C160.686 147.387 160.76 147.573 160.76 147.8V153.78L160.36 154.22C160.426 153.873 160.573 153.527 160.8 153.18C161.026 152.82 161.313 152.5 161.66 152.22C162.006 151.94 162.393 151.72 162.82 151.56C163.246 151.387 163.693 151.3 164.16 151.3Z" fill="black"/>
<path d="M179.164 151.36C179.391 151.36 179.577 151.44 179.724 151.6C179.884 151.747 179.964 151.933 179.964 152.16V160.98C179.964 161.207 179.884 161.4 179.724 161.56C179.577 161.72 179.391 161.8 179.164 161.8C178.924 161.8 178.731 161.72 178.584 161.56C178.437 161.4 178.364 161.207 178.364 160.98V159.08L178.744 159.04C178.744 159.333 178.644 159.653 178.444 160C178.244 160.347 177.971 160.673 177.624 160.98C177.277 161.273 176.864 161.52 176.384 161.72C175.917 161.907 175.411 162 174.864 162C173.957 162 173.144 161.767 172.424 161.3C171.704 160.82 171.131 160.173 170.704 159.36C170.291 158.547 170.084 157.62 170.084 156.58C170.084 155.527 170.291 154.6 170.704 153.8C171.131 152.987 171.704 152.353 172.424 151.9C173.144 151.433 173.944 151.2 174.824 151.2C175.397 151.2 175.931 151.293 176.424 151.48C176.917 151.667 177.344 151.92 177.704 152.24C178.077 152.56 178.364 152.913 178.564 153.3C178.777 153.687 178.884 154.073 178.884 154.46L178.364 154.34V152.16C178.364 151.933 178.437 151.747 178.584 151.6C178.731 151.44 178.924 151.36 179.164 151.36ZM175.044 160.52C175.711 160.52 176.297 160.347 176.804 160C177.324 159.653 177.724 159.187 178.004 158.6C178.297 158 178.444 157.327 178.444 156.58C178.444 155.847 178.297 155.187 178.004 154.6C177.724 154 177.324 153.533 176.804 153.2C176.297 152.853 175.711 152.68 175.044 152.68C174.391 152.68 173.804 152.847 173.284 153.18C172.777 153.513 172.377 153.973 172.084 154.56C171.791 155.147 171.644 155.82 171.644 156.58C171.644 157.327 171.784 158 172.064 158.6C172.357 159.187 172.757 159.653 173.264 160C173.784 160.347 174.377 160.52 175.044 160.52Z" fill="black"/>
<path d="M188.069 151.2C188.976 151.2 189.689 151.387 190.209 151.76C190.729 152.133 191.096 152.633 191.309 153.26C191.536 153.887 191.649 154.587 191.649 155.36V160.98C191.649 161.207 191.569 161.4 191.409 161.56C191.263 161.72 191.076 161.8 190.849 161.8C190.623 161.8 190.429 161.72 190.269 161.56C190.123 161.4 190.049 161.207 190.049 160.98V155.4C190.049 154.893 189.969 154.44 189.809 154.04C189.663 153.627 189.409 153.3 189.049 153.06C188.703 152.807 188.223 152.68 187.609 152.68C187.049 152.68 186.536 152.807 186.069 153.06C185.603 153.3 185.229 153.627 184.949 154.04C184.669 154.44 184.529 154.893 184.529 155.4V160.98C184.529 161.207 184.449 161.4 184.289 161.56C184.143 161.72 183.956 161.8 183.729 161.8C183.503 161.8 183.309 161.72 183.149 161.56C183.003 161.4 182.929 161.207 182.929 160.98V152.26C182.929 152.033 183.003 151.847 183.149 151.7C183.309 151.54 183.503 151.46 183.729 151.46C183.969 151.46 184.163 151.54 184.309 151.7C184.456 151.847 184.529 152.033 184.529 152.26V153.68L184.129 154.12C184.196 153.773 184.349 153.427 184.589 153.08C184.829 152.72 185.129 152.4 185.489 152.12C185.849 151.84 186.249 151.62 186.689 151.46C187.129 151.287 187.589 151.2 188.069 151.2Z" fill="black"/>
<path d="M199.209 151.2C199.889 151.2 200.502 151.273 201.049 151.42C201.596 151.567 202.029 151.767 202.349 152.02C202.669 152.273 202.829 152.56 202.829 152.88C202.829 153.053 202.769 153.22 202.649 153.38C202.529 153.54 202.369 153.62 202.169 153.62C201.982 153.62 201.829 153.587 201.709 153.52C201.602 153.453 201.496 153.367 201.389 153.26C201.296 153.153 201.162 153.06 200.989 152.98C200.829 152.887 200.596 152.813 200.289 152.76C199.982 152.707 199.676 152.68 199.369 152.68C198.636 152.68 197.989 152.853 197.429 153.2C196.882 153.547 196.449 154.013 196.129 154.6C195.809 155.187 195.649 155.853 195.649 156.6C195.649 157.347 195.802 158.013 196.109 158.6C196.416 159.187 196.842 159.653 197.389 160C197.936 160.347 198.569 160.52 199.289 160.52C199.756 160.52 200.129 160.48 200.409 160.4C200.689 160.32 200.922 160.227 201.109 160.12C201.349 159.987 201.529 159.853 201.649 159.72C201.782 159.587 201.956 159.52 202.169 159.52C202.396 159.52 202.569 159.593 202.689 159.74C202.822 159.887 202.889 160.067 202.889 160.28C202.889 160.52 202.722 160.773 202.389 161.04C202.056 161.307 201.602 161.533 201.029 161.72C200.469 161.907 199.829 162 199.109 162C198.096 162 197.209 161.767 196.449 161.3C195.689 160.82 195.096 160.173 194.669 159.36C194.256 158.533 194.049 157.613 194.049 156.6C194.049 155.587 194.262 154.673 194.689 153.86C195.129 153.047 195.736 152.4 196.509 151.92C197.282 151.44 198.182 151.2 199.209 151.2Z" fill="black"/>
<path d="M206.52 160.98C206.52 161.207 206.44 161.4 206.28 161.56C206.133 161.72 205.947 161.8 205.72 161.8C205.48 161.8 205.287 161.72 205.14 161.56C204.993 161.4 204.92 161.207 204.92 160.98V152.1C204.92 151.873 204.993 151.687 205.14 151.54C205.3 151.38 205.493 151.3 205.72 151.3C205.947 151.3 206.133 151.38 206.28 151.54C206.44 151.687 206.52 151.873 206.52 152.1V160.98ZM205.72 149.96C205.387 149.96 205.14 149.893 204.98 149.76C204.82 149.627 204.74 149.42 204.74 149.14V148.86C204.74 148.58 204.827 148.373 205 148.24C205.173 148.107 205.42 148.04 205.74 148.04C206.06 148.04 206.3 148.107 206.46 148.24C206.62 148.373 206.7 148.58 206.7 148.86V149.14C206.7 149.42 206.613 149.627 206.44 149.76C206.28 149.893 206.04 149.96 205.72 149.96Z" fill="black"/>
<path d="M214.534 151.2C215.441 151.2 216.154 151.387 216.674 151.76C217.194 152.133 217.561 152.633 217.774 153.26C218.001 153.887 218.114 154.587 218.114 155.36V160.98C218.114 161.207 218.034 161.4 217.874 161.56C217.727 161.72 217.541 161.8 217.314 161.8C217.087 161.8 216.894 161.72 216.734 161.56C216.587 161.4 216.514 161.207 216.514 160.98V155.4C216.514 154.893 216.434 154.44 216.274 154.04C216.127 153.627 215.874 153.3 215.514 153.06C215.167 152.807 214.687 152.68 214.074 152.68C213.514 152.68 213.001 152.807 212.534 153.06C212.067 153.3 211.694 153.627 211.414 154.04C211.134 154.44 210.994 154.893 210.994 155.4V160.98C210.994 161.207 210.914 161.4 210.754 161.56C210.607 161.72 210.421 161.8 210.194 161.8C209.967 161.8 209.774 161.72 209.614 161.56C209.467 161.4 209.394 161.207 209.394 160.98V152.26C209.394 152.033 209.467 151.847 209.614 151.7C209.774 151.54 209.967 151.46 210.194 151.46C210.434 151.46 210.627 151.54 210.774 151.7C210.921 151.847 210.994 152.033 210.994 152.26V153.68L210.594 154.12C210.661 153.773 210.814 153.427 211.054 153.08C211.294 152.72 211.594 152.4 211.954 152.12C212.314 151.84 212.714 151.62 213.154 151.46C213.594 151.287 214.054 151.2 214.534 151.2Z" fill="black"/>
<path d="M225.414 151.2C225.987 151.2 226.52 151.3 227.014 151.5C227.507 151.687 227.934 151.933 228.294 152.24C228.667 152.547 228.954 152.867 229.154 153.2C229.367 153.533 229.474 153.847 229.474 154.14L229.094 153.9V152.16C229.094 151.933 229.167 151.747 229.314 151.6C229.46 151.44 229.654 151.36 229.894 151.36C230.12 151.36 230.307 151.44 230.454 151.6C230.614 151.747 230.694 151.933 230.694 152.16V160.92C230.694 162.013 230.46 162.92 229.994 163.64C229.54 164.36 228.927 164.9 228.154 165.26C227.38 165.62 226.514 165.8 225.554 165.8C225.154 165.8 224.714 165.747 224.234 165.64C223.754 165.533 223.327 165.4 222.954 165.24C222.58 165.093 222.34 164.94 222.234 164.78C222.034 164.647 221.907 164.493 221.854 164.32C221.814 164.16 221.847 164.007 221.954 163.86C222.074 163.673 222.227 163.58 222.414 163.58C222.614 163.58 222.86 163.64 223.154 163.76C223.274 163.8 223.46 163.867 223.714 163.96C223.98 164.053 224.274 164.133 224.594 164.2C224.927 164.28 225.254 164.32 225.574 164.32C226.707 164.32 227.574 164.02 228.174 163.42C228.787 162.833 229.094 162.053 229.094 161.08V159.22L229.314 159.32C229.234 159.693 229.067 160.04 228.814 160.36C228.574 160.68 228.274 160.967 227.914 161.22C227.567 161.46 227.18 161.653 226.754 161.8C226.327 161.933 225.894 162 225.454 162C224.52 162 223.68 161.767 222.934 161.3C222.187 160.833 221.594 160.193 221.154 159.38C220.727 158.567 220.514 157.64 220.514 156.6C220.514 155.547 220.727 154.613 221.154 153.8C221.594 152.987 222.18 152.353 222.914 151.9C223.661 151.433 224.494 151.2 225.414 151.2ZM225.614 152.68C224.934 152.68 224.32 152.853 223.774 153.2C223.24 153.533 222.82 153.993 222.514 154.58C222.22 155.167 222.074 155.84 222.074 156.6C222.074 157.333 222.22 158 222.514 158.6C222.82 159.187 223.24 159.653 223.774 160C224.32 160.347 224.934 160.52 225.614 160.52C226.307 160.52 226.92 160.353 227.454 160.02C227.987 159.673 228.407 159.207 228.714 158.62C229.02 158.033 229.174 157.36 229.174 156.6C229.174 155.827 229.02 155.147 228.714 154.56C228.407 153.973 227.987 153.513 227.454 153.18C226.92 152.847 226.307 152.68 225.614 152.68Z" fill="black"/>
<path d="M238.76 151.52H243.46C243.673 151.52 243.846 151.593 243.98 151.74C244.126 151.887 244.2 152.06 244.2 152.26C244.2 152.473 244.126 152.653 243.98 152.8C243.846 152.933 243.673 153 243.46 153H238.76C238.56 153 238.386 152.927 238.24 152.78C238.093 152.633 238.02 152.453 238.02 152.24C238.02 152.04 238.093 151.873 238.24 151.74C238.386 151.593 238.56 151.52 238.76 151.52ZM240.86 148.8C241.086 148.8 241.273 148.88 241.42 149.04C241.566 149.187 241.64 149.373 241.64 149.6V159.26C241.64 159.58 241.686 159.82 241.78 159.98C241.873 160.14 241.993 160.253 242.14 160.32C242.3 160.373 242.453 160.4 242.6 160.4C242.733 160.4 242.846 160.38 242.94 160.34C243.046 160.287 243.166 160.26 243.3 160.26C243.433 160.26 243.553 160.327 243.66 160.46C243.78 160.58 243.84 160.74 243.84 160.94C243.84 161.18 243.7 161.387 243.42 161.56C243.14 161.72 242.826 161.8 242.48 161.8C242.293 161.8 242.06 161.787 241.78 161.76C241.513 161.733 241.246 161.647 240.98 161.5C240.713 161.353 240.486 161.113 240.3 160.78C240.126 160.433 240.04 159.953 240.04 159.34V149.6C240.04 149.373 240.12 149.187 240.28 149.04C240.44 148.88 240.633 148.8 240.86 148.8Z" fill="black"/>
<path d="M251.425 151.3C252.305 151.3 252.999 151.493 253.505 151.88C254.025 152.253 254.392 152.76 254.605 153.4C254.832 154.027 254.945 154.727 254.945 155.5V160.98C254.945 161.207 254.865 161.4 254.705 161.56C254.559 161.72 254.372 161.8 254.145 161.8C253.919 161.8 253.725 161.72 253.565 161.56C253.419 161.4 253.345 161.207 253.345 160.98V155.5C253.345 154.993 253.272 154.54 253.125 154.14C252.979 153.727 252.732 153.4 252.385 153.16C252.052 152.907 251.592 152.78 251.005 152.78C250.459 152.78 249.959 152.907 249.505 153.16C249.052 153.4 248.692 153.727 248.425 154.14C248.159 154.54 248.025 154.993 248.025 155.5V160.98C248.025 161.207 247.945 161.4 247.785 161.56C247.639 161.72 247.452 161.8 247.225 161.8C246.999 161.8 246.805 161.72 246.645 161.56C246.499 161.4 246.425 161.207 246.425 160.98V147.8C246.425 147.573 246.499 147.387 246.645 147.24C246.805 147.08 246.999 147 247.225 147C247.465 147 247.659 147.08 247.805 147.24C247.952 147.387 248.025 147.573 248.025 147.8V153.78L247.625 154.22C247.692 153.873 247.839 153.527 248.065 153.18C248.292 152.82 248.579 152.5 248.925 152.22C249.272 151.94 249.659 151.72 250.085 151.56C250.512 151.387 250.959 151.3 251.425 151.3Z" fill="black"/>
<path d="M262.69 162C261.623 162 260.69 161.773 259.89 161.32C259.09 160.867 258.463 160.247 258.01 159.46C257.57 158.66 257.35 157.74 257.35 156.7C257.35 155.54 257.576 154.553 258.03 153.74C258.496 152.913 259.096 152.287 259.83 151.86C260.576 151.42 261.363 151.2 262.19 151.2C262.803 151.2 263.396 151.313 263.97 151.54C264.543 151.767 265.05 152.1 265.49 152.54C265.93 152.967 266.283 153.487 266.55 154.1C266.816 154.7 266.956 155.373 266.97 156.12C266.97 156.333 266.89 156.513 266.73 156.66C266.57 156.807 266.383 156.88 266.17 156.88H258.27L257.91 155.5H265.61L265.29 155.78V155.34C265.236 154.793 265.05 154.327 264.73 153.94C264.423 153.54 264.043 153.233 263.59 153.02C263.15 152.807 262.683 152.7 262.19 152.7C261.79 152.7 261.39 152.773 260.99 152.92C260.603 153.053 260.25 153.28 259.93 153.6C259.623 153.907 259.37 154.307 259.17 154.8C258.983 155.293 258.89 155.887 258.89 156.58C258.89 157.353 259.043 158.033 259.35 158.62C259.67 159.207 260.11 159.673 260.67 160.02C261.23 160.353 261.883 160.52 262.63 160.52C263.096 160.52 263.503 160.46 263.85 160.34C264.196 160.22 264.496 160.073 264.75 159.9C265.003 159.713 265.216 159.527 265.39 159.34C265.563 159.22 265.73 159.16 265.89 159.16C266.09 159.16 266.25 159.227 266.37 159.36C266.503 159.493 266.57 159.653 266.57 159.84C266.57 160.067 266.463 160.267 266.25 160.44C265.876 160.853 265.37 161.22 264.73 161.54C264.09 161.847 263.41 162 262.69 162Z" fill="black"/>
<path d="M270.915 160.98C270.915 161.207 270.835 161.4 270.675 161.56C270.528 161.72 270.341 161.8 270.115 161.8C269.875 161.8 269.681 161.72 269.535 161.56C269.388 161.4 269.315 161.207 269.315 160.98V152.1C269.315 151.873 269.388 151.687 269.535 151.54C269.695 151.38 269.888 151.3 270.115 151.3C270.341 151.3 270.528 151.38 270.675 151.54C270.835 151.687 270.915 151.873 270.915 152.1V160.98ZM270.115 149.96C269.781 149.96 269.535 149.893 269.375 149.76C269.215 149.627 269.135 149.42 269.135 149.14V148.86C269.135 148.58 269.221 148.373 269.395 148.24C269.568 148.107 269.815 148.04 270.135 148.04C270.455 148.04 270.695 148.107 270.855 148.24C271.015 148.373 271.095 148.58 271.095 148.86V149.14C271.095 149.42 271.008 149.627 270.835 149.76C270.675 149.893 270.435 149.96 270.115 149.96Z" fill="black"/>
<path d="M274.589 161.8C274.362 161.8 274.169 161.72 274.009 161.56C273.862 161.4 273.789 161.207 273.789 160.98V152.26C273.789 152.033 273.862 151.847 274.009 151.7C274.169 151.54 274.362 151.46 274.589 151.46C274.829 151.46 275.022 151.54 275.169 151.7C275.315 151.847 275.389 152.033 275.389 152.26V154.9L275.149 154.48C275.229 154.067 275.369 153.667 275.569 153.28C275.782 152.88 276.049 152.527 276.369 152.22C276.689 151.9 277.055 151.653 277.469 151.48C277.882 151.293 278.335 151.2 278.829 151.2C279.122 151.2 279.389 151.273 279.629 151.42C279.882 151.553 280.009 151.747 280.009 152C280.009 152.28 279.935 152.487 279.789 152.62C279.642 152.753 279.475 152.82 279.289 152.82C279.115 152.82 278.949 152.787 278.789 152.72C278.629 152.64 278.429 152.6 278.189 152.6C277.855 152.6 277.522 152.693 277.189 152.88C276.869 153.053 276.569 153.307 276.289 153.64C276.022 153.973 275.802 154.353 275.629 154.78C275.469 155.193 275.389 155.64 275.389 156.12V160.98C275.389 161.207 275.309 161.4 275.149 161.56C275.002 161.72 274.815 161.8 274.589 161.8Z" fill="black"/>
<path d="M292.424 151.3C293.33 151.3 294.144 151.527 294.864 151.98C295.584 152.433 296.15 153.06 296.564 153.86C296.99 154.66 297.204 155.58 297.204 156.62C297.204 157.647 296.99 158.567 296.564 159.38C296.15 160.18 295.584 160.813 294.864 161.28C294.157 161.733 293.357 161.96 292.464 161.96C291.97 161.96 291.504 161.887 291.064 161.74C290.637 161.58 290.244 161.38 289.884 161.14C289.537 160.887 289.244 160.607 289.004 160.3C288.764 159.98 288.59 159.667 288.484 159.36L288.924 159.08V164.98C288.924 165.207 288.85 165.4 288.704 165.56C288.557 165.72 288.364 165.8 288.124 165.8C287.897 165.8 287.704 165.72 287.544 165.56C287.397 165.413 287.324 165.22 287.324 164.98V152.2C287.324 151.973 287.397 151.787 287.544 151.64C287.704 151.48 287.897 151.4 288.124 151.4C288.364 151.4 288.557 151.48 288.704 151.64C288.85 151.787 288.924 151.973 288.924 152.2V153.98L288.624 153.82C288.717 153.487 288.877 153.167 289.104 152.86C289.344 152.553 289.63 152.287 289.964 152.06C290.31 151.82 290.69 151.633 291.104 151.5C291.53 151.367 291.97 151.3 292.424 151.3ZM292.244 152.78C291.577 152.78 290.984 152.947 290.464 153.28C289.957 153.613 289.557 154.067 289.264 154.64C288.984 155.213 288.844 155.873 288.844 156.62C288.844 157.353 288.984 158.013 289.264 158.6C289.557 159.187 289.957 159.647 290.464 159.98C290.984 160.313 291.577 160.48 292.244 160.48C292.91 160.48 293.497 160.313 294.004 159.98C294.51 159.647 294.91 159.187 295.204 158.6C295.497 158.013 295.644 157.353 295.644 156.62C295.644 155.873 295.497 155.213 295.204 154.64C294.91 154.067 294.51 153.613 294.004 153.28C293.497 152.947 292.91 152.78 292.244 152.78Z" fill="black"/>
<path d="M300.409 161.8C300.182 161.8 299.989 161.72 299.829 161.56C299.682 161.4 299.609 161.207 299.609 160.98V152.26C299.609 152.033 299.682 151.847 299.829 151.7C299.989 151.54 300.182 151.46 300.409 151.46C300.649 151.46 300.842 151.54 300.989 151.7C301.136 151.847 301.209 152.033 301.209 152.26V154.9L300.969 154.48C301.049 154.067 301.189 153.667 301.389 153.28C301.602 152.88 301.869 152.527 302.189 152.22C302.509 151.9 302.876 151.653 303.289 151.48C303.702 151.293 304.156 151.2 304.649 151.2C304.942 151.2 305.209 151.273 305.449 151.42C305.702 151.553 305.829 151.747 305.829 152C305.829 152.28 305.756 152.487 305.609 152.62C305.462 152.753 305.296 152.82 305.109 152.82C304.936 152.82 304.769 152.787 304.609 152.72C304.449 152.64 304.249 152.6 304.009 152.6C303.676 152.6 303.342 152.693 303.009 152.88C302.689 153.053 302.389 153.307 302.109 153.64C301.842 153.973 301.622 154.353 301.449 154.78C301.289 155.193 301.209 155.64 301.209 156.12V160.98C301.209 161.207 301.129 161.4 300.969 161.56C300.822 161.72 300.636 161.8 300.409 161.8Z" fill="black"/>
<path d="M317.007 156.6C317.007 157.64 316.774 158.567 316.307 159.38C315.854 160.193 315.234 160.833 314.447 161.3C313.674 161.767 312.8 162 311.827 162C310.854 162 309.974 161.767 309.187 161.3C308.4 160.833 307.774 160.193 307.307 159.38C306.854 158.567 306.627 157.64 306.627 156.6C306.627 155.56 306.854 154.633 307.307 153.82C307.774 153.007 308.4 152.367 309.187 151.9C309.974 151.433 310.854 151.2 311.827 151.2C312.8 151.2 313.674 151.433 314.447 151.9C315.234 152.367 315.854 153.007 316.307 153.82C316.774 154.633 317.007 155.56 317.007 156.6ZM315.407 156.6C315.407 155.827 315.247 155.147 314.927 154.56C314.62 153.973 314.194 153.513 313.647 153.18C313.114 152.847 312.507 152.68 311.827 152.68C311.147 152.68 310.534 152.847 309.987 153.18C309.454 153.513 309.027 153.973 308.707 154.56C308.387 155.147 308.227 155.827 308.227 156.6C308.227 157.36 308.387 158.033 308.707 158.62C309.027 159.207 309.454 159.673 309.987 160.02C310.534 160.353 311.147 160.52 311.827 160.52C312.507 160.52 313.114 160.353 313.647 160.02C314.194 159.673 314.62 159.207 314.927 158.62C315.247 158.033 315.407 157.36 315.407 156.6Z" fill="black"/>
<path d="M327.934 147C328.16 147 328.347 147.08 328.494 147.24C328.654 147.387 328.734 147.573 328.734 147.8V160.98C328.734 161.207 328.654 161.4 328.494 161.56C328.347 161.72 328.16 161.8 327.934 161.8C327.694 161.8 327.5 161.72 327.354 161.56C327.207 161.4 327.134 161.207 327.134 160.98V159.08L327.514 158.94C327.514 159.26 327.414 159.6 327.214 159.96C327.014 160.307 326.74 160.633 326.394 160.94C326.047 161.247 325.634 161.5 325.154 161.7C324.687 161.9 324.18 162 323.634 162C322.74 162 321.927 161.767 321.194 161.3C320.474 160.833 319.9 160.193 319.474 159.38C319.06 158.567 318.854 157.64 318.854 156.6C318.854 155.547 319.06 154.613 319.474 153.8C319.9 152.987 320.474 152.353 321.194 151.9C321.914 151.433 322.714 151.2 323.594 151.2C324.154 151.2 324.68 151.293 325.174 151.48C325.667 151.667 326.094 151.92 326.454 152.24C326.827 152.56 327.12 152.913 327.334 153.3C327.547 153.687 327.654 154.073 327.654 154.46L327.134 154.34V147.8C327.134 147.573 327.207 147.387 327.354 147.24C327.5 147.08 327.694 147 327.934 147ZM323.814 160.52C324.48 160.52 325.067 160.353 325.574 160.02C326.094 159.673 326.494 159.207 326.774 158.62C327.067 158.02 327.214 157.347 327.214 156.6C327.214 155.84 327.067 155.167 326.774 154.58C326.494 153.993 326.094 153.533 325.574 153.2C325.067 152.853 324.48 152.68 323.814 152.68C323.16 152.68 322.574 152.853 322.054 153.2C321.547 153.533 321.147 153.993 320.854 154.58C320.56 155.167 320.414 155.84 320.414 156.6C320.414 157.333 320.56 158 320.854 158.6C321.147 159.187 321.547 159.653 322.054 160C322.574 160.347 323.16 160.52 323.814 160.52Z" fill="black"/>
<path d="M339.751 151.46C339.991 151.46 340.185 151.54 340.331 151.7C340.478 151.847 340.551 152.033 340.551 152.26V157.72C340.551 159.067 340.171 160.113 339.411 160.86C338.665 161.593 337.618 161.96 336.271 161.96C334.938 161.96 333.891 161.593 333.131 160.86C332.385 160.113 332.011 159.067 332.011 157.72V152.26C332.011 152.033 332.085 151.847 332.231 151.7C332.391 151.54 332.585 151.46 332.811 151.46C333.051 151.46 333.245 151.54 333.391 151.7C333.538 151.847 333.611 152.033 333.611 152.26V157.72C333.611 158.627 333.845 159.313 334.311 159.78C334.778 160.247 335.431 160.48 336.271 160.48C337.138 160.48 337.798 160.247 338.251 159.78C338.718 159.313 338.951 158.627 338.951 157.72V152.26C338.951 152.033 339.025 151.847 339.171 151.7C339.331 151.54 339.525 151.46 339.751 151.46Z" fill="black"/>
<path d="M348.115 151.2C348.795 151.2 349.409 151.273 349.955 151.42C350.502 151.567 350.935 151.767 351.255 152.02C351.575 152.273 351.735 152.56 351.735 152.88C351.735 153.053 351.675 153.22 351.555 153.38C351.435 153.54 351.275 153.62 351.075 153.62C350.889 153.62 350.735 153.587 350.615 153.52C350.509 153.453 350.402 153.367 350.295 153.26C350.202 153.153 350.069 153.06 349.895 152.98C349.735 152.887 349.502 152.813 349.195 152.76C348.889 152.707 348.582 152.68 348.275 152.68C347.542 152.68 346.895 152.853 346.335 153.2C345.789 153.547 345.355 154.013 345.035 154.6C344.715 155.187 344.555 155.853 344.555 156.6C344.555 157.347 344.709 158.013 345.015 158.6C345.322 159.187 345.749 159.653 346.295 160C346.842 160.347 347.475 160.52 348.195 160.52C348.662 160.52 349.035 160.48 349.315 160.4C349.595 160.32 349.829 160.227 350.015 160.12C350.255 159.987 350.435 159.853 350.555 159.72C350.689 159.587 350.862 159.52 351.075 159.52C351.302 159.52 351.475 159.593 351.595 159.74C351.729 159.887 351.795 160.067 351.795 160.28C351.795 160.52 351.629 160.773 351.295 161.04C350.962 161.307 350.509 161.533 349.935 161.72C349.375 161.907 348.735 162 348.015 162C347.002 162 346.115 161.767 345.355 161.3C344.595 160.82 344.002 160.173 343.575 159.36C343.162 158.533 342.955 157.613 342.955 156.6C342.955 155.587 343.169 154.673 343.595 153.86C344.035 153.047 344.642 152.4 345.415 151.92C346.189 151.44 347.089 151.2 348.115 151.2Z" fill="black"/>
<path d="M353.486 151.52H358.186C358.4 151.52 358.573 151.593 358.706 151.74C358.853 151.887 358.926 152.06 358.926 152.26C358.926 152.473 358.853 152.653 358.706 152.8C358.573 152.933 358.4 153 358.186 153H353.486C353.286 153 353.113 152.927 352.966 152.78C352.82 152.633 352.746 152.453 352.746 152.24C352.746 152.04 352.82 151.873 352.966 151.74C353.113 151.593 353.286 151.52 353.486 151.52ZM355.586 148.8C355.813 148.8 356 148.88 356.146 149.04C356.293 149.187 356.366 149.373 356.366 149.6V159.26C356.366 159.58 356.413 159.82 356.506 159.98C356.6 160.14 356.72 160.253 356.866 160.32C357.026 160.373 357.18 160.4 357.326 160.4C357.46 160.4 357.573 160.38 357.666 160.34C357.773 160.287 357.893 160.26 358.026 160.26C358.16 160.26 358.28 160.327 358.386 160.46C358.506 160.58 358.566 160.74 358.566 160.94C358.566 161.18 358.426 161.387 358.146 161.56C357.866 161.72 357.553 161.8 357.206 161.8C357.02 161.8 356.786 161.787 356.506 161.76C356.24 161.733 355.973 161.647 355.706 161.5C355.44 161.353 355.213 161.113 355.026 160.78C354.853 160.433 354.766 159.953 354.766 159.34V149.6C354.766 149.373 354.846 149.187 355.006 149.04C355.166 148.88 355.36 148.8 355.586 148.8Z" fill="black"/>
<path d="M362.692 160.98C362.692 161.207 362.612 161.4 362.452 161.56C362.305 161.72 362.119 161.8 361.892 161.8C361.652 161.8 361.459 161.72 361.312 161.56C361.165 161.4 361.092 161.207 361.092 160.98V152.1C361.092 151.873 361.165 151.687 361.312 151.54C361.472 151.38 361.665 151.3 361.892 151.3C362.119 151.3 362.305 151.38 362.452 151.54C362.612 151.687 362.692 151.873 362.692 152.1V160.98ZM361.892 149.96C361.559 149.96 361.312 149.893 361.152 149.76C360.992 149.627 360.912 149.42 360.912 149.14V148.86C360.912 148.58 360.999 148.373 361.172 148.24C361.345 148.107 361.592 148.04 361.912 148.04C362.232 148.04 362.472 148.107 362.632 148.24C362.792 148.373 362.872 148.58 362.872 148.86V149.14C362.872 149.42 362.785 149.627 362.612 149.76C362.452 149.893 362.212 149.96 361.892 149.96Z" fill="black"/>
<path d="M365.566 151.28C365.726 151.28 365.879 151.327 366.026 151.42C366.173 151.5 366.279 151.62 366.346 151.78L369.666 159.58L369.346 159.74L372.726 151.8C372.873 151.44 373.119 151.267 373.466 151.28C373.666 151.28 373.839 151.347 373.986 151.48C374.133 151.613 374.206 151.78 374.206 151.98C374.206 152.06 374.193 152.14 374.166 152.22C374.153 152.287 374.133 152.347 374.106 152.4L370.246 161.28C370.099 161.613 369.866 161.787 369.546 161.8C369.373 161.813 369.206 161.78 369.046 161.7C368.899 161.607 368.793 161.467 368.726 161.28L364.866 152.42C364.839 152.367 364.813 152.307 364.786 152.24C364.773 152.173 364.766 152.093 364.766 152C364.766 151.827 364.833 151.667 364.966 151.52C365.113 151.36 365.313 151.28 365.566 151.28Z" fill="black"/>
<path d="M377.907 160.98C377.907 161.207 377.827 161.4 377.667 161.56C377.52 161.72 377.333 161.8 377.107 161.8C376.867 161.8 376.673 161.72 376.527 161.56C376.38 161.4 376.307 161.207 376.307 160.98V152.1C376.307 151.873 376.38 151.687 376.527 151.54C376.687 151.38 376.88 151.3 377.107 151.3C377.333 151.3 377.52 151.38 377.667 151.54C377.827 151.687 377.907 151.873 377.907 152.1V160.98ZM377.107 149.96C376.773 149.96 376.527 149.893 376.367 149.76C376.207 149.627 376.127 149.42 376.127 149.14V148.86C376.127 148.58 376.213 148.373 376.387 148.24C376.56 148.107 376.807 148.04 377.127 148.04C377.447 148.04 377.687 148.107 377.847 148.24C378.007 148.373 378.087 148.58 378.087 148.86V149.14C378.087 149.42 378 149.627 377.827 149.76C377.667 149.893 377.427 149.96 377.107 149.96Z" fill="black"/>
<path d="M380.381 151.52H385.081C385.294 151.52 385.468 151.593 385.601 151.74C385.748 151.887 385.821 152.06 385.821 152.26C385.821 152.473 385.748 152.653 385.601 152.8C385.468 152.933 385.294 153 385.081 153H380.381C380.181 153 380.008 152.927 379.861 152.78C379.714 152.633 379.641 152.453 379.641 152.24C379.641 152.04 379.714 151.873 379.861 151.74C380.008 151.593 380.181 151.52 380.381 151.52ZM382.481 148.8C382.708 148.8 382.894 148.88 383.041 149.04C383.188 149.187 383.261 149.373 383.261 149.6V159.26C383.261 159.58 383.308 159.82 383.401 159.98C383.494 160.14 383.614 160.253 383.761 160.32C383.921 160.373 384.074 160.4 384.221 160.4C384.354 160.4 384.468 160.38 384.561 160.34C384.668 160.287 384.788 160.26 384.921 160.26C385.054 160.26 385.174 160.327 385.281 160.46C385.401 160.58 385.461 160.74 385.461 160.94C385.461 161.18 385.321 161.387 385.041 161.56C384.761 161.72 384.448 161.8 384.101 161.8C383.914 161.8 383.681 161.787 383.401 161.76C383.134 161.733 382.868 161.647 382.601 161.5C382.334 161.353 382.108 161.113 381.921 160.78C381.748 160.433 381.661 159.953 381.661 159.34V149.6C381.661 149.373 381.741 149.187 381.901 149.04C382.061 148.88 382.254 148.8 382.481 148.8Z" fill="black"/>
<path d="M395.786 151.3C396.013 151.3 396.2 151.38 396.346 151.54C396.507 151.687 396.586 151.873 396.586 152.1V160.82C396.586 161.94 396.366 162.867 395.926 163.6C395.486 164.347 394.893 164.9 394.146 165.26C393.413 165.62 392.58 165.8 391.646 165.8C391.126 165.8 390.626 165.747 390.146 165.64C389.666 165.533 389.273 165.393 388.966 165.22C388.713 165.1 388.533 164.947 388.426 164.76C388.333 164.587 388.32 164.4 388.387 164.2C388.48 163.96 388.613 163.793 388.786 163.7C388.973 163.607 389.166 163.607 389.366 163.7C389.58 163.793 389.887 163.92 390.286 164.08C390.7 164.253 391.16 164.34 391.667 164.34C392.36 164.34 392.953 164.207 393.447 163.94C393.94 163.673 394.32 163.28 394.586 162.76C394.853 162.253 394.987 161.62 394.987 160.86V159.44L395.227 159.94C395.013 160.353 394.726 160.713 394.366 161.02C394.007 161.327 393.593 161.567 393.126 161.74C392.66 161.913 392.146 162 391.586 162C390.826 162 390.18 161.84 389.646 161.52C389.126 161.187 388.727 160.733 388.447 160.16C388.18 159.573 388.047 158.9 388.047 158.14V152.1C388.047 151.873 388.12 151.687 388.267 151.54C388.427 151.38 388.62 151.3 388.846 151.3C389.086 151.3 389.28 151.38 389.426 151.54C389.573 151.687 389.646 151.873 389.646 152.1V157.78C389.646 158.687 389.846 159.373 390.246 159.84C390.646 160.293 391.267 160.52 392.107 160.52C392.64 160.52 393.12 160.4 393.547 160.16C393.987 159.92 394.333 159.593 394.586 159.18C394.853 158.753 394.987 158.287 394.987 157.78V152.1C394.987 151.873 395.06 151.687 395.207 151.54C395.353 151.38 395.547 151.3 395.786 151.3Z" fill="black"/>
<path d="M400.03 161.78C399.75 161.78 399.53 161.7 399.37 161.54C399.224 161.38 399.15 161.16 399.15 160.88V160.48C399.15 160.187 399.224 159.96 399.37 159.8C399.53 159.64 399.75 159.56 400.03 159.56H400.19C400.484 159.56 400.704 159.64 400.85 159.8C400.997 159.96 401.07 160.187 401.07 160.48V160.88C401.07 161.16 400.997 161.38 400.85 161.54C400.704 161.7 400.484 161.78 400.19 161.78H400.03Z" fill="black"/>
</svg>
