<svg width="39" height="39" viewBox="0 0 39 39" fill="none" xmlns="http://www.w3.org/2000/svg">
<g filter="url(#filter0_d_303_22)">
<path d="M4 18.5C4 9.93959 10.9396 3 19.5 3V3C28.0604 3 35 9.93959 35 18.5V18.5C35 27.0604 28.0604 34 19.5 34V34C10.9396 34 4 27.0604 4 18.5V18.5Z" fill="white" shape-rendering="crispEdges"/>
<path d="M25.5 23.5H24V16.9375L19.5 19.75L15 16.9375V23.5H13.5V14.5H14.4L19.5 17.6875L24.6 14.5H25.5M25.5 13H13.5C12.6675 13 12 13.6675 12 14.5V23.5C12 23.8978 12.158 24.2794 12.4393 24.5607C12.7206 24.842 13.1022 25 13.5 25H25.5C25.8978 25 26.2794 24.842 26.5607 24.5607C26.842 24.2794 27 23.8978 27 23.5V14.5C27 13.6675 26.325 13 25.5 13Z" fill="#FF2480"/>
</g>
<defs>
<filter id="filter0_d_303_22" x="0" y="0" width="39" height="39" filterUnits="userSpaceOnUse" color-interpolation-filters="sRGB">
<feFlood flood-opacity="0" result="BackgroundImageFix"/>
<feColorMatrix in="SourceAlpha" type="matrix" values="0 0 0 0 0 0 0 0 0 0 0 0 0 0 0 0 0 0 127 0" result="hardAlpha"/>
<feOffset dy="1"/>
<feGaussianBlur stdDeviation="2"/>
<feComposite in2="hardAlpha" operator="out"/>
<feColorMatrix type="matrix" values="0 0 0 0 0 0 0 0 0 0 0 0 0 0 0 0 0 0 0.25 0"/>
<feBlend mode="normal" in2="BackgroundImageFix" result="effect1_dropShadow_303_22"/>
<feBlend mode="normal" in="SourceGraphic" in2="effect1_dropShadow_303_22" result="shape"/>
</filter>
</defs>
</svg>
