<svg width="517" height="227" viewBox="0 0 517 227" fill="none" xmlns="http://www.w3.org/2000/svg">
<g filter="url(#filter0_d_4_3)">
<path d="M19 12H503.079V206.186H19V12Z" fill="#E1E9E4"/>
</g>
<g filter="url(#filter1_d_4_3)">
<path fill-rule="evenodd" clip-rule="evenodd" d="M490.602 24.4882H31.4763V193.698H490.602V24.4882ZM19 12V206.186H503.079V12H19Z" fill="black"/>
</g>
<path d="M55.4182 101.241L55.3335 92.4962C58.0461 92.7248 60.3067 92.6391 62.1151 92.239C63.9236 91.7817 65.3364 90.9815 66.3537 89.8383C67.4275 88.638 68.1904 87.1519 68.6425 85.38C69.1511 83.5509 69.4055 81.436 69.4055 79.0354C69.4055 75.8345 69.1229 73.3196 68.5577 71.4905C68.0491 69.6043 67.2014 68.261 66.0146 67.4608C64.8843 66.6606 63.3019 66.2605 61.2674 66.2605C60.5328 66.2605 59.685 66.2891 58.7243 66.3462C57.8201 66.4034 56.8593 66.5177 55.8421 66.6892C54.8248 66.8035 53.7793 66.9464 52.7056 67.1179L48.1279 58.2011C49.3712 58.144 50.6145 58.0868 51.8579 58.0297C53.1577 57.9154 54.401 57.8582 55.5878 57.8582C56.8311 57.801 57.9614 57.7725 58.9786 57.7725C63.8388 57.7725 67.8231 58.344 70.9313 59.4872C74.0961 60.6304 76.4415 62.7167 77.9673 65.7461C79.5497 68.7755 80.3409 73.1195 80.3409 78.7782C80.3409 84.3226 79.2954 88.7523 77.2044 92.0675C75.1699 95.3256 72.2594 97.669 68.473 99.098C64.743 100.527 60.3915 101.241 55.4182 101.241ZM48.3822 119.675C48.4388 117.389 48.4953 114.531 48.5518 111.101C48.6083 107.615 48.6366 103.956 48.6366 100.127C48.6931 96.2401 48.7213 92.5248 48.7213 88.981C48.7213 85.38 48.6648 81.6647 48.5518 77.8351C48.4953 73.9483 48.4388 70.2902 48.3822 66.8607C48.3257 63.374 48.241 60.4875 48.1279 58.2011L59.572 59.0585C59.5155 60.4875 59.459 62.1451 59.4025 64.0313C59.346 65.8604 59.2895 67.8323 59.2329 69.9472C59.2329 72.0621 59.2329 74.2341 59.2329 76.4633C59.2895 78.6353 59.3177 80.7787 59.3177 82.8936C59.3177 85.0085 59.3177 86.9804 59.3177 88.8095C59.3177 90.2384 59.3177 91.9246 59.3177 93.868C59.3177 95.8114 59.3177 97.8977 59.3177 100.127C59.3742 102.299 59.4025 104.499 59.4025 106.729C59.459 108.958 59.4872 111.13 59.4872 113.245C59.5438 115.302 59.6003 117.189 59.6568 118.903L48.3822 119.675Z" fill="black"/>
<path d="M110.002 102.699L109.917 93.9537C112.291 94.1824 114.354 94.0109 116.106 93.4393C117.858 92.8106 119.299 91.8675 120.429 90.61C121.616 89.2953 122.492 87.6949 123.057 85.8087C123.679 83.8653 123.989 81.7504 123.989 79.4641C123.989 76.3204 123.707 73.7768 123.142 71.8334C122.633 69.89 121.785 68.4897 120.599 67.6323C119.412 66.7178 117.829 66.2605 115.851 66.2605C114.778 66.2605 113.478 66.3462 111.952 66.5177C110.426 66.632 108.872 66.8321 107.289 67.1179L102.712 58.2011C103.955 58.144 105.198 58.0868 106.442 58.0297C107.742 57.9154 108.985 57.8582 110.172 57.8582C111.415 57.801 112.545 57.7725 113.563 57.7725C118.366 57.7725 122.322 58.4012 125.43 59.6587C128.595 60.859 130.969 63.031 132.551 66.1747C134.134 69.2613 134.925 73.6053 134.925 79.2069C134.925 83.2651 134.331 86.7804 133.145 89.7526C131.958 92.6677 130.262 95.0969 128.058 97.0403C125.911 98.9265 123.311 100.355 120.259 101.327C117.208 102.242 113.789 102.699 110.002 102.699ZM102.966 119.675C103.023 117.389 103.079 114.531 103.136 111.101C103.192 107.615 103.22 103.956 103.22 100.127C103.277 96.2401 103.305 92.5248 103.305 88.981C103.305 85.38 103.249 81.6647 103.136 77.8351C103.079 73.9483 103.023 70.2902 102.966 66.8607C102.91 63.374 102.825 60.4875 102.712 58.2011L114.156 59.0585C114.099 60.4875 114.043 62.1451 113.986 64.0313C113.93 65.8604 113.873 67.8323 113.817 69.9472C113.817 72.0621 113.817 74.2341 113.817 76.4633C113.873 78.6353 113.902 80.7787 113.902 82.8936C113.902 85.0085 113.902 86.9804 113.902 88.8095C113.902 90.6386 113.902 92.8106 113.902 95.3256C113.958 97.8405 113.986 100.527 113.986 103.385C114.043 106.186 114.071 108.929 114.071 111.616C114.128 114.302 114.184 116.731 114.241 118.903L102.966 119.675ZM126.702 119.761C125.798 117.131 124.809 114.531 123.735 111.959C122.718 109.329 121.616 106.7 120.429 104.071C119.299 101.384 118.084 98.6407 116.784 95.84L127.041 93.1821C128.228 95.9829 129.443 98.8408 130.686 101.756C131.986 104.614 133.371 107.5 134.84 110.415C136.309 113.33 137.892 116.36 139.587 119.504L126.702 119.761Z" fill="black"/>
<path d="M174.705 119.675C171.879 119.675 169.506 119.189 167.584 118.217C165.719 117.189 164.222 115.731 163.091 113.845C161.961 111.959 161.085 109.758 160.463 107.243C160.124 105.528 159.842 103.699 159.616 101.756C159.446 99.7553 159.305 97.669 159.192 95.497C159.135 93.2678 159.107 90.9815 159.107 88.638C159.107 87.0947 159.135 85.58 159.192 84.0939C159.248 82.5506 159.333 81.0645 159.446 79.6356C159.616 78.2066 159.785 76.8348 159.955 75.5201C160.181 74.1483 160.435 72.8623 160.718 71.662C161.735 67.7752 163.43 64.66 165.804 62.3166C168.234 59.9159 171.568 58.7156 175.807 58.7156C178.859 58.7156 181.345 59.2872 183.267 60.4303C185.245 61.5735 186.771 63.1739 187.844 65.2316C188.975 67.2322 189.822 69.6328 190.388 72.4336C190.84 74.7199 191.122 77.2635 191.235 80.0642C191.405 82.865 191.49 85.7515 191.49 88.7238C191.49 91.2387 191.405 93.6965 191.235 96.0972C191.122 98.4407 190.896 100.67 190.557 102.785C190.275 104.9 189.822 106.872 189.201 108.701C188.071 112.016 186.375 114.674 184.115 116.674C181.854 118.675 178.717 119.675 174.705 119.675ZM175.298 110.673C176.203 110.673 176.909 110.444 177.418 109.987C177.983 109.529 178.463 108.815 178.859 107.843C179.254 106.814 179.537 105.585 179.706 104.157C179.989 102.099 180.13 99.6696 180.13 96.8688C180.187 94.0681 180.215 91.2673 180.215 88.4665C180.215 86.0659 180.215 83.751 180.215 81.5218C180.215 79.2354 180.13 77.2635 179.961 75.6059C179.735 72.8623 179.283 70.8617 178.604 69.6042C177.983 68.2896 176.966 67.6323 175.553 67.6323C174.027 67.6323 172.897 68.3182 172.162 69.69C171.427 71.0618 170.947 73.1195 170.721 75.8631C170.608 76.7205 170.523 77.6922 170.466 78.7782C170.466 79.8642 170.438 81.0074 170.382 82.2077C170.382 83.408 170.382 84.6369 170.382 85.8944C170.382 87.1519 170.382 88.3808 170.382 89.5811C170.382 92.439 170.382 95.1827 170.382 97.8119C170.438 100.441 170.579 102.67 170.805 104.499C171.032 105.871 171.314 107.043 171.653 108.015C171.992 108.929 172.444 109.615 173.01 110.072C173.631 110.473 174.394 110.673 175.298 110.673Z" fill="black"/>
<path d="M227.005 120.189C226.158 120.189 225.197 120.161 224.123 120.104C223.049 120.104 221.947 120.047 220.817 119.932C219.687 119.875 218.585 119.789 217.511 119.675L222.173 111.273C223.078 111.444 224.038 111.587 225.056 111.701C226.073 111.816 227.062 111.901 228.023 111.959C228.983 111.959 229.775 111.959 230.396 111.959C232.487 111.959 234.126 111.473 235.313 110.501C236.5 109.472 237.319 107.986 237.771 106.043C238.28 104.042 238.562 101.584 238.619 98.6693C238.732 95.6971 238.789 92.2676 238.789 88.3808C238.789 84.7227 238.732 81.5789 238.619 78.9497C238.506 76.2632 238.195 74.034 237.687 72.2621C237.178 70.433 236.387 69.0898 235.313 68.2325C234.296 67.3179 232.855 66.8607 230.99 66.8607C229.916 66.8607 228.616 66.975 227.09 67.2036C225.621 67.3751 224.095 67.6323 222.513 67.9752L217.257 59.5729C219.461 59.1728 221.637 58.9156 223.784 58.8013C225.988 58.6298 227.91 58.5441 229.549 58.5441C233.787 58.5441 237.234 59.0871 239.891 60.1731C242.603 61.2591 244.694 63.0025 246.164 65.4031C247.689 67.8038 248.735 70.9189 249.3 74.7485C249.865 78.5781 250.148 83.2365 250.148 88.7238C250.148 93.2964 249.978 97.3261 249.639 100.813C249.3 104.242 248.679 107.186 247.774 109.644C246.87 112.102 245.57 114.102 243.875 115.645C242.179 117.189 239.947 118.332 237.178 119.075C234.409 119.818 231.018 120.189 227.005 120.189ZM217.511 119.675C217.568 117.389 217.624 114.531 217.681 111.101C217.737 107.615 217.765 103.956 217.765 100.127C217.822 96.2401 217.85 92.5248 217.85 88.981C217.85 85.8372 217.822 82.4363 217.765 78.7782C217.709 75.0629 217.624 71.5191 217.511 68.1467C217.455 64.7172 217.37 61.8593 217.257 59.5729L228.701 60.0016C228.701 61.8307 228.673 63.7169 228.616 65.6603C228.616 67.5466 228.588 69.5185 228.531 71.5762C228.531 73.5768 228.531 75.5773 228.531 77.5779C228.531 79.5784 228.503 81.5504 228.446 83.4938C228.446 85.38 228.446 87.2376 228.446 89.0667C228.446 90.4957 228.446 92.1818 228.446 94.1252C228.446 96.0686 228.446 98.1549 228.446 100.384C228.503 102.556 228.531 104.785 228.531 107.072C228.588 109.358 228.616 111.587 228.616 113.759C228.673 115.874 228.729 117.817 228.786 119.589L217.511 119.675Z" fill="black"/>
<path d="M289.815 119.589C287.159 119.589 284.927 119.189 283.118 118.389C281.31 117.589 279.841 116.446 278.71 114.959C277.637 113.416 276.761 111.587 276.082 109.472C275.574 107.7 275.178 105.728 274.896 103.556C274.613 101.384 274.415 99.0408 274.302 96.5259C274.246 94.0109 274.218 91.353 274.218 88.5523C274.218 86.7804 274.246 85.0656 274.302 83.408C274.359 81.6933 274.444 80.0642 274.557 78.521C274.726 76.9205 274.952 75.4344 275.235 74.0626C275.517 72.6336 275.828 71.2904 276.167 70.0329C277.298 66.4891 279.021 63.7169 281.338 61.7164C283.712 59.6587 286.99 58.6298 291.172 58.6298C294.902 58.6298 297.812 59.3443 299.903 60.7733C302.051 62.2022 303.577 64.2314 304.481 66.8607C305.385 69.4328 305.837 72.5479 305.837 76.2061C305.837 77.6922 305.752 79.2926 305.583 81.0074C305.47 82.665 305.3 84.4083 305.074 86.2374H294.393C294.563 84.4083 294.704 82.6364 294.817 80.9216C294.986 79.2069 295.071 77.635 295.071 76.2061C295.071 74.4341 294.93 72.8909 294.647 71.5762C294.421 70.2616 293.997 69.2613 293.376 68.5754C292.811 67.8323 292.019 67.4608 291.002 67.4608C289.307 67.4608 288.092 68.1467 287.357 69.5185C286.622 70.8332 286.114 72.6908 285.831 75.0915C285.662 76.4061 285.549 77.8636 285.492 79.4641C285.492 81.0645 285.492 82.7793 285.492 84.6083C285.549 86.4374 285.577 88.3808 285.577 90.4385C285.577 92.3247 285.549 94.1252 285.492 95.84C285.492 97.4976 285.492 99.0123 285.492 100.384C285.549 101.756 285.662 103.013 285.831 104.157C286.114 106.329 286.594 107.958 287.272 109.044C288.007 110.13 289.194 110.673 290.833 110.673C291.963 110.673 292.839 110.387 293.461 109.815C294.082 109.244 294.506 108.415 294.732 107.329C295.015 106.243 295.156 104.9 295.156 103.299C295.156 102.728 295.128 102.156 295.071 101.584C295.071 100.956 295.071 100.298 295.071 99.6124C295.071 98.9265 295.015 98.2406 294.902 97.5547L305.159 97.3833C305.272 98.3549 305.328 99.3266 305.328 100.298C305.385 101.213 305.413 102.099 305.413 102.956C305.413 106.671 304.905 109.758 303.887 112.216C302.927 114.674 301.288 116.531 298.971 117.789C296.71 118.989 293.658 119.589 289.815 119.589Z" fill="black"/>
<path d="M327.744 119.761C328.366 117.074 328.988 114.045 329.609 110.673C330.231 107.243 330.881 103.671 331.559 99.9554C332.237 96.1829 332.944 92.439 333.678 88.7238C334.3 85.4657 334.922 82.2363 335.543 79.0354C336.165 75.8345 336.758 72.6336 337.324 69.4328C337.889 66.2319 338.454 63.0882 339.019 60.0016L353.769 58.8013C354.221 61.945 354.73 65.1459 355.295 68.4039C355.86 71.662 356.425 74.9486 356.99 78.2638C357.612 81.5218 358.177 84.8084 358.686 88.1236C359.364 91.9532 360.042 95.6685 360.72 99.2695C361.455 102.87 362.161 106.3 362.84 109.558C363.518 112.759 364.168 115.817 364.789 118.732L352.837 118.903C352.441 115.76 352.046 112.559 351.65 109.301C351.254 106.043 350.83 102.756 350.378 99.441C349.983 96.0686 349.531 92.7248 349.022 89.4097C348.739 87.8092 348.457 86.2088 348.174 84.6083C347.948 82.9507 347.722 81.3503 347.496 79.807C347.27 78.2638 347.044 76.7491 346.818 75.2629C346.592 73.7768 346.366 72.3764 346.14 71.0618C345.857 72.7765 345.546 74.6342 345.207 76.6347C344.925 78.5781 344.614 80.6073 344.275 82.7221C343.992 84.837 343.653 86.9804 343.258 89.1524C342.749 92.4676 342.269 95.8686 341.816 99.3552C341.364 102.842 340.912 106.3 340.46 109.729C340.065 113.102 339.641 116.303 339.189 119.332L327.744 119.761ZM337.154 108.186V99.8696L354.786 99.3552V108.701L337.154 108.186Z" fill="black"/>
<path d="M402.273 120.104C399.391 120.104 396.876 119.761 394.728 119.075C392.581 118.332 390.8 117.303 389.388 115.988C387.975 114.617 386.901 113.016 386.166 111.187C385.488 109.358 385.149 107.329 385.149 105.1C385.149 104.242 385.206 103.356 385.319 102.442C385.432 101.527 385.601 100.613 385.827 99.6982H396.085C395.858 100.613 395.661 101.499 395.491 102.356C395.378 103.156 395.322 103.899 395.322 104.585C395.322 106.071 395.576 107.357 396.085 108.443C396.593 109.529 397.328 110.387 398.289 111.016C399.249 111.587 400.464 111.873 401.934 111.873C403.742 111.873 405.155 111.616 406.172 111.101C407.246 110.53 407.981 109.787 408.376 108.872C408.828 107.958 409.054 106.957 409.054 105.871C409.054 104.728 408.828 103.785 408.376 103.042C407.924 102.242 407.274 101.527 406.427 100.898C405.579 100.27 404.533 99.6696 403.29 99.098C402.103 98.4693 400.803 97.7834 399.391 97.0403C397.526 96.1258 395.745 95.0969 394.05 93.9537C392.355 92.8106 390.829 91.4674 389.472 89.9241C388.116 88.3236 387.014 86.4374 386.166 84.2654C385.375 82.0934 384.979 79.5498 384.979 76.6347C384.979 73.3196 385.601 70.3187 386.844 67.6323C388.144 64.9458 390.094 62.8024 392.694 61.202C395.35 59.6015 398.769 58.8013 402.951 58.8013C407.133 58.8013 410.467 59.5444 412.954 61.0305C415.497 62.5166 417.334 64.6029 418.464 67.2893C419.594 69.9758 420.159 73.0909 420.159 76.6347C420.159 77.5493 420.103 78.4924 419.99 79.4641C419.933 80.3786 419.849 81.3503 419.736 82.3792C419.623 83.3509 419.481 84.3225 419.312 85.2942H408.376C408.546 83.8081 408.687 82.3506 408.8 80.9216C408.913 79.4927 408.97 78.1494 408.97 76.892C408.97 74.8914 408.772 73.1767 408.376 71.7477C408.037 70.3187 407.387 69.2041 406.427 68.4039C405.522 67.6037 404.223 67.2036 402.527 67.2036C401.34 67.2036 400.323 67.4322 399.475 67.8895C398.628 68.3468 397.921 68.9755 397.356 69.7757C396.847 70.5759 396.452 71.5191 396.169 72.6051C395.943 73.6339 395.83 74.8057 395.83 76.1203C395.83 78.178 396.169 79.8928 396.847 81.2646C397.582 82.6364 398.628 83.8367 399.984 84.8656C401.34 85.8372 402.894 86.7804 404.646 87.6949C406.568 88.6094 408.433 89.5811 410.241 90.61C412.05 91.6388 413.689 92.8106 415.158 94.1252C416.684 95.4399 417.871 97.0117 418.718 98.8408C419.566 100.613 419.99 102.813 419.99 105.443C419.99 108.015 419.368 110.415 418.125 112.645C416.938 114.874 415.045 116.674 412.445 118.046C409.846 119.418 406.455 120.104 402.273 120.104Z" fill="black"/>
<path d="M450.215 119.075C450.215 118.103 450.215 116.903 450.215 115.474C450.271 114.045 450.299 112.416 450.299 110.587C450.356 108.758 450.384 106.757 450.384 104.585C450.441 102.356 450.469 99.9554 450.469 97.3833C450.469 94.8111 450.469 92.0389 450.469 89.0667C450.469 86.0945 450.441 83.208 450.384 80.4072C450.384 77.5493 450.328 74.8914 450.215 72.4336C450.158 69.9758 450.102 67.8323 450.045 66.0033C449.989 64.117 449.932 62.6595 449.876 61.6307C449.876 60.5446 449.876 60.0016 449.876 60.0016L461.659 60.3446C461.659 60.3446 461.659 61.0305 461.659 62.4023C461.659 63.7169 461.631 65.4603 461.574 67.6323C461.574 69.7472 461.546 72.0906 461.489 74.6628C461.489 77.2349 461.461 79.807 461.405 82.3792C461.405 84.8941 461.405 87.1233 461.405 89.0667C461.405 91.0672 461.405 93.4107 461.405 96.0972C461.461 98.7265 461.489 101.441 461.489 104.242C461.546 106.986 461.574 109.558 461.574 111.959C461.631 114.359 461.659 116.303 461.659 117.789C461.659 119.218 461.659 119.932 461.659 119.932L450.215 119.075ZM437.923 68.8326L438.855 59.1443C438.855 59.1443 439.421 59.1443 440.551 59.1443C441.681 59.1443 443.066 59.1443 444.705 59.1443C446.4 59.0871 448.152 59.0585 449.96 59.0585C451.769 59.0585 453.323 59.0585 454.623 59.0585C455.697 59.0585 456.996 59.0585 458.522 59.0585C460.105 59.0585 461.744 59.0585 463.439 59.0585C465.134 59.0014 466.717 58.9728 468.186 58.9728C469.656 58.9156 470.842 58.887 471.747 58.887C472.651 58.887 473.103 58.887 473.103 58.887L473.951 68.1467C473.951 68.1467 473.498 68.1467 472.594 68.1467C471.69 68.1467 470.503 68.1753 469.034 68.2325C467.621 68.2325 466.067 68.261 464.371 68.3182C462.733 68.3182 461.15 68.3182 459.624 68.3182C458.098 68.3182 456.799 68.3182 455.725 68.3182C454.651 68.3182 453.351 68.3468 451.825 68.4039C450.356 68.4611 448.802 68.5182 447.163 68.5754C445.524 68.5754 443.998 68.604 442.585 68.6611C441.229 68.7183 440.127 68.7755 439.279 68.8326C438.375 68.8326 437.923 68.8326 437.923 68.8326Z" fill="black"/>
<path d="M122.954 166.887C122.737 165.83 122.489 164.685 122.208 163.452C121.949 162.197 121.668 160.887 121.365 159.522C121.063 158.135 120.749 156.715 120.425 155.262C120.231 154.381 120.025 153.49 119.809 152.587C119.615 151.662 119.409 150.737 119.193 149.813C118.977 148.888 118.761 147.963 118.545 147.039C118.35 146.114 118.145 145.189 117.929 144.265L116.892 143.538L118.999 143.472C119.172 144.309 119.355 145.189 119.55 146.114C119.744 147.039 119.95 147.996 120.166 148.987C120.382 149.956 120.598 150.947 120.814 151.959C121.03 152.95 121.246 153.941 121.462 154.932C121.787 156.385 122.1 157.827 122.403 159.258C122.727 160.667 123.029 162.01 123.31 163.287C123.613 164.564 123.883 165.731 124.121 166.788L122.954 166.887ZM113.78 160.843V159.654L122.078 159.786V160.711L113.78 160.843ZM113.131 166.589L111.932 166.556C112.148 165.588 112.397 164.487 112.678 163.254C112.959 161.999 113.25 160.667 113.553 159.258C113.877 157.849 114.19 156.418 114.493 154.965C114.817 153.512 115.12 152.092 115.401 150.704C115.703 149.295 115.984 147.985 116.243 146.775C116.503 145.542 116.719 144.463 116.892 143.538L118.999 143.472L117.961 144.066C117.724 145.211 117.475 146.411 117.216 147.666C116.957 148.899 116.686 150.154 116.405 151.431C116.125 152.708 115.844 153.996 115.563 155.295C115.282 156.638 114.99 157.97 114.687 159.291C114.406 160.612 114.136 161.889 113.877 163.122C113.618 164.333 113.369 165.489 113.131 166.589Z" fill="black"/>
<path d="M137.121 159.522L136.991 158.399C138.309 158.465 139.444 158.366 140.395 158.102C141.346 157.816 142.124 157.375 142.729 156.781C143.334 156.165 143.777 155.405 144.058 154.502C144.339 153.578 144.479 152.51 144.479 151.299C144.479 149.582 144.317 148.217 143.993 147.204C143.69 146.191 143.182 145.465 142.469 145.024C141.756 144.584 140.773 144.364 139.519 144.364C139.238 144.364 138.936 144.375 138.612 144.397C138.288 144.419 137.942 144.452 137.574 144.496C137.229 144.54 136.861 144.595 136.472 144.661L136.018 143.406C136.407 143.362 136.786 143.329 137.153 143.307C137.52 143.285 137.877 143.274 138.223 143.274C138.569 143.252 138.893 143.241 139.195 143.241C140.751 143.241 141.994 143.472 142.923 143.934C143.874 144.375 144.555 145.167 144.965 146.312C145.398 147.457 145.614 149.086 145.614 151.2C145.614 153.159 145.29 154.756 144.641 155.988C143.993 157.199 143.042 158.091 141.789 158.663C140.535 159.236 138.979 159.522 137.121 159.522ZM136.116 166.854C136.137 165.973 136.159 164.883 136.181 163.584C136.202 162.285 136.213 160.898 136.213 159.423C136.235 157.948 136.245 156.528 136.245 155.163C136.245 153.776 136.235 152.345 136.213 150.87C136.191 149.394 136.159 148.007 136.116 146.708C136.094 145.387 136.062 144.287 136.018 143.406L137.412 143.736C137.412 143.978 137.402 144.485 137.38 145.255C137.38 146.026 137.369 146.929 137.347 147.963C137.347 148.976 137.337 150 137.315 151.035C137.315 152.069 137.315 152.972 137.315 153.743C137.315 154.491 137.315 154.987 137.315 155.229C137.315 155.779 137.315 156.429 137.315 157.177C137.315 157.926 137.315 158.719 137.315 159.555C137.337 160.392 137.347 161.239 137.347 162.098C137.369 162.935 137.38 163.76 137.38 164.575C137.402 165.368 137.423 166.094 137.445 166.755L136.116 166.854Z" fill="black"/>
<path d="M151.466 160.15L151.336 159.027C152.654 159.093 153.789 158.972 154.74 158.663C155.691 158.355 156.469 157.882 157.074 157.243C157.679 156.605 158.122 155.812 158.403 154.866C158.684 153.919 158.824 152.84 158.824 151.629C158.824 149.912 158.662 148.525 158.338 147.468C158.035 146.389 157.527 145.608 156.814 145.123C156.101 144.617 155.118 144.364 153.864 144.364C153.432 144.364 152.957 144.386 152.438 144.43C151.941 144.474 151.401 144.551 150.817 144.661L150.363 143.406C150.752 143.362 151.131 143.329 151.498 143.307C151.865 143.285 152.222 143.274 152.568 143.274C152.914 143.252 153.238 143.241 153.54 143.241C155.096 143.241 156.339 143.494 157.268 144C158.219 144.507 158.9 145.365 159.31 146.576C159.743 147.765 159.959 149.416 159.959 151.53C159.959 153.005 159.775 154.282 159.408 155.361C159.04 156.44 158.5 157.331 157.787 158.036C157.074 158.741 156.188 159.269 155.129 159.621C154.07 159.973 152.849 160.15 151.466 160.15ZM150.461 166.854C150.482 165.973 150.504 164.883 150.526 163.584C150.547 162.285 150.558 160.898 150.558 159.423C150.58 157.948 150.59 156.528 150.59 155.163C150.59 153.776 150.58 152.345 150.558 150.87C150.536 149.394 150.504 148.007 150.461 146.708C150.439 145.387 150.407 144.287 150.363 143.406L151.757 143.736C151.757 143.978 151.747 144.485 151.725 145.255C151.725 146.026 151.714 146.929 151.693 147.963C151.693 148.976 151.682 150 151.66 151.035C151.66 152.069 151.66 152.972 151.66 153.743C151.66 154.491 151.66 154.987 151.66 155.229C151.66 155.933 151.66 156.77 151.66 157.739C151.682 158.707 151.693 159.731 151.693 160.81C151.714 161.889 151.725 162.946 151.725 163.98C151.747 164.993 151.768 165.918 151.79 166.755L150.461 166.854ZM159.764 166.986C159.354 166.061 158.932 165.147 158.5 164.245C158.068 163.32 157.614 162.395 157.138 161.471C156.663 160.524 156.155 159.566 155.615 158.597L156.49 157.772C156.966 158.741 157.452 159.731 157.949 160.744C158.446 161.735 158.965 162.748 159.505 163.782C160.045 164.795 160.618 165.83 161.223 166.887L159.764 166.986Z" fill="black"/>
<path d="M170.296 166.854C169.367 166.854 168.589 166.7 167.962 166.391C167.357 166.061 166.86 165.588 166.471 164.971C166.103 164.333 165.812 163.573 165.596 162.692C165.444 162.032 165.325 161.305 165.239 160.513C165.174 159.698 165.131 158.829 165.109 157.904C165.088 156.957 165.077 155.955 165.077 154.899C165.077 154.26 165.077 153.655 165.077 153.082C165.099 152.488 165.12 151.926 165.142 151.398C165.185 150.848 165.239 150.33 165.304 149.846C165.369 149.339 165.444 148.866 165.531 148.426C165.833 146.819 166.395 145.575 167.216 144.694C168.038 143.813 169.248 143.373 170.847 143.373C172.317 143.373 173.397 143.824 174.089 144.727C174.802 145.608 175.277 146.841 175.515 148.426C175.666 149.306 175.753 150.297 175.774 151.398C175.818 152.499 175.839 153.677 175.839 154.932C175.839 156.01 175.818 157.034 175.774 158.003C175.731 158.972 175.645 159.874 175.515 160.711C175.407 161.526 175.245 162.274 175.029 162.957C174.791 163.771 174.456 164.476 174.024 165.07C173.613 165.643 173.105 166.083 172.5 166.391C171.895 166.7 171.16 166.854 170.296 166.854ZM170.328 165.764C171.042 165.764 171.636 165.632 172.111 165.368C172.608 165.081 173.019 164.685 173.343 164.179C173.667 163.672 173.916 163.056 174.089 162.329C174.24 161.691 174.348 160.986 174.413 160.216C174.499 159.423 174.553 158.575 174.575 157.673C174.597 156.748 174.607 155.779 174.607 154.767C174.607 153.556 174.597 152.455 174.575 151.464C174.575 150.451 174.521 149.538 174.413 148.723C174.305 147.776 174.11 146.984 173.829 146.345C173.57 145.685 173.181 145.189 172.662 144.859C172.144 144.529 171.463 144.364 170.62 144.364C169.821 144.364 169.151 144.54 168.61 144.892C168.07 145.244 167.638 145.751 167.314 146.411C167.011 147.072 166.773 147.864 166.601 148.789C166.536 149.229 166.471 149.703 166.406 150.209C166.363 150.693 166.33 151.211 166.309 151.761C166.287 152.312 166.266 152.884 166.244 153.479C166.244 154.051 166.244 154.645 166.244 155.262C166.244 156.649 166.255 157.915 166.276 159.06C166.32 160.205 166.417 161.195 166.568 162.032C166.719 162.847 166.935 163.529 167.216 164.08C167.519 164.63 167.919 165.048 168.416 165.334C168.934 165.621 169.572 165.764 170.328 165.764Z" fill="black"/>
<path d="M184.179 167.151C183.876 167.151 183.563 167.14 183.238 167.118C182.914 167.118 182.579 167.096 182.234 167.052C181.888 167.03 181.52 166.997 181.131 166.953L181.845 165.863C182.212 165.929 182.558 165.984 182.882 166.028C183.206 166.05 183.519 166.072 183.822 166.094C184.146 166.116 184.449 166.127 184.73 166.127C186.113 166.127 187.204 165.885 188.004 165.401C188.825 164.916 189.43 164.201 189.819 163.254C190.208 162.285 190.457 161.096 190.565 159.687C190.694 158.256 190.759 156.616 190.759 154.767C190.759 152.851 190.673 151.244 190.5 149.945C190.349 148.624 190.057 147.556 189.625 146.741C189.214 145.927 188.62 145.343 187.842 144.991C187.085 144.617 186.091 144.43 184.859 144.43C184.405 144.43 183.876 144.452 183.271 144.496C182.666 144.54 182.072 144.606 181.488 144.694L181.034 143.538C181.596 143.494 182.136 143.461 182.655 143.439C183.174 143.417 183.671 143.406 184.146 143.406C185.789 143.406 187.118 143.593 188.133 143.967C189.149 144.32 189.927 144.925 190.467 145.784C191.008 146.642 191.375 147.82 191.57 149.317C191.786 150.793 191.894 152.642 191.894 154.866C191.894 156.605 191.84 158.146 191.732 159.489C191.624 160.832 191.418 161.988 191.116 162.957C190.835 163.925 190.403 164.718 189.819 165.334C189.257 165.951 188.512 166.413 187.582 166.722C186.675 167.008 185.54 167.151 184.179 167.151ZM181.131 166.953C181.153 166.072 181.175 164.971 181.196 163.65C181.218 162.329 181.229 160.931 181.229 159.456C181.25 157.959 181.261 156.528 181.261 155.163C181.261 153.776 181.25 152.356 181.229 150.903C181.207 149.428 181.175 148.051 181.131 146.775C181.11 145.476 181.077 144.397 181.034 143.538L182.428 143.604C182.428 143.934 182.417 144.474 182.396 145.222C182.396 145.949 182.385 146.786 182.363 147.732C182.363 148.679 182.352 149.648 182.331 150.638C182.331 151.607 182.331 152.51 182.331 153.346C182.331 154.161 182.331 154.811 182.331 155.295C182.331 156.11 182.331 157.023 182.331 158.036C182.352 159.049 182.363 160.073 182.363 161.107C182.385 162.142 182.396 163.1 182.396 163.98C182.417 164.861 182.428 165.577 182.428 166.127C182.45 166.655 182.461 166.92 182.461 166.92L181.131 166.953Z" fill="black"/>
<path d="M201.669 167.118C200.654 167.118 199.811 166.975 199.141 166.689C198.471 166.38 197.931 165.951 197.52 165.401C197.131 164.85 196.85 164.19 196.677 163.419C196.504 162.648 196.418 161.79 196.418 160.843C196.418 160.073 196.418 159.192 196.418 158.201C196.439 157.188 196.45 156.176 196.45 155.163C196.45 154.15 196.45 153.269 196.45 152.521C196.45 151.53 196.45 150.561 196.45 149.615C196.45 148.668 196.439 147.721 196.418 146.775C196.418 145.806 196.396 144.815 196.353 143.802L197.682 143.835C197.66 144.562 197.639 145.332 197.617 146.147C197.596 146.94 197.574 147.732 197.552 148.525C197.552 149.317 197.542 150.077 197.52 150.804C197.52 151.508 197.52 152.147 197.52 152.719C197.52 153.357 197.509 154.073 197.488 154.866C197.488 155.658 197.488 156.451 197.488 157.243C197.488 158.036 197.488 158.763 197.488 159.423C197.488 160.062 197.488 160.546 197.488 160.876C197.488 161.933 197.617 162.858 197.877 163.65C198.157 164.443 198.611 165.059 199.238 165.5C199.865 165.94 200.697 166.16 201.734 166.16C202.577 166.16 203.258 166.017 203.776 165.731C204.317 165.445 204.727 165.059 205.008 164.575C205.311 164.091 205.516 163.562 205.624 162.99C205.732 162.417 205.786 161.856 205.786 161.305C205.786 161.085 205.786 160.557 205.786 159.72C205.808 158.884 205.819 157.86 205.819 156.649C205.819 155.416 205.819 154.128 205.819 152.785C205.819 151.376 205.797 150.099 205.754 148.954C205.732 147.787 205.711 146.752 205.689 145.85C205.667 144.925 205.646 144.122 205.624 143.439L207.018 143.472C207.018 144.199 207.007 144.903 206.986 145.586C206.986 146.246 206.975 146.929 206.953 147.633C206.953 148.338 206.942 149.108 206.921 149.945C206.921 150.782 206.921 151.75 206.921 152.851C206.942 154.722 206.953 156.385 206.953 157.838C206.953 159.291 206.953 160.271 206.953 160.777C206.953 161.504 206.878 162.241 206.726 162.99C206.597 163.738 206.337 164.421 205.948 165.037C205.581 165.654 205.051 166.16 204.36 166.556C203.668 166.931 202.771 167.118 201.669 167.118Z" fill="black"/>
<path d="M217.241 166.986C216.29 166.986 215.49 166.832 214.842 166.523C214.193 166.193 213.675 165.731 213.286 165.136C212.918 164.542 212.627 163.837 212.41 163.023C212.238 162.318 212.108 161.559 212.021 160.744C211.957 159.907 211.913 159.016 211.892 158.069C211.892 157.1 211.892 156.088 211.892 155.031C211.892 154.436 211.892 153.864 211.892 153.313C211.913 152.763 211.935 152.235 211.957 151.728C212 151.2 212.043 150.704 212.086 150.242C212.151 149.758 212.227 149.295 212.313 148.855C212.637 147.204 213.21 145.905 214.031 144.958C214.853 143.989 216.074 143.505 217.694 143.505C218.948 143.505 219.931 143.791 220.644 144.364C221.357 144.914 221.865 145.685 222.168 146.675C222.47 147.644 222.622 148.756 222.622 150.011C222.622 150.627 222.589 151.288 222.524 151.992C222.46 152.675 222.373 153.379 222.265 154.106H221.163C221.271 153.379 221.347 152.675 221.39 151.992C221.455 151.288 221.487 150.627 221.487 150.011C221.487 148.932 221.368 147.985 221.131 147.171C220.893 146.334 220.493 145.685 219.931 145.222C219.369 144.76 218.591 144.529 217.597 144.529C216.3 144.529 215.328 144.969 214.68 145.85C214.053 146.73 213.621 147.897 213.383 149.35C213.297 149.923 213.232 150.55 213.188 151.233C213.145 151.893 213.113 152.587 213.091 153.313C213.07 154.018 213.059 154.756 213.059 155.526C213.059 156.429 213.059 157.287 213.059 158.102C213.08 158.895 213.113 159.643 213.156 160.348C213.221 161.03 213.307 161.669 213.415 162.263C213.653 163.408 214.064 164.311 214.647 164.971C215.252 165.61 216.149 165.929 217.338 165.929C218.289 165.929 219.045 165.764 219.607 165.434C220.169 165.081 220.569 164.553 220.806 163.848C221.066 163.122 221.195 162.208 221.195 161.107C221.195 160.909 221.185 160.7 221.163 160.48C221.163 160.26 221.152 160.04 221.131 159.819C221.131 159.577 221.12 159.335 221.098 159.093H222.168C222.211 159.445 222.233 159.775 222.233 160.084C222.254 160.392 222.265 160.7 222.265 161.008C222.265 162.351 222.081 163.463 221.714 164.344C221.368 165.224 220.828 165.885 220.093 166.325C219.358 166.766 218.408 166.986 217.241 166.986Z" fill="black"/>
<path d="M230.112 166.788C230.112 166.788 230.112 166.567 230.112 166.127C230.133 165.687 230.144 165.092 230.144 164.344C230.166 163.573 230.176 162.692 230.176 161.702C230.198 160.711 230.209 159.654 230.209 158.531C230.23 157.409 230.241 156.286 230.241 155.163C230.241 153.754 230.23 152.367 230.209 151.002C230.187 149.637 230.155 148.404 230.112 147.303C230.09 146.202 230.068 145.332 230.047 144.694C230.025 144.033 230.014 143.703 230.014 143.703L231.408 143.769C231.408 143.769 231.397 144.044 231.376 144.595C231.376 145.123 231.376 145.828 231.376 146.708C231.376 147.567 231.365 148.514 231.343 149.549C231.343 150.583 231.333 151.596 231.311 152.587C231.311 153.578 231.311 154.458 231.311 155.229C231.311 155.999 231.311 156.891 231.311 157.904C231.333 158.895 231.343 159.907 231.343 160.942C231.365 161.977 231.376 162.935 231.376 163.815C231.397 164.696 231.408 165.412 231.408 165.962C231.43 166.49 231.441 166.755 231.441 166.755L230.112 166.788ZM225.119 144.925L225.217 143.637C225.217 143.637 225.4 143.637 225.768 143.637C226.157 143.637 226.632 143.637 227.194 143.637C227.756 143.615 228.318 143.604 228.88 143.604C229.463 143.604 229.95 143.604 230.339 143.604C230.663 143.604 231.073 143.604 231.57 143.604C232.089 143.604 232.64 143.604 233.224 143.604C233.807 143.582 234.347 143.571 234.844 143.571C235.363 143.549 235.785 143.538 236.109 143.538C236.433 143.538 236.595 143.538 236.595 143.538L236.692 144.661C236.692 144.661 236.541 144.661 236.238 144.661C235.936 144.661 235.547 144.672 235.071 144.694C234.596 144.694 234.088 144.705 233.548 144.727C233.007 144.727 232.489 144.727 231.992 144.727C231.495 144.727 231.084 144.727 230.76 144.727C230.436 144.727 230.036 144.738 229.561 144.76C229.085 144.782 228.588 144.804 228.069 144.826C227.572 144.826 227.097 144.837 226.643 144.859C226.189 144.881 225.822 144.903 225.541 144.925C225.26 144.925 225.119 144.925 225.119 144.925Z" fill="black"/>
<path d="M242.049 167.019L240.752 166.854C240.752 166.105 240.752 165.279 240.752 164.377C240.774 163.474 240.785 162.549 240.785 161.603C240.785 160.656 240.785 159.731 240.785 158.829C240.806 157.926 240.817 157.078 240.817 156.286C240.817 155.493 240.817 154.822 240.817 154.271C240.817 153.479 240.817 152.576 240.817 151.563C240.817 150.55 240.817 149.527 240.817 148.492C240.817 147.457 240.806 146.51 240.785 145.652C240.763 144.793 240.742 144.133 240.72 143.67L242.049 143.373C242.027 143.923 242.006 144.606 241.984 145.42C241.984 146.235 241.973 147.127 241.952 148.096C241.952 149.042 241.941 150.044 241.919 151.101C241.919 152.136 241.919 153.17 241.919 154.205C241.919 155.24 241.919 156.341 241.919 157.508C241.941 158.674 241.952 159.841 241.952 161.008C241.973 162.175 241.984 163.276 241.984 164.311C242.006 165.345 242.027 166.248 242.049 167.019Z" fill="black"/>
<path d="M246.66 143.373L247.73 143.043C247.968 144.077 248.195 145.123 248.411 146.18C248.649 147.215 248.876 148.25 249.092 149.284C249.329 150.319 249.556 151.332 249.772 152.323C250.01 153.313 250.237 154.293 250.453 155.262C250.713 156.385 250.961 157.508 251.199 158.63C251.458 159.753 251.717 160.876 251.977 161.999C252.258 163.1 252.528 164.212 252.787 165.334C253.025 164.278 253.263 163.199 253.5 162.098C253.76 160.997 254.019 159.874 254.278 158.73C254.559 157.563 254.829 156.407 255.089 155.262C255.326 154.249 255.553 153.247 255.769 152.257C255.986 151.244 256.202 150.253 256.418 149.284C256.634 148.294 256.839 147.336 257.034 146.411C257.25 145.465 257.455 144.551 257.65 143.67L258.687 143.967C258.514 144.716 258.32 145.531 258.103 146.411C257.909 147.292 257.704 148.217 257.488 149.185C257.271 150.154 257.045 151.156 256.807 152.191C256.569 153.225 256.331 154.293 256.094 155.394C255.856 156.495 255.618 157.585 255.38 158.663C255.143 159.742 254.905 160.788 254.667 161.801C254.451 162.792 254.246 163.727 254.051 164.608C253.857 165.489 253.684 166.281 253.533 166.986L252.042 166.722C251.89 166.017 251.728 165.301 251.555 164.575C251.382 163.826 251.199 163.078 251.004 162.329C250.831 161.581 250.648 160.832 250.453 160.084C250.28 159.313 250.097 158.542 249.902 157.772C249.729 157.001 249.556 156.22 249.383 155.427C249.124 154.326 248.876 153.236 248.638 152.158C248.4 151.079 248.162 150.033 247.925 149.02C247.687 147.985 247.46 146.995 247.244 146.048C247.049 145.101 246.855 144.21 246.66 143.373Z" fill="black"/>
<path d="M263.386 143.67L264.715 143.604C264.715 143.604 264.704 143.791 264.683 144.166C264.683 144.54 264.672 145.057 264.65 145.718C264.65 146.378 264.639 147.16 264.618 148.062C264.618 148.943 264.607 149.912 264.585 150.969C264.585 152.003 264.585 153.082 264.585 154.205C264.585 155.328 264.585 156.484 264.585 157.673C264.607 158.862 264.618 160.006 264.618 161.107C264.639 162.186 264.65 163.166 264.65 164.047C264.672 164.905 264.683 165.588 264.683 166.094C264.704 166.6 264.715 166.854 264.715 166.854H263.418C263.418 166.854 263.418 166.545 263.418 165.929C263.418 165.312 263.418 164.52 263.418 163.551C263.44 162.56 263.451 161.493 263.451 160.348C263.473 159.203 263.483 158.102 263.483 157.045C263.483 155.966 263.483 155.042 263.483 154.271C263.483 153.479 263.483 152.576 263.483 151.563C263.483 150.55 263.483 149.527 263.483 148.492C263.483 147.457 263.473 146.51 263.451 145.652C263.429 144.793 263.408 144.133 263.386 143.67Z" fill="black"/>
<path d="M273.703 166.788C273.703 166.788 273.703 166.567 273.703 166.127C273.724 165.687 273.735 165.092 273.735 164.344C273.757 163.573 273.768 162.692 273.768 161.702C273.789 160.711 273.8 159.654 273.8 158.531C273.822 157.409 273.833 156.286 273.833 155.163C273.833 153.754 273.822 152.367 273.8 151.002C273.778 149.637 273.746 148.404 273.703 147.303C273.681 146.202 273.66 145.332 273.638 144.694C273.616 144.033 273.606 143.703 273.606 143.703L274.999 143.769C274.999 143.769 274.989 144.044 274.967 144.595C274.967 145.123 274.967 145.828 274.967 146.708C274.967 147.567 274.956 148.514 274.935 149.549C274.935 150.583 274.924 151.596 274.902 152.587C274.902 153.578 274.902 154.458 274.902 155.229C274.902 155.999 274.902 156.891 274.902 157.904C274.924 158.895 274.935 159.907 274.935 160.942C274.956 161.977 274.967 162.935 274.967 163.815C274.989 164.696 274.999 165.412 274.999 165.962C275.021 166.49 275.032 166.755 275.032 166.755L273.703 166.788ZM268.711 144.925L268.808 143.637C268.808 143.637 268.992 143.637 269.359 143.637C269.748 143.637 270.223 143.637 270.785 143.637C271.347 143.615 271.909 143.604 272.471 143.604C273.055 143.604 273.541 143.604 273.93 143.604C274.254 143.604 274.665 143.604 275.162 143.604C275.68 143.604 276.231 143.604 276.815 143.604C277.398 143.582 277.939 143.571 278.436 143.571C278.954 143.549 279.376 143.538 279.7 143.538C280.024 143.538 280.186 143.538 280.186 143.538L280.283 144.661C280.283 144.661 280.132 144.661 279.83 144.661C279.527 144.661 279.138 144.672 278.663 144.694C278.187 144.694 277.679 144.705 277.139 144.727C276.599 144.727 276.08 144.727 275.583 144.727C275.086 144.727 274.675 144.727 274.351 144.727C274.027 144.727 273.627 144.738 273.152 144.76C272.676 144.782 272.179 144.804 271.661 144.826C271.164 144.826 270.688 144.837 270.234 144.859C269.78 144.881 269.413 144.903 269.132 144.925C268.851 144.925 268.711 144.925 268.711 144.925Z" fill="black"/>
<path d="M287.034 166.92C287.056 166.215 287.067 165.202 287.067 163.881C287.067 162.56 287.056 161.041 287.034 159.324L288.104 159.456C288.125 160.117 288.147 160.799 288.169 161.504C288.19 162.208 288.212 162.902 288.234 163.584C288.255 164.245 288.266 164.85 288.266 165.401C288.288 165.951 288.298 166.402 288.298 166.755L287.034 166.92ZM282.01 143.373H283.371C283.652 144.386 283.911 145.332 284.149 146.213C284.387 147.072 284.614 147.886 284.83 148.657C285.046 149.405 285.262 150.143 285.478 150.87C285.802 151.97 286.137 153.082 286.483 154.205C286.829 155.306 287.207 156.539 287.618 157.904C287.704 157.618 287.855 157.144 288.071 156.484C288.288 155.801 288.547 154.998 288.849 154.073C289.174 153.126 289.498 152.147 289.822 151.134C290.038 150.429 290.254 149.736 290.47 149.053C290.708 148.371 290.924 147.71 291.119 147.072C291.313 146.411 291.497 145.806 291.67 145.255C291.843 144.705 291.994 144.232 292.123 143.835L293.323 143.934C293.02 144.837 292.729 145.718 292.448 146.576C292.167 147.435 291.886 148.272 291.605 149.086C291.345 149.879 291.086 150.671 290.827 151.464C290.503 152.433 290.178 153.39 289.854 154.337C289.552 155.284 289.249 156.231 288.947 157.177C288.644 158.102 288.331 159.06 288.007 160.051L287.196 160.15C287.002 159.489 286.796 158.807 286.58 158.102C286.386 157.375 286.17 156.638 285.932 155.889C285.716 155.141 285.489 154.392 285.251 153.644C285.013 152.873 284.776 152.125 284.538 151.398C284.279 150.583 284.019 149.791 283.76 149.02C283.522 148.25 283.295 147.523 283.079 146.841C282.863 146.136 282.658 145.498 282.463 144.925C282.29 144.331 282.139 143.813 282.01 143.373Z" fill="black"/>
<path d="M309.382 167.118C308.475 167.118 307.718 166.986 307.113 166.722C306.53 166.457 306.065 166.105 305.719 165.665C305.374 165.202 305.125 164.685 304.974 164.113C304.823 163.518 304.747 162.902 304.747 162.263C304.747 162.021 304.758 161.768 304.779 161.504C304.801 161.239 304.823 160.986 304.844 160.744H305.946C305.903 160.986 305.86 161.239 305.817 161.504C305.795 161.768 305.784 162.043 305.784 162.329C305.784 162.946 305.881 163.551 306.076 164.146C306.292 164.718 306.659 165.191 307.178 165.566C307.697 165.94 308.421 166.127 309.35 166.127C310.344 166.127 311.133 165.984 311.716 165.698C312.3 165.39 312.721 164.971 312.981 164.443C313.24 163.914 313.37 163.298 313.37 162.593C313.37 161.823 313.229 161.151 312.948 160.579C312.689 160.006 312.332 159.5 311.878 159.06C311.425 158.597 310.917 158.168 310.355 157.772C309.815 157.353 309.264 156.935 308.702 156.517C308.183 156.143 307.686 155.735 307.211 155.295C306.735 154.855 306.303 154.359 305.914 153.809C305.546 153.236 305.244 152.598 305.006 151.893C304.79 151.167 304.682 150.341 304.682 149.417C304.682 148.294 304.866 147.292 305.233 146.411C305.601 145.531 306.152 144.837 306.886 144.331C307.643 143.802 308.561 143.538 309.642 143.538C310.96 143.538 311.965 143.824 312.656 144.397C313.348 144.947 313.813 145.696 314.05 146.642C314.31 147.589 314.439 148.646 314.439 149.813C314.439 150.121 314.429 150.44 314.407 150.771C314.407 151.079 314.396 151.387 314.375 151.695C314.375 152.003 314.353 152.323 314.31 152.653H313.24C313.283 152.191 313.316 151.739 313.337 151.299C313.359 150.837 313.37 150.396 313.37 149.978C313.37 148.965 313.262 148.051 313.046 147.237C312.851 146.422 312.484 145.773 311.943 145.288C311.425 144.804 310.668 144.562 309.674 144.562C308.961 144.562 308.356 144.683 307.859 144.925C307.383 145.145 306.984 145.487 306.659 145.949C306.357 146.411 306.13 146.962 305.979 147.6C305.849 148.239 305.784 148.976 305.784 149.813C305.784 150.737 305.957 151.563 306.303 152.29C306.67 152.994 307.135 153.622 307.697 154.172C308.259 154.722 308.864 155.251 309.512 155.757C310.096 156.22 310.679 156.671 311.263 157.111C311.868 157.552 312.408 158.025 312.883 158.531C313.38 159.038 313.769 159.61 314.05 160.249C314.353 160.865 314.504 161.57 314.504 162.362C314.504 163.287 314.321 164.113 313.953 164.839C313.607 165.544 313.056 166.105 312.3 166.523C311.544 166.92 310.571 167.118 309.382 167.118Z" fill="black"/>
<path d="M324.591 166.854C323.596 166.854 322.764 166.644 322.094 166.226C321.446 165.808 320.917 165.224 320.506 164.476C320.117 163.705 319.825 162.814 319.631 161.801C319.501 161.14 319.393 160.447 319.307 159.72C319.242 158.972 319.199 158.201 319.177 157.409C319.155 156.594 319.145 155.757 319.145 154.899C319.145 154.326 319.145 153.765 319.145 153.214C319.166 152.664 319.199 152.125 319.242 151.596C319.285 151.046 319.339 150.517 319.404 150.011C319.49 149.483 319.588 148.976 319.696 148.492C320.063 146.995 320.657 145.773 321.479 144.826C322.321 143.857 323.542 143.373 325.142 143.373C326.136 143.373 326.957 143.604 327.605 144.066C328.254 144.529 328.761 145.156 329.129 145.949C329.496 146.719 329.766 147.611 329.939 148.624C330.112 149.571 330.22 150.594 330.263 151.695C330.307 152.774 330.328 153.853 330.328 154.932C330.328 155.856 330.296 156.77 330.231 157.673C330.188 158.553 330.112 159.401 330.004 160.216C329.896 161.008 329.734 161.757 329.518 162.461C329.129 163.782 328.545 164.85 327.767 165.665C326.989 166.457 325.93 166.854 324.591 166.854ZM324.623 165.764C325.314 165.764 325.909 165.621 326.406 165.334C326.903 165.048 327.314 164.641 327.638 164.113C327.983 163.562 328.254 162.913 328.448 162.164C328.707 161.217 328.88 160.117 328.967 158.862C329.053 157.607 329.096 156.242 329.096 154.767C329.096 153.71 329.086 152.708 329.064 151.761C329.042 150.793 328.978 149.901 328.87 149.086C328.675 147.655 328.286 146.51 327.703 145.652C327.119 144.793 326.19 144.364 324.915 144.364C323.726 144.364 322.818 144.782 322.192 145.619C321.565 146.455 321.1 147.523 320.798 148.822C320.711 149.306 320.636 149.813 320.571 150.341C320.506 150.848 320.452 151.376 320.409 151.926C320.366 152.477 320.333 153.027 320.312 153.578C320.312 154.128 320.312 154.689 320.312 155.262C320.312 156.451 320.333 157.574 320.376 158.63C320.42 159.665 320.517 160.612 320.668 161.471C320.841 162.351 321.079 163.122 321.381 163.782C321.684 164.421 322.094 164.916 322.613 165.268C323.153 165.599 323.823 165.764 324.623 165.764Z" fill="black"/>
<path d="M335.426 167.085C335.448 166.182 335.469 165.059 335.491 163.716C335.512 162.373 335.523 160.953 335.523 159.456C335.545 157.959 335.556 156.528 335.556 155.163C335.556 153.776 335.545 152.367 335.523 150.936C335.502 149.505 335.469 148.162 335.426 146.907C335.404 145.652 335.372 144.617 335.329 143.802L336.723 143.538C336.723 144.375 336.712 145.321 336.69 146.378C336.69 147.435 336.679 148.514 336.658 149.615C336.658 150.693 336.647 151.728 336.625 152.719C336.625 153.688 336.625 154.524 336.625 155.229C336.625 155.933 336.625 156.77 336.625 157.739C336.647 158.707 336.658 159.731 336.658 160.81C336.679 161.889 336.69 162.946 336.69 163.98C336.712 164.993 336.733 165.918 336.755 166.755L335.426 167.085ZM335.426 167.085L336.528 165.929L344.308 165.896V166.788L335.426 167.085Z" fill="black"/>
<path d="M353.083 167.118C352.067 167.118 351.225 166.975 350.555 166.689C349.885 166.38 349.344 165.951 348.934 165.401C348.545 164.85 348.264 164.19 348.091 163.419C347.918 162.648 347.832 161.79 347.832 160.843C347.832 160.073 347.832 159.192 347.832 158.201C347.853 157.188 347.864 156.176 347.864 155.163C347.864 154.15 347.864 153.269 347.864 152.521C347.864 151.53 347.864 150.561 347.864 149.615C347.864 148.668 347.853 147.721 347.832 146.775C347.832 145.806 347.81 144.815 347.767 143.802L349.096 144.166C349.074 145.134 349.053 146.136 349.031 147.171C349.009 148.206 348.988 149.207 348.966 150.176C348.966 151.123 348.955 151.97 348.934 152.719C348.934 153.357 348.923 154.073 348.901 154.866C348.901 155.658 348.901 156.451 348.901 157.243C348.901 158.036 348.901 158.763 348.901 159.423C348.901 160.062 348.901 160.546 348.901 160.876C348.901 161.933 349.031 162.858 349.29 163.65C349.571 164.443 350.025 165.059 350.652 165.5C351.279 165.94 352.111 166.16 353.148 166.16C353.991 166.16 354.671 166.017 355.19 165.731C355.73 165.445 356.141 165.059 356.422 164.575C356.725 164.091 356.93 163.562 357.038 162.99C357.146 162.417 357.2 161.856 357.2 161.305C357.2 161.085 357.2 160.557 357.2 159.72C357.222 158.884 357.232 157.86 357.232 156.649C357.232 155.416 357.232 154.128 357.232 152.785C357.232 151.376 357.211 150.099 357.168 148.954C357.146 147.787 357.124 146.752 357.103 145.85C357.081 144.925 357.059 144.122 357.038 143.439L358.432 143.142C358.432 144.111 358.421 145.068 358.399 146.015C358.378 146.94 358.356 147.952 358.335 149.053C358.335 150.132 358.335 151.398 358.335 152.851C358.356 154.722 358.367 156.385 358.367 157.838C358.367 159.291 358.367 160.271 358.367 160.777C358.367 161.504 358.291 162.241 358.14 162.99C358.01 163.738 357.751 164.421 357.362 165.037C356.995 165.654 356.465 166.16 355.774 166.556C355.082 166.931 354.185 167.118 353.083 167.118Z" fill="black"/>
<path d="M366.742 166.788C366.742 166.788 366.742 166.567 366.742 166.127C366.763 165.687 366.774 165.092 366.774 164.344C366.796 163.573 366.807 162.692 366.807 161.702C366.828 160.711 366.839 159.654 366.839 158.531C366.861 157.409 366.871 156.286 366.871 155.163C366.871 153.754 366.861 152.367 366.839 151.002C366.817 149.637 366.785 148.404 366.742 147.303C366.72 146.202 366.699 145.332 366.677 144.694C366.655 144.033 366.645 143.703 366.645 143.703L368.038 143.769C368.038 143.769 368.028 144.044 368.006 144.595C368.006 145.123 368.006 145.828 368.006 146.708C368.006 147.567 367.995 148.514 367.974 149.549C367.974 150.583 367.963 151.596 367.941 152.587C367.941 153.578 367.941 154.458 367.941 155.229C367.941 155.999 367.941 156.891 367.941 157.904C367.963 158.895 367.974 159.907 367.974 160.942C367.995 161.977 368.006 162.935 368.006 163.815C368.028 164.696 368.038 165.412 368.038 165.962C368.06 166.49 368.071 166.755 368.071 166.755L366.742 166.788ZM361.75 144.925L361.847 143.637C361.847 143.637 362.031 143.637 362.398 143.637C362.787 143.637 363.262 143.637 363.824 143.637C364.386 143.615 364.948 143.604 365.51 143.604C366.093 143.604 366.58 143.604 366.969 143.604C367.293 143.604 367.703 143.604 368.201 143.604C368.719 143.604 369.27 143.604 369.854 143.604C370.437 143.582 370.978 143.571 371.475 143.571C371.993 143.549 372.415 143.538 372.739 143.538C373.063 143.538 373.225 143.538 373.225 143.538L373.322 144.661C373.322 144.661 373.171 144.661 372.868 144.661C372.566 144.661 372.177 144.672 371.701 144.694C371.226 144.694 370.718 144.705 370.178 144.727C369.638 144.727 369.119 144.727 368.622 144.727C368.125 144.727 367.714 144.727 367.39 144.727C367.066 144.727 366.666 144.738 366.191 144.76C365.715 144.782 365.218 144.804 364.7 144.826C364.202 144.826 363.727 144.837 363.273 144.859C362.819 144.881 362.452 144.903 362.171 144.925C361.89 144.925 361.75 144.925 361.75 144.925Z" fill="black"/>
<path d="M377.35 143.67L378.679 143.604C378.679 143.604 378.668 143.791 378.647 144.166C378.647 144.54 378.636 145.057 378.614 145.718C378.614 146.378 378.603 147.16 378.582 148.062C378.582 148.943 378.571 149.912 378.549 150.969C378.549 152.003 378.549 153.082 378.549 154.205C378.549 155.328 378.549 156.484 378.549 157.673C378.571 158.862 378.582 160.006 378.582 161.107C378.603 162.186 378.614 163.166 378.614 164.047C378.636 164.905 378.647 165.588 378.647 166.094C378.668 166.6 378.679 166.854 378.679 166.854H377.382C377.382 166.854 377.382 166.545 377.382 165.929C377.382 165.312 377.382 164.52 377.382 163.551C377.404 162.56 377.415 161.493 377.415 160.348C377.436 159.203 377.447 158.102 377.447 157.045C377.447 155.966 377.447 155.042 377.447 154.271C377.447 153.479 377.447 152.576 377.447 151.563C377.447 150.55 377.447 149.527 377.447 148.492C377.447 147.457 377.436 146.51 377.415 145.652C377.393 144.793 377.372 144.133 377.35 143.67Z" fill="black"/>
<path d="M389.677 166.854C388.747 166.854 387.969 166.7 387.343 166.391C386.738 166.061 386.24 165.588 385.852 164.971C385.484 164.333 385.192 163.573 384.976 162.692C384.825 162.032 384.706 161.305 384.62 160.513C384.555 159.698 384.512 158.829 384.49 157.904C384.468 156.957 384.458 155.955 384.458 154.899C384.458 154.26 384.458 153.655 384.458 153.082C384.479 152.488 384.501 151.926 384.522 151.398C384.566 150.848 384.62 150.33 384.684 149.846C384.749 149.339 384.825 148.866 384.911 148.426C385.214 146.819 385.776 145.575 386.597 144.694C387.418 143.813 388.629 143.373 390.228 143.373C391.697 143.373 392.778 143.824 393.469 144.727C394.183 145.608 394.658 146.841 394.896 148.426C395.047 149.306 395.133 150.297 395.155 151.398C395.198 152.499 395.22 153.677 395.22 154.932C395.22 156.01 395.198 157.034 395.155 158.003C395.112 158.972 395.025 159.874 394.896 160.711C394.788 161.526 394.626 162.274 394.409 162.957C394.172 163.771 393.837 164.476 393.405 165.07C392.994 165.643 392.486 166.083 391.881 166.391C391.276 166.7 390.541 166.854 389.677 166.854ZM389.709 165.764C390.422 165.764 391.017 165.632 391.492 165.368C391.989 165.081 392.4 164.685 392.724 164.179C393.048 163.672 393.296 163.056 393.469 162.329C393.621 161.691 393.729 160.986 393.794 160.216C393.88 159.423 393.934 158.575 393.956 157.673C393.977 156.748 393.988 155.779 393.988 154.767C393.988 153.556 393.977 152.455 393.956 151.464C393.956 150.451 393.902 149.538 393.794 148.723C393.685 147.776 393.491 146.984 393.21 146.345C392.951 145.685 392.562 145.189 392.043 144.859C391.524 144.529 390.844 144.364 390.001 144.364C389.201 144.364 388.531 144.54 387.991 144.892C387.451 145.244 387.018 145.751 386.694 146.411C386.392 147.072 386.154 147.864 385.981 148.789C385.916 149.229 385.852 149.703 385.787 150.209C385.743 150.693 385.711 151.211 385.689 151.761C385.668 152.312 385.646 152.884 385.625 153.479C385.625 154.051 385.625 154.645 385.625 155.262C385.625 156.649 385.635 157.915 385.657 159.06C385.7 160.205 385.797 161.195 385.949 162.032C386.1 162.847 386.316 163.529 386.597 164.08C386.9 164.63 387.299 165.048 387.796 165.334C388.315 165.621 388.953 165.764 389.709 165.764Z" fill="black"/>
<path d="M400.48 143.538L402.036 143.241C402.273 143.923 402.554 144.705 402.878 145.586C403.203 146.444 403.548 147.369 403.916 148.36C404.305 149.35 404.705 150.374 405.115 151.431C405.526 152.466 405.926 153.49 406.315 154.502C406.833 155.801 407.33 157.089 407.806 158.366C408.303 159.643 408.767 160.821 409.2 161.9C409.632 162.957 409.999 163.848 410.302 164.575C410.302 163.364 410.291 162.175 410.269 161.008C410.269 159.819 410.259 158.652 410.237 157.508C410.237 156.363 410.237 155.251 410.237 154.172C410.237 153.269 410.226 152.323 410.205 151.332C410.205 150.341 410.205 149.339 410.205 148.327C410.205 147.314 410.194 146.312 410.172 145.321C410.172 144.309 410.161 143.329 410.14 142.382L411.534 142.613C411.512 143.472 411.49 144.518 411.469 145.751C411.447 146.962 411.426 148.272 411.404 149.681C411.404 151.068 411.404 152.466 411.404 153.875C411.404 154.998 411.404 156.143 411.404 157.309C411.404 158.454 411.404 159.588 411.404 160.711C411.404 161.834 411.404 162.913 411.404 163.947C411.426 164.982 411.447 165.951 411.469 166.854L409.978 166.986C409.524 165.819 409.048 164.597 408.551 163.32C408.054 162.021 407.546 160.722 407.028 159.423C406.531 158.102 406.034 156.825 405.537 155.592C405.104 154.491 404.694 153.446 404.305 152.455C403.916 151.442 403.548 150.517 403.203 149.681C402.878 148.844 402.587 148.118 402.327 147.501C402.068 146.863 401.874 146.378 401.744 146.048C401.744 147.391 401.744 148.789 401.744 150.242C401.766 151.695 401.776 153.203 401.776 154.767C401.776 155.691 401.776 156.66 401.776 157.673C401.798 158.663 401.809 159.687 401.809 160.744C401.809 161.779 401.809 162.836 401.809 163.914C401.83 164.971 401.852 166.039 401.874 167.118L400.577 167.349C400.599 166.336 400.609 165.147 400.609 163.782C400.631 162.417 400.642 160.986 400.642 159.489C400.642 157.97 400.642 156.495 400.642 155.064C400.642 153.611 400.631 152.191 400.609 150.804C400.588 149.416 400.566 148.107 400.544 146.874C400.544 145.619 400.523 144.507 400.48 143.538Z" fill="black"/>
<defs>
<filter id="filter0_d_4_3" x="0" y="0" width="516.079" height="226.186" filterUnits="userSpaceOnUse" color-interpolation-filters="sRGB">
<feFlood flood-opacity="0" result="BackgroundImageFix"/>
<feColorMatrix in="SourceAlpha" type="matrix" values="0 0 0 0 0 0 0 0 0 0 0 0 0 0 0 0 0 0 127 0" result="hardAlpha"/>
<feOffset dx="-3" dy="4"/>
<feGaussianBlur stdDeviation="8"/>
<feComposite in2="hardAlpha" operator="out"/>
<feColorMatrix type="matrix" values="0 0 0 0 0 0 0 0 0 0 0 0 0 0 0 0 0 0 0.25 0"/>
<feBlend mode="normal" in2="BackgroundImageFix" result="effect1_dropShadow_4_3"/>
<feBlend mode="normal" in="SourceGraphic" in2="effect1_dropShadow_4_3" result="shape"/>
</filter>
<filter id="filter1_d_4_3" x="0" y="0" width="516.079" height="226.186" filterUnits="userSpaceOnUse" color-interpolation-filters="sRGB">
<feFlood flood-opacity="0" result="BackgroundImageFix"/>
<feColorMatrix in="SourceAlpha" type="matrix" values="0 0 0 0 0 0 0 0 0 0 0 0 0 0 0 0 0 0 127 0" result="hardAlpha"/>
<feOffset dx="-3" dy="4"/>
<feGaussianBlur stdDeviation="8"/>
<feComposite in2="hardAlpha" operator="out"/>
<feColorMatrix type="matrix" values="0 0 0 0 0 0 0 0 0 0 0 0 0 0 0 0 0 0 0.25 0"/>
<feBlend mode="normal" in2="BackgroundImageFix" result="effect1_dropShadow_4_3"/>
<feBlend mode="normal" in="SourceGraphic" in2="effect1_dropShadow_4_3" result="shape"/>
</filter>
</defs>
</svg>
