<svg width="59" height="59" viewBox="0 0 59 59" fill="none" xmlns="http://www.w3.org/2000/svg">
<g filter="url(#filter0_d_2_125)">
<path d="M47.593 19.9257C48.2903 18.0423 48.4917 16.2464 47.9907 14.6346C47.76 14.6554 47.5206 14.6661 47.2755 14.6661C39.9354 14.6661 26.9624 5.43763 25.9805 4C21.9349 9.89313 13.4554 14.4239 9.62265 19.505C8.07179 21.5612 7.29635 23.0912 8.83933 25.4433L24.9994 46.2073C25.7283 47.1941 27.1566 47.2744 28.1735 46.3642C28.1735 46.3642 41.4261 29.3585 51 24.0967C50.2805 22.6913 49.0829 21.2888 47.593 19.9257ZM24.7178 41.8069L24.6504 41.8535L24.5895 41.9065C24.3372 42.133 24.1193 42.3838 23.9359 42.6526L9.93368 24.6622C8.92533 23.102 9.21128 22.2807 10.6955 20.3142C12.3789 18.0832 15.0693 15.9174 17.918 13.6248C20.8793 11.2412 23.9294 8.78732 26.1697 5.99519C29.8677 9.03815 40.2113 15.7569 46.9043 16.0027C47.7069 23.8839 31.3655 37.1701 24.7178 41.8069Z" fill="black"/>
<path d="M20.8943 12.7132L38.9579 26.8673L39.6014 26.2911L21.3645 12.2918L20.8943 12.7132Z" fill="black"/>
<path d="M26.781 20.2475L19.3879 14.0612C19.3879 14.0612 16.8151 15.7038 13.699 19.3065L20.258 26.0876L26.781 20.2475Z" fill="black"/>
<path d="M10.5837 22.6763L24.5357 39.7766L27.1121 37.4711L12.237 20.464C12.237 20.464 10.9406 21.1656 10.5837 22.6763Z" fill="black"/>
<path d="M26.217 23.6567L34.3217 31.0168L36.8967 28.7113L28.458 21.6507L26.217 23.6567Z" fill="black"/>
<path d="M21.735 27.6693L29.1718 35.6271L31.7461 33.3223L23.976 25.6633L21.735 27.6693Z" fill="black"/>
<path d="M26.5302 10.2751L25.4373 13.3439L26.1224 13.8427L29.6018 10.7273L28.921 10.2988L26.5238 12.4452L27.5837 9.45382L26.8728 9.00519L23.5568 11.9736L24.1509 12.4058L26.5302 10.2751Z" fill="black"/>
<path d="M29.5079 16.3116L30.1715 15.716L28.147 14.277L29.065 13.4557L30.8631 14.6869L31.5017 14.1143L29.6835 12.9003L30.4417 12.2223L32.4548 13.5245L33.1084 12.9404L30.3249 11.1831L26.8004 14.3386L29.5079 16.3116Z" fill="black"/>
<path d="M31.6644 17.8825L34.4157 16.2163L35.3165 15.6458L34.7188 16.4184L32.9487 18.8199L33.8036 19.4427L39.0984 16.7201L38.0936 16.0858L35.1904 17.747L34.4494 18.1957L34.9467 17.5414L36.6674 15.1857L35.7014 14.5765L33.0175 16.2399L32.3044 16.6907L32.7953 16.0665L34.4207 13.7681L33.5148 13.1962L30.8911 17.3192L31.6644 17.8825Z" fill="black"/>
<path d="M41.616 18.1219C40.9646 17.7127 40.3561 17.517 39.7871 17.5285C39.2223 17.5407 38.7594 17.7105 38.3946 18.0373C37.994 18.3957 37.8592 18.7676 37.9911 19.1532C38.0685 19.3847 38.315 19.7193 38.7357 20.1622L39.1707 20.6195C39.4302 20.8889 39.5972 21.1097 39.6703 21.2788C39.7419 21.4501 39.7068 21.5999 39.5656 21.726C39.3241 21.9417 39.0095 21.9826 38.6232 21.8507C38.4218 21.7805 38.1968 21.6572 37.951 21.4816C37.5425 21.1906 37.344 20.9104 37.349 20.6402C37.3518 20.4926 37.4328 20.3235 37.5912 20.1328L36.6517 19.4778C36.2281 19.8569 36.0676 20.2798 36.1736 20.7492C36.2804 21.2229 36.6438 21.6902 37.2744 22.1503C37.903 22.6111 38.5286 22.8576 39.1435 22.8848C39.7649 22.9114 40.2766 22.748 40.6707 22.3932C41.0577 22.0478 41.1953 21.6765 41.0849 21.2817C41.0147 21.0287 40.8176 20.7341 40.4994 20.3987L39.7864 19.6462C39.5147 19.3624 39.3528 19.1654 39.2976 19.0528C39.2116 18.8816 39.2424 18.7303 39.3908 18.5985C39.552 18.4537 39.7584 18.3949 40.0107 18.42C40.2665 18.4451 40.5331 18.5476 40.8119 18.7268C41.0649 18.8902 41.2433 19.0593 41.3429 19.2342C41.497 19.4979 41.454 19.7523 41.2175 19.9938L42.276 20.6911C42.7161 20.2669 42.8537 19.8175 42.6896 19.3452C42.529 18.8773 42.17 18.4688 41.616 18.1219Z" fill="black"/>
</g>
<defs>
<filter id="filter0_d_2_125" x="0" y="0" width="59" height="58.9999" filterUnits="userSpaceOnUse" color-interpolation-filters="sRGB">
<feFlood flood-opacity="0" result="BackgroundImageFix"/>
<feColorMatrix in="SourceAlpha" type="matrix" values="0 0 0 0 0 0 0 0 0 0 0 0 0 0 0 0 0 0 127 0" result="hardAlpha"/>
<feOffset dy="4"/>
<feGaussianBlur stdDeviation="4"/>
<feComposite in2="hardAlpha" operator="out"/>
<feColorMatrix type="matrix" values="0 0 0 0 0 0 0 0 0 0 0 0 0 0 0 0 0 0 0.25 0"/>
<feBlend mode="normal" in2="BackgroundImageFix" result="effect1_dropShadow_2_125"/>
<feBlend mode="normal" in="SourceGraphic" in2="effect1_dropShadow_2_125" result="shape"/>
</filter>
</defs>
</svg>
