<svg width="50" height="50" viewBox="0 0 50 50" fill="none" xmlns="http://www.w3.org/2000/svg">
<g filter="url(#filter0_d_2_199)">
<path d="M11.0909 10.1818V34.9091H38.9091V38H11.0909C10.2711 38 9.48496 37.6744 8.90531 37.0947C8.32565 36.515 8 35.7289 8 34.9091V10.1818H11.0909ZM31.1818 14.8182H39.6818L31.1818 6.31818V14.8182ZM17.2727 4H32.7273L42 13.2727V28.7273C42 29.547 41.6744 30.3332 41.0947 30.9129C40.515 31.4925 39.7289 31.8182 38.9091 31.8182H17.2727C15.5573 31.8182 14.1818 30.4273 14.1818 28.7273V7.09091C14.1818 6.27115 14.5075 5.48496 15.0871 4.90531C15.6668 4.32565 16.453 4 17.2727 4ZM17.2727 7.09091V28.7273H38.9091V17.9091H28.0909V7.09091H17.2727Z" fill="black"/>
</g>
<defs>
<filter id="filter0_d_2_199" x="0" y="0" width="50" height="50" filterUnits="userSpaceOnUse" color-interpolation-filters="sRGB">
<feFlood flood-opacity="0" result="BackgroundImageFix"/>
<feColorMatrix in="SourceAlpha" type="matrix" values="0 0 0 0 0 0 0 0 0 0 0 0 0 0 0 0 0 0 127 0" result="hardAlpha"/>
<feOffset dy="4"/>
<feGaussianBlur stdDeviation="4"/>
<feComposite in2="hardAlpha" operator="out"/>
<feColorMatrix type="matrix" values="0 0 0 0 0 0 0 0 0 0 0 0 0 0 0 0 0 0 0.15 0"/>
<feBlend mode="normal" in2="BackgroundImageFix" result="effect1_dropShadow_2_199"/>
<feBlend mode="normal" in="SourceGraphic" in2="effect1_dropShadow_2_199" result="shape"/>
</filter>
</defs>
</svg>
