<svg width="47" height="50" viewBox="0 0 47 50" fill="none" xmlns="http://www.w3.org/2000/svg">
<g filter="url(#filter0_d_112_41)">
<path d="M35.6072 14.3457L38.0528 12.0467C37.2778 11.221 36.5028 10.4762 35.6244 9.76381L33.1789 12.0952C30.5094 10.0552 27.1511 8.85714 23.5 8.85714C14.9406 8.85714 8 15.3819 8 23.4286C8 31.4752 14.9406 38 23.5 38C32.1111 38 39 31.4752 39 23.4286C39 19.9962 37.7256 16.839 35.6072 14.3457ZM25.2222 25.0476H21.7778V13.7143H25.2222V25.0476ZM28.6667 4H18.3333V7.2381H28.6667V4Z" fill="black"/>
</g>
<defs>
<filter id="filter0_d_112_41" x="0" y="0" width="47" height="50" filterUnits="userSpaceOnUse" color-interpolation-filters="sRGB">
<feFlood flood-opacity="0" result="BackgroundImageFix"/>
<feColorMatrix in="SourceAlpha" type="matrix" values="0 0 0 0 0 0 0 0 0 0 0 0 0 0 0 0 0 0 127 0" result="hardAlpha"/>
<feOffset dy="4"/>
<feGaussianBlur stdDeviation="4"/>
<feComposite in2="hardAlpha" operator="out"/>
<feColorMatrix type="matrix" values="0 0 0 0 0 0 0 0 0 0 0 0 0 0 0 0 0 0 0.25 0"/>
<feBlend mode="normal" in2="BackgroundImageFix" result="effect1_dropShadow_112_41"/>
<feBlend mode="normal" in="SourceGraphic" in2="effect1_dropShadow_112_41" result="shape"/>
</filter>
</defs>
</svg>
